<svg xmlns="http://www.w3.org/2000/svg" xmlns:xlink="http://www.w3.org/1999/xlink" version="1.1" style="enable-background:new 0 0 67 67;" xml:space="preserve" width="67" height="62"><rect id="backgroundrect" width="100%" height="100%" x="0" y="0" fill="none" stroke="none"/>
<style type="text/css">
	.st0{fill:#FFC100;}
	.st1{fill:#FFFFFF;}
	.st2{fill:#00B549;stroke:#00B549;stroke-width:0.25;stroke-miterlimit:10;}
	.st3{fill:#00B549;stroke:#00B549;stroke-width:0.75;stroke-miterlimit:10;}
</style>





<g class="currentLayer" style=""><title>Layer 1</title><g id="svg_1" class="">
	<g id="svg_2">
		<g id="svg_3">
			<polygon class="st0" points="41.400001525878906,27.649999380111694 44.599998474121094,29.44999861717224 50.79999923706055,25.850000143051147 41.400001525878906,20.24999976158142 " id="svg_4"/>
			<path class="st0" d="M60.5,16.249999976158144 c-0.4,-0.3000000000000001 -0.8,-0.6000000000000002 -1.2,-1 c-0.2,-0.1 -0.5,-0.2 -0.7000000000000002,-0.3000000000000001 L52,26.54999997615814 l-6.5,3.6 l-5.4,2.9 V19.54999997615814 L46,9.349999976158141 c-0.2,-0.1 -0.4,-0.2 -0.6000000000000002,-0.3000000000000001 c-0.6000000000000002,-0.1 -1.2,-0.3000000000000001 -1.8,-0.5 c-3.1,-0.6000000000000002 -6.5,-1.1 -10,-1.1 C15,7.449999976158143 0,17.54999997615814 0,29.84999997615814 C0,42.14999997615814 15,52.24999997615814 33.6,52.24999997615814 c0,0 0,0 0.2,0 c0.2,2.7 -2.9,7.2 -7.4,9.4 c17.7,0 25.8,-13.2 25.8,-13.2 c9,-4 14.8,-10.8 14.8,-18.6 C67.4,24.749999976158144 64.8,20.04999997615814 60.5,16.249999976158144 zM15.5,36.14999997615814 c-1.8,0 -3.1,-1.3 -3.1,-3.1 s1.3,-3.1 3.1,-3.1 s3.1,1.3 3.1,3.1 S17,36.14999997615814 15.5,36.14999997615814 zM23.7,36.14999997615814 c-1.8,0 -3.1,-1.3 -3.1,-3.1 s1.3,-3.1 3.1,-3.1 s3.1,1.3 3.1,3.1 S25.5,36.14999997615814 23.7,36.14999997615814 zM32,36.14999997615814 c-1.8,0 -3.1,-1.3 -3.1,-3.1 s1.3,-3.1 3.1,-3.1 c1.8,0 3.1,1.3 3.1,3.1 S33.8,36.14999997615814 32,36.14999997615814 z" id="svg_5"/>
		</g>
	</g>
</g><path class="st0" d="M49.1,34.54999997615814 h-4.7 c-6.4,0 -11.7,-5.3 -11.7,-11.7 v0 c0,-6.4 5.3,-11.7 11.7,-11.7 h4.7 c6.4,0 11.7,5.3 11.7,11.7 v0 C60.8,29.34999997615814 55.6,34.54999997615814 49.1,34.54999997615814 z" id="svg_6"/><path class="st1" d="M44.5,27.149999976158142 h-1.6 c-2.3,0 -4.3,-1.9 -4.3,-4.3 v0 c0,-2.3 1.9,-4.3 4.3,-4.3 h1.6 c2.3,0 4.3,1.9 4.3,4.3 v0 C48.7,25.249999976158144 46.8,27.149999976158142 44.5,27.149999976158142 z" id="svg_7"/><g id="svg_8" class="">
	<path class="st2" d="M62.4,1.2499999761581422 c-1.5,-1 -3.4,-1.4 -5.3,-1.2 c-1.9,0.2 -3.5,1 -4.6,2.3 L38.8,18.34999997615814 c-0.2,0.2 -0.2,0.4 -0.2,0.6000000000000002 l-0.3000000000000001,8.9 c0,0.4 0.2,0.7000000000000002 0.5,0.9 c0.5,0.4 1.1,0.2 1.2,0.2 l9.8,-2.8 c0.2,-0.1 0.5,-0.2 0.6000000000000002,-0.4 l13.7,-15.9 C66.4,7.149999976158142 65.6,3.3499999761581423 62.4,1.2499999761581422 zM48.5,24.149999976158142 l-7.6,2.2 l0.3000000000000001,-6.9 L52,6.749999976158142 l7.4,4.7 L48.5,24.149999976158142 zM62,8.549999976158142 l-1.1,1.3 l-7.4,-4.7 l1.1,-1.3 c2.5,-2.5 5.2,-1.4 6.3,-0.7000000000000002 C63,4.349999976158142 63.4,6.849999976158141 62,8.549999976158142 z" id="svg_9"/>
</g><polygon class="st3" points="40.20000076293945,18.350000143051147 49.20000076293945,23.74999976158142 62.79999923706055,8.750000715255737 53.79999923706055,3.3499999046325684 " id="svg_10"/></g></svg>