<svg xmlns="http://www.w3.org/2000/svg" xmlns:xlink="http://www.w3.org/1999/xlink" version="1.1" style="enable-background:new 0 0 420 420;" xml:space="preserve" width="331" height="342"><rect id="backgroundrect" width="100%" height="100%" x="0" y="0" fill="none" stroke="none"/>
<style type="text/css">
	.st0{fill:#FFC100;}
	.st1{fill:#00B549;}
</style>

<g class="currentLayer" style=""><title>Layer 1</title><g id="svg_1" class="">
	<g id="svg_2">
		<path class="st0" d="M202.49999389648437,23.499996948242185 h-148 c-30.1,0 -54.5,24.5 -54.5,54.6 v209.6 c0,30.1 24.5,54.6 54.5,54.6 h148 c3.6,0 7.1,-1.4 9.6,-4 l40.9,-40.9 c2.6,-2.6 4,-6 4,-9.6 V77.9999969482422 C257.09999389648436,47.999996948242185 232.59999389648436,23.499996948242185 202.49999389648437,23.499996948242185 zM229.79999389648435,257.8999969482422 h-42.2 c-8.1,0 -14.8,6.6 -14.8,14.8 v42.2 H54.59999389648438 c-15,0 -27.3,-12.2 -27.3,-27.3 V77.9999969482422 c0,-15 12.2,-27.3 27.3,-27.3 h148 c15,0 27.3,12.2 27.3,27.3 V257.8999969482422 z" id="svg_3"/>
		<path class="st0" d="M63.59999389648438,89.4999969482422 h49.3 c4.2,0 7.6,-3.4 7.6,-7.6 c0,-4.2 -3.4,-7.6 -7.6,-7.6 h-49.3 c-4.2,0 -7.6,3.4 -7.6,7.6 C55.99999389648437,86.0999969482422 59.399993896484375,89.4999969482422 63.59999389648438,89.4999969482422 z" id="svg_4"/>
		<path class="st0" d="M112.89999389648438,119.89999694824218 c4.2,0 7.6,-3.4 7.6,-7.6 c0,-4.2 -3.4,-7.6 -7.6,-7.6 h-49.3 c-4.2,0 -7.6,3.4 -7.6,7.6 c0,4.2 3.4,7.6 7.6,7.6 H112.89999389648438 z" id="svg_5"/>
		<path class="st0" d="M183.59999389648436,156.29999694824218 h-110 c-4.2,0 -7.6,3.4 -7.6,7.6 c0,4.2 3.4,7.6 7.6,7.6 h110 c4.2,0 7.6,-3.4 7.6,-7.6 C191.09999389648436,159.6999969482422 187.79999389648438,156.29999694824218 183.59999389648436,156.29999694824218 z" id="svg_6"/>
		<path class="st0" d="M183.59999389648436,186.59999694824216 h-110 c-4.2,0 -7.6,3.4 -7.6,7.6 c0,4.2 3.4,7.6 7.6,7.6 h110 c4.2,0 7.6,-3.4 7.6,-7.6 C191.09999389648436,189.9999969482422 187.79999389648438,186.59999694824216 183.59999389648436,186.59999694824216 z" id="svg_7"/>
		<circle class="st0" cx="80.99999237060547" cy="269.4000244140625" r="22.799999237060547" id="svg_8"/>
	</g>
	<path class="st1" d="M319.3999938964844,108.9999969482422 H165.99999389648437 c-6.6,0 -12,-5.4 -12,-12 v-21 c0,-6.6 5.4,-12 12,-12 H319.3999938964844 c6.6,0 12,5.4 12,12 v21 C331.3999938964844,103.5999969482422 325.9999938964844,108.9999969482422 319.3999938964844,108.9999969482422 z" id="svg_9"/>
	<path class="st1" d="M219.6999938964844,160.9999969482422 v-149 c0,-6.6 5.4,-12 12,-12 h22.1 c6.6,0 12,5.4 12,12 v149 c0,6.6 -5.4,12 -12,12 h-22.1 C225.09999389648436,172.9999969482422 219.6999938964844,167.5999969482422 219.6999938964844,160.9999969482422 z" id="svg_10"/>
</g></g></svg>