<svg xmlns="http://www.w3.org/2000/svg" xmlns:xlink="http://www.w3.org/1999/xlink" version="1.1" style="enable-background:new 0 0 512 512;" xml:space="preserve" width="490" height="424"><rect id="backgroundrect" width="100%" height="100%" x="0" y="0" fill="none" stroke="none"/>
<style type="text/css">
	.st0{fill:#FFC100;}
	.st1{fill:#00B549;}
</style>

<g class="currentLayer" style=""><title>Layer 1</title><g id="svg_1" class="">
	<g id="svg_2">
		<g id="svg_3">
			<path class="st0" d="M455.7999984741211,136.4 c-6.9,-55.1 -60.3,-97 -126,-97 c-13.6,0 -26.9,1.8 -39.7,5.5 C266.49999847412107,16.9 228.5999984741211,0 187.3999984741211,0 c-70,0 -126.9,48.9 -126.9,108.9 c0,2.9 0.2,5.9 0.4,8.9 c-37.5,19.5 -60.9,54.6 -60.9,93 c0,60.1 56.9,108.9 126.9,108.9 c11.3,0 20.4,-9.1 20.4,-20.3 c0,-11.2 -9.1,-20.3 -20.4,-20.3 c-47.4,0 -86,-30.6 -86,-68.3 c0,-26.4 19.7,-50.8 50.2,-61.9 c10.1,-3.7 15.5,-14.5 12.6,-24.8 c-1.5,-5.3 -2.3,-10.3 -2.3,-15.2 c0,-37.6 38.6,-68.2 86,-68.2 c32.8,0 63.2,15.3 77.5,39 c5.2,8.6 16,12.1 25.3,8.3 c12.4,-5.2 25.7,-7.8 39.5,-7.8 c46.4,0 85,30 85.9,66.8 c0.2,6 3,11.7 7.8,15.4 c16.6,13 25.8,30.2 25.8,48.4 c0,37.6 -38.6,68.3 -86,68.3 c-15.5,0 -30.9,-3.4 -44.3,-9.9 c-10.1,-4.9 -22.4,-0.7000000000000001 -27.3,9.4 s-0.7000000000000001,22.3 9.5,27.2 c19,9.2 40.5,14 62.1,14 c70,0 126.9,-48.9 126.9,-108.9 C490.0999984741211,183.2 477.6999984741211,156.5 455.7999984741211,136.4 L455.7999984741211,136.4 z" id="svg_4"/>
			<path class="st1" d="M283.7999984741211,330.9 l-27.1,23.5 V179.8 c0,-11 -10.2,-19.9 -22.8,-19.9 s-22.8,8.9 -22.8,19.9 v174.5 l-27.1,-23.5 c-8.9,-7.7 -23.3,-7.7 -32.2,0.1 c-8.8,7.8 -8.8,20.4 0.1,28.2 l65.9,57.2 c11.6,10.2 20.3,10.4 32.1,0 l65.9,-57.2 c8.9,-7.7 8.9,-20.4 0.1,-28.2 C307.0999984741211,323.2 292.6999984741211,323.1 283.7999984741211,330.9 L283.7999984741211,330.9 z" id="svg_5"/>
		</g>
	</g>
</g></g></svg>