<svg xmlns="http://www.w3.org/2000/svg" xmlns:xlink="http://www.w3.org/1999/xlink" version="1.1" style="enable-background:new 0 0 45.7 45.7;" xml:space="preserve" width="37" height="36"><rect id="backgroundrect" width="100%" height="100%" x="0" y="0" fill="none" stroke="none"/>
<style type="text/css">
	.st0{fill:#FFC100;stroke:#FFC100;stroke-linecap:round;stroke-miterlimit:10;}
	.st1{fill:#00B549;stroke:#00B549;stroke-width:0.25;stroke-miterlimit:10;}
	.st2{fill:#00B549;stroke:#00B549;stroke-width:0.75;stroke-miterlimit:10;}
</style>





<g class="currentLayer" style=""><title>Layer 1</title><circle class="st0" cx="16" cy="8.300000190734863" r="8.300000190734863" id="svg_1"/><ellipse class="st0" cx="16.200000762939453" cy="23.599998474121094" rx="16.200000762939453" ry="4.900000095367432" id="svg_2"/><rect x="9.5367431640625e-7" y="23.599998474121094" class="st0" width="32.400001525878906" height="4.900000095367432" id="svg_3"/><g id="svg_4" class="">
	<path class="st1" d="M36.00000076293945,17.000000190734863 c-0.9,-0.9 -2.1,-1.4 -3.4,-1.4 c-1.3,0 -2.5,0.5 -3.4,1.4 L17.800000762939455,28.100000190734864 c-0.1,0.1 -0.2,0.30000000000000004 -0.2,0.4 L16.200000762939453,35.400000190734865 c-0.1,0.30000000000000004 0,0.6000000000000001 0.2,0.8 c0.30000000000000004,0.30000000000000004 0.7000000000000001,0.30000000000000004 0.8,0.2 l7,-1.3 c0.2,0 0.30000000000000004,-0.1 0.5,-0.2 l11.3,-11.1 C37.900000762939456,21.900000190734865 37.900000762939456,18.800000190734863 36.00000076293945,17.000000190734863 zM23.60000076293945,33.400000190734865 l-5.4,1 l1.1,-5.4 l9,-8.8 l4.4,4.3 L23.60000076293945,33.400000190734865 zM34.800000762939455,22.500000190734863 l-0.9,0.9 l-4.4,-4.3 l0.9,-0.9 c2,-1.7000000000000002 3.7,-0.6000000000000001 4.4,0 C36.00000076293945,19.400000190734865 36.00000076293945,21.300000190734863 34.800000762939455,22.500000190734863 z" id="svg_5"/>
</g><polygon class="st2" points="18.80000114440918,28.200000762939453 24.200000762939453,33.20000076293945 35.29999923706055,22.80000114440918 29.900001525878906,17.80000114440918 " id="svg_6"/></g></svg>