<svg xmlns="http://www.w3.org/2000/svg" height="1792" width="1792"><rect id="backgroundrect" width="100%" height="100%" x="0" y="0" fill="none" stroke="none"/><g class="currentLayer" style=""><title>Layer 1</title><path d="M640.78125,256.78125 h512 v-128 h-512 v128 zm1152,640 v480 q0,66 -47,113 t-113,47 h-1472 q-66,0 -113,-47 t-47,-113 v-480 h672 v160 q0,26 19,45 t45,19 h320 q26,0 45,-19 t19,-45 v-160 h672 zm-768,0 v128 h-256 v-128 h256 zm768,-480 v384 h-1792 v-384 q0,-66 47,-113 t113,-47 h352 v-160 q0,-40 28,-68 t68,-28 h576 q40,0 68,28 t28,68 v160 h352 q66,0 113,47 t47,113 z" id="svg_1" class=""/><path d="M640.78125,256.78125 h512 v-128 h-512 v128 zm1152,640 v480 q0,66 -47,113 t-113,47 h-1472 q-66,0 -113,-47 t-47,-113 v-480 h672 v160 q0,26 19,45 t45,19 h320 q26,0 45,-19 t19,-45 v-160 h672 zm-768,0 v128 h-256 v-128 h256 zm768,-480 v384 h-1792 v-384 q0,-66 47,-113 t113,-47 h352 v-160 q0,-40 28,-68 t68,-28 h576 q40,0 68,28 t28,68 v160 h352 q66,0 113,47 t47,113 z" class="" id="svg_2" fill-opacity="1" fill="#00b549"/></g></svg>