<svg xmlns="http://www.w3.org/2000/svg" viewBox="0 0 40 35.17"><defs><style>.cls-1{fill:#ffa000;}.cls-2{fill:#ffca28;}.cls-3{fill:#2faa04;}</style></defs><title>Иконка папка</title><g id="Слой_2" data-name="Слой 2"><g id="Слой_1-2" data-name="Слой 1"><path class="cls-1" d="M36,4H18L14,0H4A4,4,0,0,0,0,4v8H40V8A4,4,0,0,0,36,4Z"/><path class="cls-2" d="M36,4H4A4,4,0,0,0,0,8V28a4,4,0,0,0,4,4H36a4,4,0,0,0,4-4V8A4,4,0,0,0,36,4Z"/><path class="cls-3" d="M12.89,29.22l5.85,5.46a1.83,1.83,0,0,0,2.5,0l5.87-5.46a1.59,1.59,0,0,0,0-2.35,1.87,1.87,0,0,0-2.52,0l-2.81,2.62V17.67a1.79,1.79,0,0,0-3.57,0V29.48l-2.81-2.63a1.87,1.87,0,0,0-2.52,0A1.59,1.59,0,0,0,12.89,29.22Z"/></g></g></svg>