<svg xmlns="http://www.w3.org/2000/svg" viewBox="0 0 391 301"><defs><style>.cls-1,.cls-2{fill:#fff;}.cls-1,.cls-4{stroke:#f7931e;}.cls-1,.cls-2,.cls-3,.cls-4{stroke-miterlimit:10;stroke-width:20px;}.cls-2,.cls-3{stroke:#39b54a;}.cls-3,.cls-4{fill:none;}</style></defs><title>Ресурс 1</title><g id="Слой_2" data-name="Слой 2"><g id="Слой_1-2" data-name="Слой 1"><line class="cls-1" x1="349" y1="108.77" x2="349" y2="112.07"/><path class="cls-1" d="M337.41,10H21.59A11.83,11.83,0,0,0,10,22V245a11.83,11.83,0,0,0,11.59,12H337.41A11.83,11.83,0,0,0,349,245V172.89c-.33,0-.67.06-1,.11.33,0,.67-.08,1-.11V22A11.83,11.83,0,0,0,337.41,10ZM348,63h0Z"/><line class="cls-1" x1="349" y1="116.75" x2="349" y2="172.75"/><line class="cls-1" x1="349" y1="112.07" x2="349" y2="116.75"/><circle class="cls-2" cx="298.5" cy="208.5" r="82.5"/><line class="cls-3" x1="299" y1="209" x2="352" y2="209"/><line class="cls-3" x1="299" y1="219" x2="299" y2="145"/><line class="cls-1" x1="10" y1="61" x2="348" y2="63"/><line class="cls-4" x1="96" y1="14" x2="96" y2="58"/><line class="cls-4" x1="173" y1="18" x2="173" y2="62"/></g></g></svg>