<svg xmlns="http://www.w3.org/2000/svg" xmlns:xlink="http://www.w3.org/1999/xlink" version="1.1" width="612" height="612" style="enable-background:new 0 0 612 612;" xml:space="preserve"><rect id="backgroundrect" width="100%" height="100%" x="0" y="0" fill="none" stroke="none"/>
















<g class="currentLayer" style=""><title>Layer 1</title><g id="svg_1" class="selected" fill-opacity="1" fill="#00b549">
	<g id="_x32__26_" fill="#00b549">
		<g id="svg_2" fill="#00b549">
			<path d="M401.625,325.125h-191.25c-10.557,0-19.125,8.568-19.125,19.125s8.568,19.125,19.125,19.125h191.25     c10.557,0,19.125-8.568,19.125-19.125S412.182,325.125,401.625,325.125z M439.875,210.375h-267.75     c-10.557,0-19.125,8.568-19.125,19.125s8.568,19.125,19.125,19.125h267.75c10.557,0,19.125-8.568,19.125-19.125     S450.432,210.375,439.875,210.375z M306,0C137.012,0,0,119.875,0,267.75c0,84.514,44.848,159.751,114.75,208.826V612     l134.047-81.339c18.552,3.061,37.638,4.839,57.203,4.839c169.008,0,306-119.875,306-267.75C612,119.875,475.008,0,306,0z      M306,497.25c-22.338,0-43.911-2.601-64.643-7.019l-90.041,54.123l1.205-88.701C83.5,414.133,38.25,345.513,38.25,267.75     c0-126.741,119.875-229.5,267.75-229.5c147.875,0,267.75,102.759,267.75,229.5S453.875,497.25,306,497.25z" id="svg_3" fill="#00b549"/>
		</g>
	</g>
</g><g id="svg_4">
</g><g id="svg_5">
</g><g id="svg_6">
</g><g id="svg_7">
</g><g id="svg_8">
</g><g id="svg_9">
</g><g id="svg_10">
</g><g id="svg_11">
</g><g id="svg_12">
</g><g id="svg_13">
</g><g id="svg_14">
</g><g id="svg_15">
</g><g id="svg_16">
</g><g id="svg_17">
</g><g id="svg_18">
</g></g></svg>