<svg xmlns="http://www.w3.org/2000/svg" xmlns:xlink="http://www.w3.org/1999/xlink" version="1.1" style="enable-background:new 0 0 200 150;" xml:space="preserve" width="179" height="91"><rect id="backgroundrect" width="100%" height="100%" x="0" y="0" fill="none" stroke="none"/>
<style type="text/css">
	.st0{fill:#00B549;stroke:#00B549;stroke-miterlimit:10;}
	.st1{fill:#FFC100;stroke:#FFC100;stroke-linecap:round;stroke-miterlimit:10;}
</style>

<g class="currentLayer" style=""><title>Layer 1</title><g id="svg_1" class="">
	<g id="svg_2">
		<path class="st0" d="M53.499999809265134,79.7000015258789 V66.30000152587891 c8.6,0 12.9,-7 17,-13.7 c1,-1.6 2,-3.3 3.1,-4.8 c-1.1,-1.5 -2.1,-3.2 -3.1,-4.8 c-4.1,-6.7 -8.4,-13.7 -17,-13.7 V15.900001525878906 c12,0 18.2,10.1 22.8,17.6 c2.7,4.4 4.5,7.1 6.3,7.6 c0.2,0 0.4,0 0.7000000000000001,0 v0.1 l0,0 h19.7 l-3.4,-13.9 c-0.1,-0.5 0,-1 0.2,-1.3 c0.2,-0.30000000000000004 0.6000000000000001,-0.30000000000000004 0.8,0 l16.7,21 c0.2,0.2 0.30000000000000004,0.5 0.30000000000000004,0.9 c0,0.30000000000000004 -0.1,0.7000000000000001 -0.30000000000000004,0.9 l-16.7,21 c-0.1,0.2 -0.30000000000000004,0.2 -0.4,0.2 c-0.1,0 -0.30000000000000004,-0.1 -0.4,-0.2 c-0.2,-0.30000000000000004 -0.30000000000000004,-0.8 -0.2,-1.3 l3.4,-13.9 H83.19999980926514 c0,0 0,0 0,0 c-0.2,0 -0.4,0 -0.6000000000000001,0 c-1.9,0.5 -3.6,3.2 -6.3,7.6 C71.69999980926514,69.5000015258789 65.39999980926514,79.7000015258789 53.499999809265134,79.7000015258789 z" id="svg_3"/>
	</g>
	<g id="svg_4">
		<circle class="st1" cx="23.100001335144043" cy="11.700000762939453" r="11.699999809265137" id="svg_5"/>
		<ellipse class="st1" cx="23.29999828338623" cy="33.5" rx="23.100000381469727" ry="6.900000095367432" id="svg_6"/>
		<rect x="0.3000001907348633" y="33.5" class="st1" width="46.099998474121094" height="6.900000095367432" id="svg_7"/>
	</g>
	<g id="svg_8">
		<circle class="st1" cx="22.90000057220459" cy="62.099998474121094" r="11.699999809265137" id="svg_9"/>
		<ellipse class="st1" cx="23.100001335144043" cy="83.9000015258789" rx="23.100000381469727" ry="6.900000095367432" id="svg_10"/>
		<rect x="0" y="83.9000015258789" class="st1" width="46.099998474121094" height="6.900000095367432" id="svg_11"/>
	</g>
	<g id="svg_12">
		<ellipse class="st1" cx="149.0999937057495" cy="36.30000305175781" rx="15.199999809265137" ry="15.300000190734863" id="svg_13"/>
		<ellipse class="st1" cx="149.39999675750732" cy="64.70000457763672" rx="29.899999618530273" ry="9" id="svg_14"/>
		<rect x="119.50000286102295" y="64.70000457763672" class="st1" width="59.70000076293945" height="9" id="svg_15"/>
	</g>
</g></g></svg>