<svg xmlns="http://www.w3.org/2000/svg" xmlns:xlink="http://www.w3.org/1999/xlink" version="1.1" style="enable-background:new 0 0 600.8 600.8;" xml:space="preserve" width="601" height="582"><rect id="backgroundrect" width="100%" height="100%" x="0" y="0" fill="none" stroke="none"/>
<style type="text/css">
	.st0{fill:#FFC100;}
	.st1{fill:#FFFFFF;}
	.st2{fill:#00B549;}
</style>


<g class="currentLayer" style=""><title>Layer 1</title><g id="Слой_2" class="">
	<rect x="39" y="133.4000015258789" class="st0" width="528" height="171" id="svg_1"/>
	<rect x="482" y="272.4000015258789" class="st0" width="95" height="108" id="svg_2"/>
	<rect x="27" y="272.4000015258789" class="st0" width="102" height="121.69999694824219" id="svg_3"/>
</g><g id="Capa_1" class="">
	<g id="svg_4">
		<g id="svg_5">
			<path class="st0" d="M58.6,419.50000152587893 h41.8 v103.5 c0,32.1 26.1,58.1 58.1,58.1 h283.7 c32.1,0 58.1,-26.1 58.1,-58.1 V419.50000152587893 h41.8 c32.1,0 58.1,-26.1 58.1,-58.1 V153.8000015258789 c0,-32.1 -26.1,-58.1 -58.1,-58.1 h-41.8 V58.60000152587891 c0,-32.1 -26.1,-58.1 -58.1,-58.1 H158.5 c-32.1,0 -58.1,26.1 -58.1,58.1 v37.1 H58.6 c-32.1,0 -58.1,26.1 -58.1,58.1 V361.4000015258789 C0.5,393.50000152587893 26.6,419.50000152587893 58.6,419.50000152587893 zM43.3,153.8000015258789 c0,-8.4 6.8,-15.3 15.3,-15.3 h41.8 h21.4 h21.4 h314.3 H479 h21.4 h41.8 c8.4,0 15.3,6.9 15.3,15.3 V361.4000015258789 c0,8.4 -6.8,15.3 -15.3,15.3 h-41.8 v-31.5 c0,-32.1 -26.1,-58.1 -58.1,-58.1 H158.5 c-32.1,0 -58.1,26.1 -58.1,58.1 v31.5 H58.6 c-8.5,0 -15.3,-6.9 -15.3,-15.3 V153.8000015258789 L43.3,153.8000015258789 zM143.2,58.60000152587891 c0,-8.5 6.9,-15.3 15.3,-15.3 h283.7 c8.5,0 15.3,6.8 15.3,15.3 v37.1 H143.2 V58.60000152587891 zM457.6,419.50000152587893 v103.5 c0,8.4 -6.9,15.3 -15.3,15.3 H158.5 c-8.4,0 -15.3,-6.8 -15.3,-15.3 V419.50000152587893 v-21.4 v-21.4 v-31.5 c0,-8.5 6.9,-15.3 15.3,-15.3 h283.7 c8.5,0 15.3,6.9 15.3,15.3 v31.5 v21.4 V419.50000152587893 L457.6,419.50000152587893 z" id="svg_6"/>
			<path class="st0" d="M442.3,581.600001525879 H158.5 c-32.3,0 -58.6,-26.3 -58.6,-58.6 v-103 H58.6 C26.3,420.00000152587893 0,393.7000015258789 0,361.4000015258789 V153.8000015258789 c0,-32.3 26.3,-58.6 58.6,-58.6 h41.3 V58.60000152587891 c0,-32.3 26.3,-58.6 58.6,-58.6 h283.7 c32.3,0 58.6,26.3 58.6,58.6 v36.6 h41.3 c32.3,0 58.6,26.3 58.6,58.6 V361.4000015258789 c0,32.3 -26.3,58.6 -58.6,58.6 h-41.3 v103 C500.9,555.3000015258789 474.6,581.600001525879 442.3,581.600001525879 zM58.6,96.2000015258789 C26.9,96.2000015258789 1,122.1000015258789 1,153.8000015258789 V361.4000015258789 c0,31.8 25.9,57.6 57.6,57.6 h42.3 v104 c0,31.8 25.9,57.6 57.6,57.6 h283.7 c31.8,0 57.6,-25.9 57.6,-57.6 v-104 h42.3 c31.8,0 57.6,-25.9 57.6,-57.6 V153.8000015258789 c0,-31.8 -25.9,-57.6 -57.6,-57.6 h-42.3 V58.60000152587891 c0,-31.8 -25.9,-57.6 -57.6,-57.6 H158.5 c-31.8,0 -57.6,25.9 -57.6,57.6 v37.6 L58.6,96.2000015258789 L58.6,96.2000015258789 zM442.3,538.8000015258789 H158.5 c-8.7,0 -15.8,-7.1 -15.8,-15.8 V345.2000015258789 c0,-8.7 7.1,-15.8 15.8,-15.8 h283.7 c8.7,0 15.8,7.1 15.8,15.8 v177.8 C458.1,531.7000015258789 451,538.8000015258789 442.3,538.8000015258789 zM158.5,330.4000015258789 c-8.2,0 -14.8,6.6 -14.8,14.8 v177.8 c0,8.2 6.6,14.8 14.8,14.8 h283.7 c8.2,0 14.8,-6.6 14.8,-14.8 V345.2000015258789 c0,-8.2 -6.6,-14.8 -14.8,-14.8 L158.5,330.4000015258789 L158.5,330.4000015258789 zM542.2,377.2000015258789 h-42.3 v-32 c0,-31.8 -25.9,-57.6 -57.6,-57.6 H158.5 c-31.8,0 -57.6,25.9 -57.6,57.6 v32 H58.6 c-8.7,0 -15.8,-7.1 -15.8,-15.8 V153.8000015258789 c0,-8.7 7.1,-15.8 15.8,-15.8 h483.6 c8.7,0 15.8,7.1 15.8,15.8 V361.4000015258789 C558,370.1000015258789 550.9,377.2000015258789 542.2,377.2000015258789 zM500.9,376.2000015258789 h41.3 c8.2,0 14.8,-6.6 14.8,-14.8 V153.8000015258789 c0,-8.2 -6.6,-14.8 -14.8,-14.8 H58.6 c-8.2,0 -14.8,6.6 -14.8,14.8 V361.4000015258789 c0,8.2 6.6,14.8 14.8,14.8 h41.3 v-31 c0,-32.3 26.3,-58.6 58.6,-58.6 h283.7 c32.3,0 58.6,26.3 58.6,58.6 L500.9,376.2000015258789 L500.9,376.2000015258789 zM458.1,96.2000015258789 H142.7 V58.60000152587891 c0,-8.7 7.1,-15.8 15.8,-15.8 h283.7 c8.7,0 15.8,7.1 15.8,15.8 L458.1,96.2000015258789 L458.1,96.2000015258789 zM143.7,95.2000015258789 h313.3 V58.60000152587891 c0,-8.2 -6.6,-14.8 -14.8,-14.8 H158.5 c-8.2,0 -14.8,6.6 -14.8,14.8 L143.7,95.2000015258789 L143.7,95.2000015258789 z" id="svg_7"/>
		</g>
		<g id="svg_8">
			<path class="st1" d="M429.1,217.9000015258789 h48.8 h8.1 c11.8,0 21.4,-9.6 21.4,-21.4 c0,-6.6 -3,-12.4 -7.6,-16.4 c-3.7,-3.2 -8.5,-5.1 -13.8,-5.1 h-7.2 h-21.6 h-28.1 c-8.5,0 -15.9,5 -19.4,12.2 c-1.3,2.8 -2.1,5.9 -2.1,9.2 c0,4.6 1.4,8.8 3.8,12.2 C415.4,214.3000015258789 421.9,217.9000015258789 429.1,217.9000015258789 z" id="svg_9"/>
			<path class="st1" d="M486,218.4000015258789 h-56.9 c-7.2,0 -13.9,-3.5 -18,-9.4 c-2.6,-3.7 -3.9,-8 -3.9,-12.5 c0,-3.3 0.7000000000000001,-6.4 2.1,-9.4 c3.6,-7.6 11.4,-12.5 19.8,-12.5 H486 c5.2,0 10.2,1.8 14.1,5.2 c4.9,4.2 7.8,10.3 7.8,16.7 C508,208.6000015258789 498.1,218.4000015258789 486,218.4000015258789 zM429.1,175.6000015258789 c-8,0 -15.5,4.7 -18.9,12 c-1.3,2.8 -2,5.8 -2,9 c0,4.3 1.3,8.4 3.8,12 c3.9,5.6 10.3,9 17.2,9 H486 c11.5,0 20.9,-9.4 20.9,-20.9 c0,-6.2 -2.7,-12 -7.4,-16 c-3.8,-3.2 -8.6,-4.9 -13.5,-4.9 H429.1 z" id="svg_10"/>
		</g>
		<g id="svg_11">
			<path class="st2" d="M393.7,376.7000015258789 c-3.5,-2.5 -7.8,-4 -12.5,-4 H219.6 c-4.7,0 -9,1.5 -12.5,4 c-5.4,3.9 -8.9,10.2 -8.9,17.4 c0,1.4 0.1,2.7 0.4,4 c1.9,9.9 10.6,17.4 21,17.4 h161.6 c10.4,0 19.1,-7.5 21,-17.4 c0.30000000000000004,-1.3 0.4,-2.7 0.4,-4 C402.6,386.9000015258789 399.1,380.6000015258789 393.7,376.7000015258789 z" id="svg_12"/>
			<path class="st0" d="M381.2,416.00000152587893 H219.6 c-10.5,0 -19.6,-7.5 -21.5,-17.8 c-0.30000000000000004,-1.4 -0.4,-2.8 -0.4,-4.1 c0,-7 3.4,-13.7 9.1,-17.8 c3.8,-2.7 8.2,-4.1 12.8,-4.1 h161.6 c4.6,0 9.1,1.4 12.8,4.1 c5.7,4.1 9.1,10.8 9.1,17.8 c0,1.4 -0.1,2.8 -0.4,4.1 C400.8,408.50000152587893 391.7,416.00000152587893 381.2,416.00000152587893 zM219.6,373.2000015258789 c-4.4,0 -8.6,1.4 -12.2,4 c-5.4,3.9 -8.7,10.3 -8.7,17 c0,1.3 0.1,2.6 0.4,4 c1.9,9.8 10.5,17 20.5,17 h161.6 c10,0 18.7,-7.1 20.5,-17 c0.30000000000000004,-1.3 0.4,-2.6 0.4,-4 c0,-6.7 -3.2,-13 -8.7,-17 c-3.6,-2.6 -7.8,-4 -12.2,-4 H219.6 z" id="svg_13"/>
		</g>
		<g id="svg_14">
			<path class="st2" d="M381.2,452.7000015258789 H219.6 c-11.8,0 -21.4,9.6 -21.4,21.4 s9.6,21.4 21.4,21.4 h161.6 c11.8,0 21.4,-9.6 21.4,-21.4 S393,452.7000015258789 381.2,452.7000015258789 z" id="svg_15"/>
			<path class="st2" d="M381.2,496.00000152587893 H219.6 c-12.1,0 -21.9,-9.8 -21.9,-21.9 s9.8,-21.9 21.9,-21.9 h161.6 c12.1,0 21.9,9.8 21.9,21.9 S393.3,496.00000152587893 381.2,496.00000152587893 zM219.6,453.2000015258789 c-11.5,0 -20.9,9.4 -20.9,20.9 s9.4,20.9 20.9,20.9 h161.6 c11.5,0 20.9,-9.4 20.9,-20.9 s-9.4,-20.9 -20.9,-20.9 H219.6 z" id="svg_16"/>
		</g>
	</g>
</g></g></svg>