<svg xmlns="http://www.w3.org/2000/svg" xmlns:xlink="http://www.w3.org/1999/xlink" version="1.1" style="enable-background:new 0 0 474 474;" xml:space="preserve" width="363" height="186"><rect id="backgroundrect" width="100%" height="100%" x="0" y="0" fill="none" stroke="none"/>
<style type="text/css">
	.st0{fill:#FFC100;stroke:#FFC100;stroke-width:8;stroke-miterlimit:10;}
	.st1{fill:#00B549;stroke:#00B549;stroke-width:0.75;stroke-miterlimit:10;}
</style>




<g class="currentLayer" style=""><title>Layer 1</title><g id="svg_1" class="">
	<path class="st0" d="M340.4,-0.000006103515630684342 H97.6 c-12.2,0 -22.1,8.6 -22.1,19.1 v147.9 c0,10.5 9.9,19.1 22.1,19.1 h242.8 c12.2,0 22.1,-8.6 22.1,-19.1 V19.099993896484364 C362.6,8.49999389648437 352.6,-0.000006103515630684342 340.4,-0.000006103515630684342 zM337.2,14.099993896484364 L220.5,100.39999389648438 l-116.7,-86.3 H337.2 zM346.2,166.9999938964844 c0,2.7 -2.6,5 -5.8,5 H97.6 c-3.1,0 -5.8,-2.3 -5.8,-5 V23.79999389648438 l123.4,91.2 c0.1,0.1 0.2,0.1 0.2,0.2 s0.2,0.1 0.2,0.2 c0.2,0.1 0.30000000000000004,0.2 0.5,0.30000000000000004 c0.1,0.1 0.1,0.1 0.2,0.1 c0.2,0.1 0.5,0.2 0.7000000000000001,0.30000000000000004 c0.1,0 0.1,0.1 0.2,0.1 c0.2,0.1 0.4,0.2 0.6000000000000001,0.2 c0.1,0 0.2,0.1 0.2,0.1 c0.2,0.1 0.4,0.1 0.5,0.1 c0.1,0 0.2,0.1 0.2,0.1 c0.2,0.1 0.4,0.1 0.6000000000000001,0.1 c0.1,0 0.1,0 0.2,0 c0.2,0 0.5,0.1 0.8,0.1 l0,0 l0,0 c0.2,0 0.5,0 0.8,-0.1 c0.1,0 0.1,0 0.2,0 c0.2,0 0.4,-0.1 0.6000000000000001,-0.1 c0.1,0 0.2,-0.1 0.2,-0.1 c0.2,-0.1 0.4,-0.1 0.5,-0.1 c0.1,0 0.2,-0.1 0.2,-0.1 c0.2,-0.1 0.4,-0.1 0.6000000000000001,-0.2 c0.1,0 0.1,-0.1 0.2,-0.1 c0.2,-0.1 0.5,-0.2 0.7000000000000001,-0.30000000000000004 c0.1,-0.1 0.1,-0.1 0.2,-0.1 c0.2,-0.1 0.30000000000000004,-0.2 0.5,-0.30000000000000004 c0.1,-0.1 0.2,-0.1 0.2,-0.2 c0.1,-0.1 0.2,-0.1 0.2,-0.2 l120.5,-89 V166.9999938964844 z" id="svg_2"/>
</g><path class="st1" d="M100.5,81.39999389648438 H12 c-6.6,0 -12,-5.4 -12,-12 v0 c0,-6.6 5.4,-12 12,-12 h88.5 c6.6,0 12,5.4 12,12 v0 C112.5,75.9999938964844 107.1,81.39999389648438 100.5,81.39999389648438 z" id="svg_3"/><path class="st1" d="M126.30000000000001,116.9999938964844 H37.8 c-6.6,0 -12,-5.4 -12,-12 v0 c0,-6.6 5.4,-12 12,-12 h88.5 c6.6,0 12,5.4 12,12 v0 C138.3,111.59999389648436 132.9,116.9999938964844 126.30000000000001,116.9999938964844 z" id="svg_4"/><path class="st1" d="M151.8,152.6999938964844 H63.3 c-6.6,0 -12,-5.4 -12,-12 l0,0 c0,-6.6 5.4,-12 12,-12 h88.5 c6.6,0 12,5.4 12,12 l0,0 C163.8,147.29999389648435 158.4,152.6999938964844 151.8,152.6999938964844 z" id="svg_5"/></g></svg>