<?xml version="1.0" encoding="utf-8"?>
<!-- Generator: Adobe Illustrator 21.0.1, SVG Export Plug-In . SVG Version: 6.00 Build 0)  -->
<svg version="1.1" id="Слой_1" xmlns="http://www.w3.org/2000/svg" xmlns:xlink="http://www.w3.org/1999/xlink" x="0px" y="0px"
	 viewBox="0 0 800 420" style="enable-background:new 0 0 800 420;" xml:space="preserve">
<style type="text/css">
	.st0{fill:#FDFDFE;}
	.st1{fill:#00B549;}
	.st2{fill:#FDFDFD;}
	.st3{display:none;fill:#00B549;}
	.st4{fill:#FFFFFF;stroke:#FFFFFF;stroke-width:0.75;stroke-miterlimit:10;}
</style>
<g>
	<path class="st0" d="M382.8,231.9c0,54.8,0,109.6,0.1,164.4c0,1.9-0.5,2.3-2.9,2.3c-120.9,0-241.7,0-362.6,0
		c-2.5,0-2.9-0.4-2.9-2.3c0.1-54.1,0.1-108.1,0.1-162.2c1.9,0.3,2,1.9,3.4,2.7c6.8,3.9,14.1,7,21.7,9.9c7.5,2.8,15,5.5,22.5,8.4
		c2,0.8,3.6,1.8,4.2,3.7c1,3.4,2.3,6.7,4,9.9c1.6,2.9,1.2,5.4,0,8.3c-5.5,13.2-11.6,26.2-15.8,39.7c-1.4,4.7-1.4,8.9,3.1,13
		c8.4,7.7,16,15.9,23.9,23.9c3.3,3.4,7.6,4.1,12.2,2.2c6.9-2.9,13.9-5.8,20.8-8.7c6.8-2.9,13.7-5.7,20.1-9.2
		c1.1-0.6,2.3-0.9,3.7-0.2c3.6,1.8,7.3,3.1,11,4.7c1.7,0.8,4.2,1.1,4.9,3.2c2.3,6.1,4.8,12.1,7.3,18.2c3.8,9,7.1,18.1,12.5,26.6
		c1.3,2.1,2.8,4.1,6.4,4c12.9,0,25.9,0,38.8,0c1.9,0,3.4-0.4,4.7-2c1.9-2.3,3.2-4.8,4.4-7.3c6.1-12.6,10.3-25.8,15.4-38.6
		c0.5-1.4,1.1-2.4,3-3.1c4.3-1.7,8.4-3.7,12.6-5.6c1.3-0.6,2.6-0.7,4,0c5.8,2.7,11.7,5.2,17.8,7.6c8.8,3.5,17.3,7.4,26.9,9.7
		c4.2,1,5.8,0.6,8.6-2.1c7.2-7.2,14.3-14.5,21.8-21.3c5.9-5.4,8.2-10.5,5.3-17.7c-5.2-13.1-11.4-26-17-39.1
		c-0.6-1.4-0.8-2.7-0.2-4.1c1.2-2.9,2.7-5.8,3.7-8.8c1.3-3.7,3.1-6.2,7.9-8.1c9.4-3.7,19-7.3,28-11.6
		C372.1,239.2,378.7,236.8,382.8,231.9z"/>
	<path class="st0" d="M14.5,189.4c0-54.7,0-109.4-0.1-164.1c0-2,0.3-2.7,3.2-2.7c120.7,0.1,241.4,0.1,362.1,0c2.9,0,3.2,0.7,3.2,2.7
		c-0.1,54.1-0.1,108.2-0.1,162.4c-2.3-3.7-6.7-5.5-10.8-7.4c-10.8-5-22.3-9-33.7-13.1c-3.6-1.3-6.9-2.6-7.7-6.4
		c-0.8-3.6-2.6-7-4.2-10.4c-0.7-1.6-0.7-2.9-0.1-4.4c1.5-3.7,3.2-7.3,4.7-10.9c4.6-11.3,10.1-22.5,12.8-34.3
		c0.7-3.2-0.2-5.8-2.8-8.3c-7.2-7-14.1-14.2-21.2-21.3c-1.7-1.8-3.6-3.5-5.3-5.2c-2.2-2.2-8.6-1.9-13.2,0.1
		c-7.3,3.2-14.7,6.2-22,9.4c-4.3,1.9-8.5,4.1-12.8,6c-2.8,1.3-5.7,2.6-9.3,0.9c-2.4-1.1-5.1-2-7.3-3.2c-2.5-1.2-6-1.7-7-4.8
		c-2.3-7.1-5.3-14-8.3-20.9c-3.6-8.2-6.4-16.6-12-24.2c-1.4-2-3.4-3.1-6.4-3.1c-12.2,0-24.4,0-36.7,0c-2.9,0-4.8,1.1-6.2,2.9
		c-2.5,3.1-4,6.5-5.5,10c-5.1,11.6-9.3,23.4-13.7,35.2c-0.7,1.8-1.8,2.9-4.1,3.8c-2.5,1-5.1,2.1-7.5,3.3c-3,1.5-6.4,2.8-10.4,0.9
		c-2.3-1.1-4.9-2.1-7.3-3.2c-7.6-3.5-15.5-6.6-23.5-9.4c-3-1-6-2-9-3.1c-5.2-1.9-8.1-1.8-11.4,1.5C72.4,76.4,64.2,84.8,55.7,93
		c-3.1,3-4.3,6.1-3,9.8c0.9,2.5,1.5,5.1,2.5,7.6c4.6,12.3,10.7,24.2,15.9,36.4c0.4,1,0.7,1.9,0.2,3c-1.7,4.1-3.6,8.2-5,12.3
		c-0.8,2.3-2.7,3.6-5.1,4.5c-1.9,0.8-3.7,1.6-5.5,2.3c-11.1,4.1-21.8,8.6-32.3,13.7C19.8,184.4,16.5,186.4,14.5,189.4z"/>
	<g>
		<path class="st1" d="M9.6,188.6c2.1-3.1,5.5-5.2,9.1-6.9c10.7-5.2,21.9-9.8,33.3-14.1c1.9-0.7,3.8-1.6,5.7-2.3
			c2.5-1,4.4-2.3,5.2-4.6c1.4-4.3,3.4-8.5,5.2-12.7c0.5-1.1,0.2-2-0.2-3.1c-5.4-12.5-11.5-24.9-16.4-37.5c-1-2.6-1.6-5.3-2.5-7.9
			c-1.4-3.9-0.1-7,3.1-10.1c8.8-8.5,17.3-17.2,25.9-25.7c3.4-3.4,6.4-3.5,11.8-1.5c3,1.1,6.2,2.1,9.3,3.2c8.3,2.9,16.4,6.2,24.3,9.7
			c2.5,1.1,5.2,2.1,7.6,3.3c4,2,7.6,0.6,10.7-0.9c2.5-1.2,5.2-2.3,7.8-3.4c2.4-1,3.5-2.2,4.2-4c4.5-12.2,8.9-24.4,14.2-36.3
			c1.6-3.6,3.2-7.1,5.7-10.3c1.5-1.9,3.4-3.1,6.4-3c12.6,0,25.2,0,37.8,0c3.1,0,5.2,1.1,6.6,3.2c5.7,7.8,8.7,16.5,12.4,25
			c3.1,7.1,6.1,14.3,8.6,21.5c1.1,3.3,4.7,3.7,7.2,5c2.4,1.2,5.1,2.2,7.6,3.3c3.7,1.7,6.6,0.3,9.6-1c4.5-2,8.7-4.2,13.2-6.2
			c7.5-3.3,15.2-6.4,22.7-9.7c4.7-2.1,11.3-2.3,13.6-0.1c1.8,1.8,3.7,3.6,5.5,5.3c7.4,7.3,14.5,14.7,21.9,22
			c2.7,2.6,3.6,5.3,2.9,8.6c-2.9,12.2-8.4,23.7-13.2,35.4c-1.6,3.8-3.2,7.5-4.8,11.3c-0.6,1.5-0.7,2.9,0.1,4.5
			c1.7,3.5,3.5,7.1,4.3,10.8c0.9,3.9,4.3,5.2,7.9,6.6c11.7,4.3,23.6,8.4,34.8,13.6c4.3,2,8.8,3.9,11.2,7.7c0,15.2,0,30.4,0,45.6
			c-4.3,5.1-11.1,7.5-17.4,10.6c-9.3,4.5-19.2,8.1-28.9,11.9c-5,2-7,4.6-8.2,8.4c-1.1,3.1-2.6,6.1-3.8,9.1c-0.6,1.4-0.4,2.7,0.2,4.2
			c5.8,13.5,12.2,26.7,17.6,40.3c3,7.4,0.6,12.8-5.5,18.3c-7.9,7.1-15.1,14.6-22.5,22c-2.9,2.8-4.5,3.2-8.9,2.2
			c-9.9-2.3-18.6-6.4-27.8-10c-6.2-2.4-12.4-5-18.3-7.8c-1.4-0.7-2.8-0.6-4.2,0c-4.3,2-8.5,4.1-13,5.8c-2,0.8-2.5,1.8-3.1,3.2
			c-5.3,13.3-9.6,26.8-15.9,39.8c-1.2,2.6-2.6,5.1-4.5,7.5c-1.3,1.6-2.8,2.1-4.8,2.1c-13.3,0-26.7,0-40,0c-3.8,0-5.2-2-6.6-4.2
			c-5.5-8.8-8.9-18.2-12.9-27.4c-2.6-6.2-5.2-12.5-7.5-18.7c-0.8-2.1-3.3-2.5-5.1-3.3c-3.7-1.7-7.6-3.1-11.3-4.9
			c-1.4-0.7-2.7-0.4-3.8,0.2c-6.6,3.6-13.7,6.5-20.7,9.4c-7.1,3-14.3,6-21.5,9c-4.8,2-9.2,1.2-12.6-2.3c-8.1-8.3-16-16.7-24.7-24.7
			c-4.7-4.3-4.7-8.6-3.2-13.5c4.3-13.9,10.6-27.4,16.3-41c1.2-3,1.6-5.6,0-8.6c-1.8-3.3-3-6.8-4.1-10.2c-0.6-2.1-2.3-3.1-4.3-3.9
			c-7.7-2.9-15.5-5.7-23.2-8.7c-7.8-3-15.3-6.2-22.4-10.2c-1.4-0.8-1.6-2.4-3.5-2.8C9.6,219.4,9.6,204,9.6,188.6z M370.4,209.8
			c0-4.6-0.1-9.2,0.1-13.9c0.1-1.9-0.7-3-3.1-3.8c-4.9-1.7-9.6-3.7-14.3-5.8c-7.6-3.3-15.7-5.8-23.4-9c-3.9-1.6-7.1-3.1-8.4-6.8
			c-2.3-6.4-5.2-12.7-7.8-19c-1-2.4-0.9-4.7,0.1-7.2c5.7-13.6,11.4-27.2,16.7-41c0.8-2.3,0.4-3.8-1.4-5.5
			c-6.3-6.1-12.7-12.1-18.7-18.5c-1.9-1.9-3.4-2.1-5.5-1.1c-3.6,1.8-7.2,3.3-11,4.7c-4.5,1.7-9,3.6-13.2,5.6
			c-5.8,2.8-11.8,5.4-17.6,8.1c-1.1,0.6-2.8,0.4-4.2-0.2c-5.3-2.2-10.6-4.5-16-6.6c-5.2-2-9-4.5-10.8-9.4
			c-4.8-13-10.4-25.9-16.3-38.7c-0.8-1.8-1.8-2.5-4.3-2.5c-9,0.1-18,0.1-27,0c-2.5,0-3.4,0.7-4.2,2.5c-5.4,12.7-10.7,25.5-15,38.5
			c-1.7,5.1-5.5,7.7-11.1,9.8c-5.2,1.9-10.2,4.3-15.3,6.5c-1.4,0.6-3.3,0.8-4.5,0.2c-2.4-1.2-5.2-1.7-7.6-2.9
			c-6.9-3.4-14.1-6.3-21.4-9c-5.2-1.9-10.4-3.7-15.4-5.8c-1.4-0.6-1.4-0.8-2.4,0.2C81,85.6,74.6,92,68,98.2c-2.3,2.2-2.7,4.2-1.6,7
			c5.4,13.1,11.3,26,17.1,39c1.2,2.6,1.2,5.1,0.2,7.7c-2.3,5.6-4.6,11.2-6.9,16.9c-1.4,3.5-3.1,6.8-8,8.2c-2.9,0.8-5.4,2.2-8.1,3.3
			c-9.7,3.9-19.2,8.2-28.8,12.2c-3.4,1.4-5.4,3-5.2,6.5c0.5,8.5,0.3,17,0.1,25.5c-0.1,2.6,1.4,3.9,4.1,4.8c3.4,1.1,6.7,2.4,9.8,3.8
			c9.5,4.3,19.5,7.7,29.3,11.4c2.4,0.9,4.1,2,5.1,3.9c3.3,6.7,5.7,13.6,8.6,20.3c1.3,2.9,1.1,5.6-0.1,8.5
			c-5.8,13.8-11.7,27.5-16.7,41.5c-0.4,1.2-0.5,2,0.5,3.1c7.1,6.9,14.1,13.8,20.9,20.9c1.1,1.1,1.9,1,2.9,0.6
			c9.1-4.4,18.9-7.8,28-12.1c3.9-1.8,8.1-3.4,11.7-5.7c2.8-1.8,7.7-1.7,10.9,0c4.6,2.4,9.5,4.6,14.6,6.3c4.2,1.4,6.8,3.6,8.2,7.1
			c5.4,13.7,11.1,27.3,17.3,40.8c0.8,1.7,1.7,2.1,3.8,2.1c9.2-0.1,18.5,0,27.7,0c2,0,2.8-0.4,3.4-2c5.9-13.7,11.1-27.5,16.3-41.4
			c0.9-2.4,2.3-4.6,5.2-5.6c6.3-2.2,12.2-5,18.2-7.5c3.1-1.3,6.2-1.5,9.3-0.1c2.1,0.9,4.4,1.8,6.4,2.7c7.7,3.6,15.7,6.7,23.7,9.8
			c2.8,1,5.7,1.8,8.2,3.4c2.9,1.8,4.8,1.4,7.2-0.9c5.5-5.4,11.1-10.8,16.6-16.2c2.3-2.3,4.8-4.4,3.1-8.1c-5.2-11.4-9.5-23-15.2-34.2
			c-2.9-5.6-3.9-11.1-0.6-16.8c2-3.6,3.9-7.4,4.7-11.2c1.4-6.3,6.6-9.2,13.4-11.6c5-1.7,9.9-3.7,14.6-5.8c6.4-2.9,13-5.5,19.3-8.5
			c2.3-1.1,3.3-2.1,3.2-4.1C370.3,218.9,370.4,214.4,370.4,209.8z"/>
		<g>
			<path class="st1" d="M17.4,193.1c2.3-3,7.7-4.6,11-6.1c5.6-2.6,11.3-5,17.1-7.3c9.7-3.8,22-6.1,26.2-16.7
				c1.8-4.6,4.5-9.5,5.4-14.3c1.1-6-3.1-12.5-5.5-17.8c-4.6-10.1-9.5-20.1-12.9-30.7c-0.2-0.5-1.1-4.2-1.3-3.4
				c0.4-1.7,4-3.9,5.2-5.2c4.6-4.5,9.1-9,13.6-13.6c1.9-1.9,6.5-7.8,8.1-8.3c1.3-0.4,4.2,1.4,5.4,1.8c2.9,1,5.8,2,8.7,3
				c10.4,3.7,20.4,9.3,30.9,12.7c5.7,1.8,10.8,0.6,16.1-1.8c4.5-2,10-3.5,13.4-7.2c3.7-4,4.9-10,6.8-15c2.3-6.1,4.5-12.2,7-18.2
				c2-4.8,3.8-9.9,6.6-14.3c0.4-0.6,0.8-1.4,1.3-1.9c-1.2,1.1-1.3,0.1,0.2,0.5c3.2,0.8,7.7,0,10.9,0c6,0,11.9,0,17.9,0
				c2.5,0,5.8-0.5,8.2,0c0.1,0-1-1.3-0.3,0.2c0.8,1.6,1.9,3,2.8,4.5c5.3,9.5,9.3,20.1,13.2,30.2c1.9,4.9,3,10.7,7,14.4
				c3.5,3.2,8.3,4.5,12.5,6.3c5,2.1,9.6,3.9,15.1,2.4c5.5-1.4,10.7-4.6,15.8-7c5-2.3,10.1-4.4,15.2-6.5c2.8-1.2,5.5-2.4,8.3-3.5
				c1.7-0.7,4.5-2.2,6.5-1.6c1.7,0.5,6.5,6.4,8.4,8.4c4.3,4.3,8.6,8.7,13,13.1c1.5,1.5,4.5,3.5,5.4,5.5c-0.3-0.7,0.7-2.8-0.5,0.9
				c-0.5,1.7-0.9,3.4-1.5,5.2c-1.9,5.9-4.2,11.7-6.6,17.4c-2.4,5.7-4.7,11.3-7.2,17c-1.3,3-2.9,5.9-3,9.2c-0.2,3.7,1.3,6.6,2.8,9.9
				c2.5,5.1,3,10.6,7.6,14.5s11.3,5.5,16.9,7.5c6.1,2.2,12.3,4.5,18.3,7c2.6,1.1,5.2,2.2,7.8,3.5c1.9,0.9,5.2,2,6.5,3.8
				c-0.4-1.5-0.8-3-1.2-4.5c0,15.2,0,30.4,0,45.6c0.9-2.1,1.8-4.2,2.6-6.4c-3.1,3.4-7.1,5.2-11.2,7.1c-5.2,2.4-10.4,4.8-15.7,7
				c-9.3,3.8-22.2,6.2-27.6,15.5c-2.2,3.7-3.5,8.2-5.2,12.2c-2.9,6.9-0.3,12.2,2.6,18.5c4.8,10.9,10.3,21.7,14.4,32.9
				c1.2,3.2,1.3,4.7-0.9,7.4c-3.8,4.5-8.8,8.3-13,12.4c-2,2-3.9,3.9-5.9,5.9c-1.5,1.5-3.9,5.2-5.9,5.9c-0.7,0.2,0.2,0.2,0.2,0.1
				c0.9-0.2-4.6-1.4-2.1-0.7c-2.8-0.8-5.6-1.6-8.4-2.6c-10.3-3.6-20.6-7.9-30.6-12.4c-5.9-2.7-10.3-4.2-16.5-1.5
				c-5,2.2-12,4.2-16,7.9c-3.8,3.4-5.1,8.9-6.9,13.5c-2.2,5.8-4.3,11.6-6.6,17.4c-2,5-4,10.1-6.5,14.9c-0.4,0.8-1.4,2.1-1.7,3
				c-0.3,0.5-0.7,1-1,1.5c2.2-0.8,2.5-1.1,0.9-0.9c-2.4-1-7.8,0-10.5,0c-5.7,0-11.4,0-17.2,0c-2.9,0-5.7,0-8.6,0c-0.3,0-0.6,0-1,0
				c-2.1-0.2-2.5-0.1-1.1,0.3c0.3,0.3,0.6,0.6,1,0.9c-0.6-0.8-1.1-1.6-1.6-2.5c-5.8-9.5-9.6-20.2-13.8-30.5
				c-2-4.9-3.4-10.8-6.3-15.2c-3.1-4.8-9.7-6.3-14.7-8.4c-5.1-2.2-9.4-4.6-15-2.6c-5.6,2-10.9,5.3-16.4,7.6
				c-5,2.1-10.1,4.2-15.1,6.4c-2.4,1-4.8,2-7.2,3c-1.7,0.7-4.6,2.6-6.6,2.2c-1.7-0.4-3.5-3.3-4.7-4.5c-2.1-2.2-4.2-4.4-6.4-6.6
				c-4.1-4.2-8.2-8.3-12.4-12.3c-4.4-4.1-3.7-4.4-1.7-10.2c2.2-6.5,4.7-12.9,7.4-19.3c2.6-6.2,5.8-12.4,8-18.8
				c2.3-6.7,0-11.6-2.6-17.7c-2.6-6.2-3.6-11.4-10.3-14.4c-5.9-2.7-12.1-4.6-18.2-6.9c-6.1-2.3-12.2-4.5-18-7.2
				c-2.6-1.2-5.5-2.3-7.8-3.9c-2.3-1.7-4.2-3.4-7.1-4.6c2.2,2.9,4.4,5.8,6.6,8.7c0.1-15.4,0.1-30.8,0.1-46.1c0-11.6-18-11.6-18,0
				c0,15.4,0,30.8-0.1,46.1c0,4.3,2.9,7.2,6.6,8.7c0.4,0.2,0.8,0.3,1.2,0.5c-1.3-0.8-2.6-1.5-4-2.3c7.9,7.6,19.4,11.3,29.5,15.2
				c5.3,2,10.7,4,16,6c1.2,0.5,4.6,1.1,5.4,1.9c-1.3-1.4,0.2,2,0.3,2.4c0.7,1.9,1.5,3.7,2.3,5.6c1.2,2.5,1.3,1.8,0.3,4.2
				c-1.2,2.8-2.4,5.7-3.6,8.5c-2.6,6-5.2,12-7.6,18.1c-3.8,9.5-9.5,21.3-3.9,31.3c2.6,4.6,7.2,8,10.9,11.7
				c4.4,4.3,8.6,8.7,12.9,13.1c3.8,3.9,7.5,8.3,12.8,10.1c6,2.1,11.6,0.5,17.2-1.8c11-4.6,22.1-9,33-14c1.3-0.6,2.6-1.2,3.9-1.9
				c0.3-0.1,0.5-0.3,0.8-0.4c2.3-0.8,2-1.2-0.6-1.1c0.7-0.5,6,2.6,7,3c1.3,0.5,2.5,1.1,3.8,1.6c0.4,0.2,0.7,0.3,1.1,0.5
				c1.8,0.9,1.6,0.4-0.5-1.3c0,0,3.1,7.9,3.4,8.5c4.3,10.6,8.4,21.6,13.7,31.8c2.3,4.4,4.9,9.6,9.3,12.4c5.1,3.3,11.5,2.5,17.3,2.5
				c6,0,12.1,0,18.1,0c5.7,0,12.3,0.9,17.8-0.6c11.2-3,15.8-19.9,19.6-29.3c2.1-5.2,4-10.4,5.9-15.7c0.9-2.5,2.4-5.2,3-7.8
				c0.5-2.4,1.1-0.5-0.5-0.2c1.8-0.3,3.8-1.6,5.4-2.3c1.1-0.5,2.1-1,3.2-1.5c0.2-0.1,5-1.6,2.4-1.5c-2.5,0.1,2.1,1.3,2.4,1.5
				c1.1,0.5,2.2,1,3.3,1.4c5.6,2.4,11.4,4.7,17,7c4.8,2,9.6,4,14.5,5.6c5.3,1.8,11.5,4,17.2,2.9c4.8-1,8.1-4.2,11.5-7.6
				c4.4-4.4,8.7-8.8,13.1-13c7.5-7.3,16.3-14,16.2-25.5c-0.1-5.7-2.8-11-4.9-16.1c-2.5-5.9-5.1-11.8-7.7-17.7
				c-1.2-2.6-2.4-5.2-3.5-7.9c-0.5-1.2-1-2.3-1.6-3.5c-0.4-1-1.5-5.8-1.9-1.9c0.2-2.1,2.1-4.7,2.9-6.7c0.6-1.5,1-3.5,2-4.3
				c3.1-2.8,9.3-4,13.1-5.5c5.8-2.3,11.7-4.7,17.4-7.4c4.4-2,9-3.9,13.1-6.5c5.8-3.6,10.1-7.5,10.4-14.6c0.4-12.5,0-25.1,0-37.7
				c0-3.1,0.5-6.6-0.8-9.4c-1-2.4-2.9-4.4-4.9-6.1c-4.4-3.7-9.8-5.9-15-8.1c-5.3-2.3-10.6-4.4-16-6.4c-2.9-1.1-5.9-2.2-8.8-3.2
				c-2.6-0.9-6.2-1.5-8.4-3.1c0,0-1.2-0.7-0.5,0c0.9,0.9-0.7-2.8-0.7-2.8c-0.7-2.1-1.5-4.9-2.9-6.8c-0.2-0.5-0.5-1-0.7-1.5
				c-0.3,2-0.1,2,0.6-0.1c0.6-0.9,1-2.3,1.4-3.2c1.2-2.9,2.4-5.8,3.6-8.6c4.4-10.7,9.7-21.5,12.3-32.8c2.9-13.1-6.9-20.1-15.2-28.5
				c-4.3-4.4-8.6-8.7-13-13s-8-7.6-14.4-8.1c-10.9-0.9-22,6.1-31.7,10.3c-5.1,2.2-10.1,4.5-15.1,6.9c-1.1,0.5-2.2,1-3.3,1.5
				c-0.4,0.2-2.5,0.7-1.4,0.6c-0.7,0-4.9-2.1-6.7-2.9c-1-0.4-3.7-1.2-4.1-1.7c0.7,0.7-1.3-4.5-1.6-5.2c-2.3-5.9-4.8-11.7-7.3-17.5
				C240,33.6,236,19.8,227.1,14c-4.7-3-10.1-2.7-15.5-2.7c-6.6,0-13.3,0-19.9,0c-5.7,0-12.1-0.9-17.6,0.9
				c-5.6,1.8-9.1,6.7-11.8,11.6c-5.7,10.6-9.7,22.4-13.9,33.7c-1,2.7-2.3,5.4-3,8.2c-0.5,1.9,1.1-0.5,0.2,0
				c-1.3,0.6-2.7,1.2-4.1,1.7c-1.7,0.7-3.5,1.9-5.3,2.3c-2.6,0.7-5.1-1.2-7.7-2.3c-10.5-4.5-21.1-8.9-31.9-12.6
				c-4.4-1.5-8.9-3.4-13.7-3.2c-6.1,0.3-10.2,4-14.2,8.1c-8.2,8.4-17.7,16.4-25,25.5c-7.8,9.7-2.3,21.2,1.9,31.3
				c4.4,10.7,10.7,21.2,14.1,32.2c0-1.6,0-3.2,0-4.8c-0.5,3.2-2.4,6.4-3.6,9.5c-0.5,1.1-0.9,2.3-1.3,3.5c0.1-0.2,1.4-0.5-0.4,0.1
				c-6.1,1.9-12.2,4.8-18.1,7.2c-12,4.9-26.3,9.3-34.4,19.9c-3,3.9-0.6,10.1,3.2,12.3C9.7,199.1,14.4,197,17.4,193.1z"/>
			<path class="st1" d="M379.4,209.8c0-5.6,1.1-12.4-0.5-17.8c-1.8-6.2-7.4-7.9-12.8-10c-10.8-4.1-21.7-8.4-32.4-12.8
				c-4.5-1.8-4.3-2.7-6.1-7.3c-1.7-4.1-6.4-11.1-5.4-15.3c1.3-5.6,4.8-11.5,7.1-16.9c2.3-5.6,4.6-11.3,6.8-17
				c2.1-5.4,4.8-10.7,2.4-16.6c-2.1-5.2-7.6-9-11.5-12.8c-4.1-4-7.9-8.9-12.5-12.3c-5.3-3.9-10.4-2.6-15.9-0.1
				c-10.4,4.7-21.1,8.9-31.5,13.7c-1.5,0.7-2.9,1.3-4.4,2c-1.2,0.5-4,0.6-1.6,0.9c-2.6-0.3-5.6-2.3-8-3.3c-3.5-1.4-9.7-2.7-12.2-5.9
				c-2.7-3.4-3.9-9.7-5.5-13.8c-2.3-5.7-4.8-11.4-7.3-17.1c-2.2-4.9-3.9-11.3-8.2-14.7c-4.6-3.6-10.8-2.7-16.3-2.7
				c-6.1,0-12.2-0.1-18.3-0.1c-5.7,0-10.1,1.8-12.9,7c-2.9,5.2-4.8,11.4-7.1,16.9c-2.2,5.5-4.4,11.1-6.4,16.6
				c-1.3,3.5-1.7,7.5-5,9.5c-4.4,2.7-9.9,4.2-14.6,6.3c0.2-0.1-5.3,2-2.7,1.6c2.2-0.4-2.3-1.1-3-1.3c-2.2-0.8-4.3-1.7-6.4-2.7
				c-5.3-2.4-10.7-4.6-16.2-6.7c-5.4-2.1-10.9-3.9-16.2-6.1c-6.2-2.5-10.1-1.9-15.1,2.9C75.3,78.6,71,83,66.6,87.2
				c-4.2,4.1-9.3,8-9.7,14.4c-0.3,5.7,3,11.2,5.1,16.3c2.4,5.6,4.9,11.3,7.4,16.9c1.7,3.7,6.2,10.8,5.9,14.2c-0.2,2.4-2.1,5.3-3,7.5
				c-1.2,2.8-2.2,5.7-3.4,8.5c-1.7,3.9-2.5,3.4-6.8,5.3c-5.6,2.3-11.1,4.7-16.7,7c-5.7,2.4-11.4,4.9-17,7.3c-4.6,2-8.5,5-10,10
				c-1.6,5.3-0.3,12-0.3,17.5s-1.2,12.1,0.5,17.4c1.9,5.8,7.1,7.8,12.4,9.7c5.4,1.9,10.5,4.4,15.8,6.5c5.5,2.2,11,4.2,16.5,6.2
				c1.3,0.5,3.3,0.8,4.3,1.6c0.5,0.4,0.4,0.7-0.3-0.2c1.6,2.2,2.5,5.5,3.5,8c1.8,4.3,5.7,9.9,3.9,14.4c-2.3,5.9-4.9,11.6-7.3,17.4
				c-2.4,5.7-4.6,11.4-6.8,17.2c-2.1,5.6-4.6,10.9-0.9,16.4c3.2,4.8,8.6,8.8,12.6,12.8c3.8,3.8,7.8,9.4,12.5,12
				c5.8,3.2,11.3-0.4,16.7-2.8c5.2-2.3,10.6-4.4,15.8-6.6c4.9-2.1,9.9-4.2,14.7-6.6c5-2.5,4.8-2.1,10.1,0.3c2.8,1.3,5.7,2.5,8.7,3.6
				c1.5,0.6,3.8,0.9,4.9,2c2.6,2.6,3.9,8.9,5.3,12.4c2.4,5.8,4.8,11.5,7.3,17.2c2.2,5,4,11.9,7.8,15.9c3.9,4.2,9.3,3.9,14.6,3.8
				c6.3,0,12.5,0,18.8,0c5.9,0,11.6-0.2,14.9-6c3-5.2,4.9-11.4,7.1-17c2.3-5.7,4.5-11.4,6.6-17.1c1-2.7,1.9-5.5,3-8.1
				c0.3-0.6,0.4-1.4,0.9-2c-1.1,1.3,1.6-0.2,2.1-0.4c5.1-2,10.5-5.4,15.8-6.7c4-0.9,9.1,2.7,12.7,4.3c5.5,2.4,11,4.6,16.6,6.8
				c4.6,1.8,9.3,4.3,13.9,5.8c5.9,1.9,10.9-0.6,15.2-4.6c4.4-4.2,8.8-8.5,13.1-12.8c3.8-3.8,8.2-7.5,8.8-13.2
				c0.7-6-3.1-11.8-5.4-17.1c-2.3-5.4-4.6-10.9-7-16.3c-1.8-4.1-6.4-10.1-5.8-14.8c0.3-2.4,2.3-4.8,3.2-6.9c1.2-2.5,2.2-5.1,3-7.8
				c0.9-3.4,2.6-4.2,5.9-5.6c10.8-4.5,21.6-8.6,32.3-13.4c5.1-2.3,10.6-4.5,12.3-10.3C380.4,222.1,379.4,215.3,379.4,209.8
				c0-11.6-18-11.6-18,0c0,3.6,0.8,11-0.1,13.2c0.8-1.3,1.5-2.6,2.3-4c-1.6,2-8.3,4.1-11.5,5.4c-4.9,2.1-9.7,4.4-14.7,6.3
				c-8.1,3.2-17.1,5.2-22.6,12.6c-2.7,3.6-3.3,7.5-4.8,11.5c-2,5.1-5.2,9.2-5.7,14.9c-1.1,10.7,5.9,20.5,10,29.9
				c2,4.6,3.9,9.2,5.9,13.8c0.5,1.1,0.9,2.5,1.5,3.4c0.1,0.3,0.3,0.6,0.4,0.9c0.6,1.9,1.1,1.1,1.4-2.2c-0.4-0.1-5,5-5.4,5.4
				c-3.4,3.4-6.9,6.7-10.4,10.1c0.2-0.2-2.8,2.6-2.7,2.7c1.2-0.2,2.5-0.3,3.7-0.5c-0.4-0.2-0.9-0.5-1.3-0.7
				c-2.1-1.5-5.2-2.2-7.7-3.1c-9.3-3.4-18.3-7.5-27.5-11.3c-4.6-1.9-8.7-3.4-13.8-2.7c-5.1,0.8-9.9,3.5-14.6,5.5
				c-4.9,2.1-10.8,3.3-14.7,7.2c-4,4-5.4,9.8-7.3,15c-2,5.4-4.1,10.8-6.2,16.2c-1.2,3-2.4,6-3.6,9c-0.7,1.6-2,6-2.7,6.6
				c1.3-0.8,2.6-1.5,4-2.3c-2.1,0.7-6.9,0.1-9.7,0c-4,0-7.9,0-11.9,0c-0.4,0-5.7-0.4-5.9,0c3.6,3.2,4.8,3.6,3.6,1.5
				c-0.4-0.9-0.8-1.8-1.2-2.6c-1.6-3.5-3.1-7.1-4.7-10.6c-3-6.9-5.9-13.9-8.7-20.9c-2.5-6.3-4.9-11.6-11.2-14.9
				c-3-1.7-6.5-2.5-9.7-3.8c-3-1.2-5.8-2.8-8.7-4.1c-6.9-3.1-13.6-2.1-20.1,1.4c-5.6,3-11.6,5.6-17.5,8c-6.5,2.7-13,6.2-19.7,8.4
				c1.6,0,3.2,0,4.8,0c1.3,0.4,1.1,0-0.5-1.2c-0.9-0.9-1.7-1.8-2.6-2.6c-1.7-1.8-3.5-3.5-5.2-5.2c-3-3-7.5-6.1-9.9-9.6
				c0.4,1.5,0.8,3,1.2,4.5c-0.3-2.5,4-10.7,5.4-14.2c2.1-5.3,4.3-10.6,6.5-15.9c2.1-5,5.2-10.2,5.8-15.7c0.7-6.2-2.2-11.5-4.5-17.2
				c-1.9-4.8-3.7-10.1-6.3-14.5c-2.9-4.8-7.7-6.6-12.7-8.5c-10.3-3.9-20.5-8.1-30.7-12.1c-1.1-0.4-2.2-0.8-3.3-1.2
				c-0.3-0.1-0.6-0.2-0.8-0.3c-2.9-1.4-2.6-0.3,0.8,3.3c0.6-0.3,0.2-6.9,0.2-7.9c0-1.7,0.1-17.7-0.2-17.6c-0.2,0.4-0.4,0.9-0.5,1.3
				c-1.2,1.1-1.3,1.3-0.4,0.8c0.5,0.1,2.1-1,2.6-1.2c2.7-1.2,5.4-2.3,8.1-3.5c5.3-2.3,10.5-4.5,15.8-6.7c8.9-3.6,18.6-5.8,22.9-15.3
				c2.1-4.6,3.8-9.5,5.8-14.2c2.2-5.3,4.4-10.2,3-16c-1.5-6.1-5-12.1-7.6-17.8c-2.6-5.9-5.2-11.8-7.8-17.7c-0.6-1.4-1.2-2.7-1.7-4.1
				c-0.2-0.6-0.5-1.2-0.7-1.8c-0.4-1.9-0.6-1.8-0.6,0.2c-0.1,0.5-0.1,1-0.2,1.5c0.9-0.9,1.9-1.8,2.8-2.7c1.2-1.1,2.3-2.2,3.5-3.4
				c4.6-4.5,9-9.5,13.9-13.6c-2.1,0.9-4.2,1.8-6.4,2.6c-1.9,0,0.6,0.6,0.9,0.8c1,0.5,2.3,0.9,3.4,1.3c2.3,0.9,4.6,1.7,6.9,2.5
				c4.9,1.8,9.8,3.6,14.6,5.7c8.7,3.7,18.5,10.6,28.1,6.9c4.5-1.7,8.8-3.9,13.3-5.7c4.4-1.7,8.7-3.5,12.2-6.8
				c6.7-6.3,8.5-17.1,11.8-25.4c1.8-4.7,3.7-9.3,5.6-14c0.3-0.7,3.1-6.1,2.8-6.5c-1.2,0.6-2.4,1.3-3.6,1.9c0.6,0,1.3,0,1.9,0
				c1.8,0.2,4,0,5.8,0.1c5.1,0,10.3,0,15.4,0c0.5,0,3.8-0.1,3.8,0c-0.6-0.3-1.2-0.7-1.7-1c-2-1.6-2.3-1.3-0.9,0.7
				c0.4,2.5,2.5,5.5,3.6,7.9c4.1,9.3,7.7,18.8,11.5,28.2c4,9.7,12.8,12.9,21.9,16.6c5.4,2.2,11.1,5.8,17.1,5.1
				c5.7-0.7,11.8-4.7,17-7c4.9-2.2,9.6-4.6,14.6-6.6c2.9-1.1,5.8-2.2,8.6-3.4c2-0.9,4.2-2.2,6.4-2.5c-1.6,0-3.2,0-4.8,0
				c-1-0.8-1.1-0.8-0.2,0.1c0.6,0.7,1.3,1.3,1.9,2c1.3,1.3,2.6,2.7,3.9,4c2.4,2.4,4.9,4.8,7.4,7.2c1.2,1.1,2.6,3.2,4.1,3.9
				c1.3,1.5,1.3,0.7-0.3-2.6c-0.2,0.6-0.5,1.2-0.7,1.8c-2,2.7-2.9,7.6-4.2,10.8c-2.7,6.9-5.6,13.7-8.4,20.5
				c-3.2,7.7-6,13.9-2.6,22.1c2.7,6.3,4.9,12.8,7.8,19c2.8,5.9,8,8.6,13.8,11c6.1,2.5,12.3,4.6,18.4,6.9c3.5,1.3,6.8,2.9,10.3,4.3
				c2,0.8,7.2,2.3,7.8,3.1c-0.8-1.3-1.5-2.6-2.3-4c0.7,2.1,0,9.7,0,13.5C361.4,221.4,379.4,221.4,379.4,209.8z"/>
		</g>
	</g>
	<g>
		<path class="st1" d="M262,210.5c-0.2,16.7-6,32-19.1,45.3c-4.6,4.6-10.2,8.5-16.7,11.6c-5.6,2.7-11.6,4.2-17.8,5.5
			c-5.1,1-10.2,1.4-15.1,0.7c-9.1-1.2-17.8-3.7-25.6-8.2c-30.9-17.5-38-53.3-27.8-78.3c4.6-11.2,11.9-21.1,23.1-28.8
			c5.7-3.9,12.2-7.1,19.9-9c8.5-2.1,16.9-2.7,25.3-1.4c8.4,1.3,16,4,22.9,8.3c6,3.7,11,7.9,15.3,12.8c6.1,6.8,10.1,14.3,12.7,22.3
			C260.9,197.7,261.9,204.1,262,210.5z M249.3,206.8c-0.7-12.4-6.3-27-22.6-38.1c-6.2-4.3-13.2-6.8-20.9-8.1
			c-6.3-1-12.5-0.5-18.9,0.9c-7.8,1.8-14.1,5.1-19.6,9.3c-9,7-14.9,15.7-17.3,25.4c-5.1,20.5-1.1,39.2,18.5,54.7
			c7.8,6.2,17.3,9.2,27.8,10.3c6.7,0.7,13.1-1.1,19.4-3.2c9.3-3,16.1-8.3,21.5-14.5C245.6,233.7,249.5,222.5,249.3,206.8z"/>
		<g>
			<path class="st1" d="M241,210.5c0,1.6-0.2,3.1-0.2,4.7c-0.1,5.2,1-4.6,0,0.5c-0.5,2.5-1,5-1.7,7.4c-0.3,1-0.7,3.6-1.5,4.3
				c0.3-0.7,0.6-1.5,1-2.2c-0.4,0.9-0.9,1.9-1.3,2.8c-1.4,2.9-3.2,5.5-4.9,8.2c-2.9,4.4,3-2.9-0.8,1c-0.8,0.8-1.5,1.7-2.3,2.5
				c-1.2,1.2-2.4,2.3-3.6,3.5c-3.7,3.8,3.5-2.1-1,0.9c-2.4,1.6-5,2.9-7.4,4.4c-4.8,2.9,3.9-1.1-1.2,0.6c-1.6,0.5-3.2,1.1-4.8,1.6
				c-3.4,1-6.8,1.8-10.3,2.4c3.9-0.7,0.7-0.1-0.1-0.1c-1.6,0-4.2,0.5-5.6-0.1c0.7,0.1,1.4,0.2,2,0.3c-1.1-0.2-2.3-0.4-3.4-0.6
				c-1.4-0.3-2.8-0.6-4.1-0.9c-1.4-0.3-2.7-0.7-4.1-1.1c-1.1-0.3-7.9-1.9-2.8-0.9c-2.2-0.4-5.1-2.6-7-3.8c-0.7-0.4-3.3-1.7-3.6-2.4
				c0.7,0.5,1.3,1,2,1.6c-0.7-0.6-1.5-1.2-2.2-1.8c-1.7-1.5-3.4-3.1-4.9-4.8c-0.2-0.2-2.6-3.1-2.6-3.1c1.8,2.3,2.2,2.9,1.3,1.6
				c-0.4-0.5-0.8-1.1-1.1-1.6c-1.5-2.2-2.8-4.4-3.9-6.7c-0.1-0.2-0.8-2.1-1.1-2.3c0.4,0.9,0.7,1.8,1.1,2.7c-0.3-0.8-0.6-1.6-0.9-2.4
				c-0.8-2.2-1.4-4.4-2-6.6c-0.2-1-0.5-2-0.7-3c-0.2-0.8-0.3-1.6-0.4-2.4c0.4,3.5,0.5,4.2,0.3,1.9c-0.3-4.3,0-8.5,0-12.7
				c0-2.9-1,5.6-0.2,1.5c0.2-1.2,0.4-2.3,0.7-3.5c0.5-2.3,1.2-4.5,2-6.7c0.1-0.4,0.3-0.7,0.4-1.1c0.7-1.8,0.6-1.4-0.5,1.2
				c0-1.1,1.5-3.1,2-4.1c1.2-2.2,2.6-4.3,4-6.4c2.8-4.3-3,3.2,0.5-0.6c0.7-0.8,1.4-1.6,2.1-2.3c1.1-1.1,2.3-2.3,3.4-3.3
				c0.8-0.7,1.6-1.4,2.5-2.1c-2.1,1.6-2.2,1.7-0.2,0.3c2.3-1.5,4.5-2.9,7-4.2c1-0.5,5-3.4,1.1-0.6c1-0.7,2.9-1,4.1-1.4
				c1.5-0.4,2.9-0.8,4.4-1.1c0.7-0.2,6.7-1,1.7-0.5c3.7-0.4,7.2-0.3,10.8-0.3c5.6-0.1-3.7-1,1.5,0.1c1.9,0.4,3.8,0.8,5.7,1.3
				c1.3,0.4,2.6,0.8,3.9,1.2c2.2,0.8,2,0.7-0.5-0.3c1,0.4,2,0.9,2.9,1.4c2.7,1.4,6.5,3,8.5,5.3c-3.1-3.6,0.2,0.2,1,0.9
				c1.2,1.1,2.4,2.2,3.6,3.4c1.2,1.2,2.2,2.4,3.4,3.7c1.5,1.8,1.4,1.7-0.2-0.3c0.6,0.9,1.2,1.8,1.8,2.7s1.1,1.8,1.6,2.8
				c0.5,0.9,4.1,7.1,1.3,2.1c1.6,2.7,2.3,6.5,2.9,9.6c0.2,0.8,1.6,6.5,0.4,1.3C241.1,205.7,240.9,208.3,241,210.5
				c0.2,11,9.5,21.5,21,21c11.2-0.5,21.3-9.2,21-21c-0.4-19.4-6.6-37.1-18.5-52.3c-10.8-13.7-26.5-24.3-43.4-28.9
				c-36.4-9.9-76.6,6.3-95.3,39.2c-14.4,25.1-14.4,55.7-1.4,81.3c15.7,31.2,52.6,49.3,86.8,43.9c41.4-6.6,70.8-41.7,71.9-83.2
				c0.3-11-9.9-21.5-21-21C250.4,190.1,241.3,198.8,241,210.5z"/>
			<path class="st1" d="M270.3,206.8c-2.1-29.5-20.8-53.7-48.6-63.8c-30.8-11.2-65.7,2.4-83.6,28.9c-14.6,21.6-15,54.3-0.6,76
				c17.4,26.3,49.5,40.6,80.4,31.5c16.7-4.9,30.1-14.5,40.1-28.6C267,238,270.3,222.2,270.3,206.8c0-11-9.7-21.5-21-21
				c-11.4,0.5-21,9.2-21,21c0,2.5-0.1,5-0.3,7.5c0,0.3,0,0.5-0.1,0.8c-0.3,2.4-0.2,2.1,0.1-1c0.2,0.3-0.6,2.8-0.6,2.9
				c-0.4,1.9-1,3.6-1.6,5.5c-1.2,4,0.4-1.3,0.6-1.2c0.2,0.2-1.6,3.2-1.9,3.7c-0.5,0.8-0.9,1.6-1.4,2.4c-0.2,0.3-2.8,4.2-0.8,1.3
				c1.7-2.5-0.1,0-0.6,0.6c-0.8,0.9-1.6,1.8-2.5,2.7c-0.7,0.7-1.4,1.3-2.2,2c-2.3,2.2,0.2-0.8,0.7-0.5c-0.2-0.1-6,3.7-6.7,4
				c-3.9,2,0.4-0.1,0.5-0.2c-0.2,0.3-2.8,0.9-3.3,1.1c-2.6,0.8-5.2,1.3-7.8,2c-2.8,0.8,4.5,0.4-0.6,0c-1.2-0.1-2.5-0.1-3.6-0.1
				c-3.5-0.2,0.7,0.1,0.7,0.1c-0.1,0.2-4.5-0.9-4.7-1c-1.6-0.4-4.8-0.7-6-1.9c1.8,1.8,2.6,1.3,0.7,0.3c-1.1-0.6-2.3-1.2-3.4-1.9
				c-1-0.6-2.4-1.3-3.2-2.1c0.5,0.5,3.3,2.9,0.4,0.2c-2-1.8-3.9-3.7-5.7-5.6c-1.5-1.5-0.5-2,0.4,0.7c-0.2-0.7-1.2-1.7-1.7-2.4
				c-1.2-1.8-2.1-3.6-3.1-5.5c-1.4-2.4,1.3,3.9,0.5,1.3c-0.3-1.1-0.7-2.1-1.1-3.2c-0.2-0.9-0.5-1.7-0.7-2.6
				c-0.1-0.4-0.2-0.9-0.3-1.3c-0.4-2.3-0.3-1.7,0.2,1.6c0.5-0.8-0.3-4.3-0.3-5.4c0-1.8,0.2-3.7,0.3-5.5c0.3-4.7-0.8,3.7-0.1,0.7
				c0.2-0.9,0.4-1.9,0.6-2.8c0.3-1.2,0.5-2.4,0.9-3.6c0.2-0.6,1.3-4.8,0.4-1.7c-0.9,3.1,0.6-1.1,0.9-1.6c0.5-0.9,1-1.8,1.5-2.6
				c0.3-0.4,1.5-2.6,1.7-2.6c-0.3,0-2.5,2.9-0.3,0.6c1.7-1.8,3.5-3.4,5.3-5.1c2.3-2.2-3.9,2.4,0.1-0.1c1.1-0.7,2.1-1.4,3.2-2
				c1.1-0.6,2.2-1.2,3.4-1.8c1.9-1,1.1-1.5-0.7,0.3c1.2-1.2,4.7-1.5,6.3-1.9c1.3-0.3,2.5-0.5,3.8-0.7c-4.2,0.7-0.1,0.1,1,0.1
				c1.2,0,2.6,0.2,3.8,0c1.5,0.1,1.3,0-0.9-0.3c0.8,0.1,1.6,0.3,2.5,0.5c2.7,0.6,5.2,1.5,7.8,2.2c2.8,0.8-3.1-1.7-0.6-0.3
				c1.4,0.8,2.8,1.5,4.2,2.3c0.9,0.6,1.8,1.3,2.7,1.8c1.2,0.9,1,0.7-0.8-0.7c0.6,0.5,1.3,1.1,1.9,1.6c2,1.8,3.7,3.7,5.5,5.6
				c2,2.1-2-3.2-0.6-0.8c0.7,1.2,1.6,2.3,2.2,3.6c0.4,0.8,0.9,1.6,1.3,2.4c2.2,4.2-0.5-1.9-0.1-0.2c0.5,2,1.3,3.9,1.7,6
				c0.2,0.8,0.3,1.6,0.5,2.4c0.3,1.4-0.5-5.5-0.2-0.4c0.8,10.9,9.1,21.5,21,21C260.1,227.3,271.1,218.5,270.3,206.8z"/>
		</g>
	</g>
	<path class="st2" d="M249.3,206.8c0.1,15.7-3.7,26.9-12.2,36.7c-5.4,6.3-12.2,11.5-21.5,14.5c-6.3,2-12.6,3.8-19.4,3.2
		c-10.5-1-20-4.1-27.8-10.3c-19.6-15.5-23.5-34.2-18.5-54.7c2.4-9.8,8.3-18.5,17.3-25.4c5.5-4.2,11.8-7.6,19.6-9.3
		c6.4-1.4,12.6-2,18.9-0.9c7.8,1.3,14.7,3.9,20.9,8.1C243.1,179.8,248.6,194.4,249.3,206.8z"/>
</g>
<g>
	<path class="st0" d="M782.8,231.9c0,54.8,0,109.6,0.1,164.4c0,1.9-0.5,2.3-2.9,2.3c-120.9,0-241.7,0-362.6,0
		c-2.5,0-2.9-0.4-2.9-2.3c0.1-54.1,0.1-108.1,0.1-162.2c1.9,0.3,2,1.9,3.4,2.7c6.8,3.9,14.1,7,21.7,9.9c7.5,2.8,15,5.5,22.5,8.4
		c2,0.8,3.6,1.8,4.2,3.7c1,3.4,2.3,6.7,4,9.9c1.6,2.9,1.2,5.4,0,8.3c-5.5,13.2-11.6,26.2-15.8,39.7c-1.4,4.7-1.4,8.9,3.1,13
		c8.4,7.7,16,15.9,23.9,23.9c3.3,3.4,7.6,4.1,12.2,2.2c6.9-2.9,13.9-5.8,20.8-8.7c6.8-2.9,13.7-5.7,20.1-9.2
		c1.1-0.6,2.3-0.9,3.7-0.2c3.6,1.8,7.3,3.1,11,4.7c1.7,0.8,4.2,1.1,4.9,3.2c2.3,6.1,4.8,12.1,7.3,18.2c3.8,9,7.1,18.1,12.5,26.6
		c1.3,2.1,2.8,4.1,6.4,4c12.9,0,25.9,0,38.8,0c1.9,0,3.4-0.4,4.7-2c1.9-2.3,3.2-4.8,4.4-7.3c6.1-12.6,10.3-25.8,15.4-38.6
		c0.5-1.4,1.1-2.4,3-3.1c4.3-1.7,8.4-3.7,12.6-5.6c1.3-0.6,2.6-0.7,4,0c5.8,2.7,11.7,5.2,17.8,7.6c8.8,3.5,17.3,7.4,26.9,9.7
		c4.2,1,5.8,0.6,8.6-2.1c7.2-7.2,14.3-14.5,21.8-21.3c5.9-5.4,8.2-10.5,5.3-17.7c-5.2-13.1-11.4-26-17-39.1
		c-0.6-1.4-0.8-2.7-0.2-4.1c1.2-2.9,2.7-5.8,3.7-8.8c1.3-3.7,3.1-6.2,7.9-8.1c9.4-3.7,19-7.3,28-11.6
		C772.1,239.2,778.7,236.8,782.8,231.9z"/>
	<path class="st3" d="M414.5,189.4c0-54.7,0-109.4-0.1-164.1c0-2,0.3-2.7,3.2-2.7c120.7,0.1,241.4,0.1,362.1,0
		c2.9,0,3.2,0.7,3.2,2.7c-0.1,54.1-0.1,108.2-0.1,162.4c-2.3-3.7-6.7-5.5-10.8-7.4c-10.8-5-22.3-9-33.7-13.1
		c-3.6-1.3-6.9-2.6-7.7-6.4c-0.8-3.6-2.6-7-4.2-10.4c-0.7-1.6-0.7-2.9-0.1-4.4c1.5-3.7,3.2-7.3,4.7-10.9
		c4.6-11.3,10.1-22.5,12.8-34.3c0.7-3.2-0.2-5.8-2.8-8.3c-7.2-7-14.1-14.2-21.2-21.3c-1.7-1.8-3.6-3.5-5.3-5.2
		c-2.2-2.2-8.6-1.9-13.2,0.1c-7.3,3.2-14.7,6.2-22,9.4c-4.3,1.9-8.5,4.1-12.8,6c-2.8,1.3-5.7,2.6-9.3,0.9c-2.4-1.1-5.1-2-7.3-3.2
		c-2.5-1.2-6-1.7-7-4.8c-2.3-7.1-5.3-14-8.3-20.9c-3.6-8.2-6.4-16.6-12-24.2c-1.4-2-3.4-3.1-6.4-3.1c-12.2,0-24.4,0-36.7,0
		c-2.9,0-4.8,1.1-6.2,2.9c-2.5,3.1-4,6.5-5.5,10c-5.1,11.6-9.3,23.4-13.7,35.2c-0.7,1.8-1.8,2.9-4.1,3.8c-2.5,1-5.1,2.1-7.5,3.3
		c-3,1.5-6.4,2.8-10.4,0.9c-2.3-1.1-4.9-2.1-7.3-3.2c-7.6-3.5-15.5-6.6-23.5-9.4c-3-1-6-2-9-3.1c-5.2-1.9-8.1-1.8-11.4,1.5
		c-8.4,8.3-16.6,16.7-25.1,24.9c-3.1,3-4.3,6.1-3,9.8c0.9,2.5,1.5,5.1,2.5,7.6c4.6,12.3,10.7,24.2,15.9,36.4c0.4,1,0.7,1.9,0.2,3
		c-1.7,4.1-3.6,8.2-5,12.3c-0.8,2.3-2.7,3.6-5.1,4.5c-1.9,0.8-3.7,1.6-5.5,2.3c-11.1,4.1-21.8,8.6-32.3,13.7
		C419.8,184.4,416.5,186.4,414.5,189.4z"/>
	<g>
		<path class="st1" d="M409.6,188.6c2.1-3.1,5.5-5.2,9.1-6.9c10.7-5.2,21.9-9.8,33.3-14.1c1.9-0.7,3.8-1.6,5.7-2.3
			c2.5-1,4.4-2.3,5.2-4.6c1.4-4.3,3.4-8.5,5.2-12.7c0.5-1.1,0.2-2-0.2-3.1c-5.4-12.5-11.5-24.9-16.4-37.5c-1-2.6-1.6-5.3-2.5-7.9
			c-1.4-3.9-0.1-7,3.1-10.1c8.8-8.5,17.3-17.2,25.9-25.7c3.4-3.4,6.4-3.5,11.8-1.5c3,1.1,6.2,2.1,9.3,3.2c8.3,2.9,16.4,6.2,24.3,9.7
			c2.5,1.1,5.2,2.1,7.6,3.3c4,2,7.6,0.6,10.7-0.9c2.5-1.2,5.2-2.3,7.8-3.4c2.4-1,3.5-2.2,4.2-4c4.5-12.2,8.9-24.4,14.2-36.3
			c1.6-3.6,3.2-7.1,5.7-10.3c1.5-1.9,3.4-3.1,6.4-3c12.6,0,25.2,0,37.8,0c3.1,0,5.2,1.1,6.6,3.2c5.7,7.8,8.7,16.5,12.4,25
			c3.1,7.1,6.1,14.3,8.6,21.5c1.1,3.3,4.7,3.7,7.2,5c2.4,1.2,5.1,2.2,7.6,3.3c3.7,1.7,6.6,0.3,9.6-1c4.5-2,8.7-4.2,13.2-6.2
			c7.5-3.3,15.2-6.4,22.7-9.7c4.7-2.1,11.3-2.3,13.6-0.1c1.8,1.8,3.7,3.6,5.5,5.3c7.4,7.3,14.5,14.7,21.9,22
			c2.7,2.6,3.6,5.3,2.9,8.6c-2.9,12.2-8.4,23.7-13.2,35.4c-1.6,3.8-3.2,7.5-4.8,11.3c-0.6,1.5-0.7,2.9,0.1,4.5
			c1.7,3.5,3.5,7.1,4.3,10.8c0.9,3.9,4.3,5.2,7.9,6.6c11.7,4.3,23.6,8.4,34.8,13.6c4.3,2,8.8,3.9,11.2,7.7c0,15.2,0,30.4,0,45.6
			c-4.3,5.1-11.1,7.5-17.4,10.6c-9.3,4.5-19.2,8.1-28.9,11.9c-5,2-7,4.6-8.2,8.4c-1.1,3.1-2.6,6.1-3.8,9.1c-0.6,1.4-0.4,2.7,0.2,4.2
			c5.8,13.5,12.2,26.7,17.6,40.3c3,7.4,0.6,12.8-5.5,18.3c-7.9,7.1-15.1,14.6-22.5,22c-2.9,2.8-4.5,3.2-8.9,2.2
			c-9.9-2.3-18.6-6.4-27.8-10c-6.2-2.4-12.4-5-18.3-7.8c-1.4-0.7-2.8-0.6-4.2,0c-4.3,2-8.5,4.1-13,5.8c-2,0.8-2.5,1.8-3.1,3.2
			c-5.3,13.3-9.6,26.8-15.9,39.8c-1.2,2.6-2.6,5.1-4.5,7.5c-1.3,1.6-2.8,2.1-4.8,2.1c-13.3,0-26.7,0-40,0c-3.8,0-5.2-2-6.6-4.2
			c-5.5-8.8-8.9-18.2-12.9-27.4c-2.6-6.2-5.2-12.5-7.5-18.7c-0.8-2.1-3.3-2.5-5.1-3.3c-3.7-1.7-7.6-3.1-11.3-4.9
			c-1.4-0.7-2.7-0.4-3.8,0.2c-6.6,3.6-13.7,6.5-20.7,9.4c-7.1,3-14.3,6-21.5,9c-4.8,2-9.2,1.2-12.6-2.3c-8.1-8.3-16-16.7-24.7-24.7
			c-4.7-4.3-4.7-8.6-3.2-13.5c4.3-13.9,10.6-27.4,16.3-41c1.2-3,1.6-5.6,0-8.6c-1.8-3.3-3-6.8-4.1-10.2c-0.6-2.1-2.3-3.1-4.3-3.9
			c-7.7-2.9-15.5-5.7-23.2-8.7c-7.8-3-15.3-6.2-22.4-10.2c-1.4-0.8-1.6-2.4-3.5-2.8C409.6,219.4,409.6,204,409.6,188.6z
			 M770.4,209.8c0-4.6-0.1-9.2,0.1-13.9c0.1-1.9-0.7-3-3.1-3.8c-4.9-1.7-9.6-3.7-14.3-5.8c-7.6-3.3-15.7-5.8-23.4-9
			c-3.9-1.6-7.1-3.1-8.4-6.8c-2.3-6.4-5.2-12.7-7.8-19c-1-2.4-0.9-4.7,0.1-7.2c5.7-13.6,11.4-27.2,16.7-41c0.8-2.3,0.4-3.8-1.4-5.5
			c-6.3-6.1-12.7-12.1-18.7-18.5c-1.9-1.9-3.4-2.1-5.5-1.1c-3.6,1.8-7.2,3.3-11,4.7c-4.5,1.7-9,3.6-13.2,5.6
			c-5.8,2.8-11.8,5.4-17.6,8.1c-1.1,0.6-2.8,0.4-4.2-0.2c-5.3-2.2-10.6-4.5-16-6.6c-5.2-2-9-4.5-10.8-9.4
			c-4.8-13-10.4-25.9-16.3-38.7c-0.8-1.8-1.8-2.5-4.3-2.5c-9,0.1-18,0.1-27,0c-2.5,0-3.4,0.7-4.2,2.5c-5.4,12.7-10.7,25.5-15,38.5
			c-1.7,5.1-5.5,7.7-11.1,9.8c-5.2,1.9-10.2,4.3-15.3,6.5c-1.4,0.6-3.3,0.8-4.5,0.2c-2.4-1.2-5.2-1.7-7.6-2.9
			c-6.9-3.4-14.1-6.3-21.4-9c-5.2-1.9-10.4-3.7-15.4-5.8c-1.4-0.6-1.4-0.8-2.4,0.2c-6.4,6.4-12.8,12.8-19.4,19
			c-2.3,2.2-2.7,4.2-1.6,7c5.4,13.1,11.3,26,17.1,39c1.2,2.6,1.2,5.1,0.2,7.7c-2.3,5.6-4.6,11.2-6.9,16.9c-1.4,3.5-3.1,6.8-8,8.2
			c-2.9,0.8-5.4,2.2-8.1,3.3c-9.7,3.9-19.2,8.2-28.8,12.2c-3.4,1.4-5.4,3-5.2,6.5c0.5,8.5,0.3,17,0.1,25.5c-0.1,2.6,1.4,3.9,4.1,4.8
			c3.4,1.1,6.7,2.4,9.8,3.8c9.5,4.3,19.5,7.7,29.3,11.4c2.4,0.9,4.1,2,5.1,3.9c3.3,6.7,5.7,13.6,8.6,20.3c1.3,2.9,1.1,5.6-0.1,8.5
			c-5.8,13.8-11.7,27.5-16.7,41.5c-0.4,1.2-0.5,2,0.5,3.1c7.1,6.9,14.1,13.8,20.9,20.9c1.1,1.1,1.9,1,2.9,0.6
			c9.1-4.4,18.9-7.8,28-12.1c3.9-1.8,8.1-3.4,11.7-5.7c2.8-1.8,7.7-1.7,10.9,0c4.6,2.4,9.5,4.6,14.6,6.3c4.2,1.4,6.8,3.6,8.2,7.1
			c5.4,13.7,11.1,27.3,17.3,40.8c0.8,1.7,1.7,2.1,3.8,2.1c9.2-0.1,18.5,0,27.7,0c2,0,2.8-0.4,3.4-2c5.9-13.7,11.1-27.5,16.3-41.4
			c0.9-2.4,2.3-4.6,5.2-5.6c6.3-2.2,12.2-5,18.2-7.5c3.1-1.3,6.2-1.5,9.3-0.1c2.1,0.9,4.4,1.8,6.4,2.7c7.7,3.6,15.7,6.7,23.7,9.8
			c2.8,1,5.7,1.8,8.2,3.4c2.9,1.8,4.8,1.4,7.2-0.9c5.5-5.4,11.1-10.8,16.6-16.2c2.3-2.3,4.8-4.4,3.1-8.1c-5.2-11.4-9.5-23-15.2-34.2
			c-2.9-5.6-3.9-11.1-0.6-16.8c2-3.6,3.9-7.4,4.7-11.2c1.4-6.3,6.6-9.2,13.4-11.6c5-1.7,9.9-3.7,14.6-5.8c6.4-2.9,13-5.5,19.3-8.5
			c2.3-1.1,3.3-2.1,3.2-4.1C770.3,218.9,770.4,214.4,770.4,209.8z"/>
		<g>
			<path class="st1" d="M417.4,193.1c2.3-3,7.7-4.6,11-6.1c5.6-2.6,11.3-5,17.1-7.3c9.7-3.8,22-6.1,26.2-16.7
				c1.8-4.6,4.5-9.5,5.4-14.3c1.1-6-3.1-12.5-5.5-17.8c-4.6-10.1-9.5-20.1-12.9-30.7c-0.2-0.5-1.1-4.2-1.3-3.4
				c0.4-1.7,4-3.9,5.2-5.2c4.6-4.5,9.1-9,13.6-13.6c1.9-1.9,6.5-7.8,8.1-8.3c1.3-0.4,4.2,1.4,5.4,1.8c2.9,1,5.8,2,8.7,3
				c10.4,3.7,20.4,9.3,30.9,12.7c5.7,1.8,10.8,0.6,16.1-1.8c4.5-2,10-3.5,13.4-7.2c3.7-4,4.9-10,6.8-15c2.3-6.1,4.5-12.2,7-18.2
				c2-4.8,3.8-9.9,6.6-14.3c0.4-0.6,0.8-1.4,1.3-1.9c-1.2,1.1-1.3,0.1,0.2,0.5c3.2,0.8,7.7,0,10.9,0c6,0,11.9,0,17.9,0
				c2.5,0,5.8-0.5,8.2,0c0.1,0-1-1.3-0.3,0.2c0.8,1.6,1.9,3,2.8,4.5c5.3,9.5,9.3,20.1,13.2,30.2c1.9,4.9,3,10.7,7,14.4
				c3.5,3.2,8.3,4.5,12.5,6.3c5,2.1,9.6,3.9,15.1,2.4c5.5-1.4,10.7-4.6,15.8-7c5-2.3,10.1-4.4,15.2-6.5c2.8-1.2,5.5-2.4,8.3-3.5
				c1.7-0.7,4.5-2.2,6.5-1.6c1.7,0.5,6.5,6.4,8.4,8.4c4.3,4.3,8.6,8.7,13,13.1c1.5,1.5,4.5,3.5,5.4,5.5c-0.3-0.7,0.7-2.8-0.5,0.9
				c-0.5,1.7-0.9,3.4-1.5,5.2c-1.9,5.9-4.2,11.7-6.6,17.4c-2.4,5.7-4.7,11.3-7.2,17c-1.3,3-2.9,5.9-3,9.2c-0.2,3.7,1.3,6.6,2.8,9.9
				c2.5,5.1,3,10.6,7.6,14.5s11.3,5.5,16.9,7.5c6.1,2.2,12.3,4.5,18.3,7c2.6,1.1,5.2,2.2,7.8,3.5c1.9,0.9,5.2,2,6.5,3.8
				c-0.4-1.5-0.8-3-1.2-4.5c0,15.2,0,30.4,0,45.6c0.9-2.1,1.8-4.2,2.6-6.4c-3.1,3.4-7.1,5.2-11.2,7.1c-5.2,2.4-10.4,4.8-15.7,7
				c-9.3,3.8-22.2,6.2-27.6,15.5c-2.2,3.7-3.5,8.2-5.2,12.2c-2.9,6.9-0.3,12.2,2.6,18.5c4.8,10.9,10.3,21.7,14.4,32.9
				c1.2,3.2,1.3,4.7-0.9,7.4c-3.8,4.5-8.8,8.3-13,12.4c-2,2-3.9,3.9-5.9,5.9c-1.5,1.5-3.9,5.2-5.9,5.9c-0.7,0.2,0.2,0.2,0.2,0.1
				c0.9-0.2-4.6-1.4-2.1-0.7c-2.8-0.8-5.6-1.6-8.4-2.6c-10.3-3.6-20.6-7.9-30.6-12.4c-5.9-2.7-10.3-4.2-16.5-1.5
				c-5,2.2-12,4.2-16,7.9c-3.8,3.4-5.1,8.9-6.9,13.5c-2.2,5.8-4.3,11.6-6.6,17.4c-2,5-4,10.1-6.5,14.9c-0.4,0.8-1.4,2.1-1.7,3
				c-0.3,0.5-0.7,1-1,1.5c2.2-0.8,2.5-1.1,0.9-0.9c-2.4-1-7.8,0-10.5,0c-5.7,0-11.4,0-17.2,0c-2.9,0-5.7,0-8.6,0c-0.3,0-0.6,0-1,0
				c-2.1-0.2-2.5-0.1-1.1,0.3c0.3,0.3,0.6,0.6,1,0.9c-0.6-0.8-1.1-1.6-1.6-2.5c-5.8-9.5-9.6-20.2-13.8-30.5
				c-2-4.9-3.4-10.8-6.3-15.2c-3.1-4.8-9.7-6.3-14.7-8.4c-5.1-2.2-9.4-4.6-15-2.6s-10.9,5.3-16.4,7.6c-5,2.1-10.1,4.2-15.1,6.4
				c-2.4,1-4.8,2-7.2,3c-1.7,0.7-4.6,2.6-6.6,2.2c-1.7-0.4-3.5-3.3-4.7-4.5c-2.1-2.2-4.2-4.4-6.4-6.6c-4.1-4.2-8.2-8.3-12.4-12.3
				c-4.4-4.1-3.7-4.4-1.7-10.2c2.2-6.5,4.7-12.9,7.4-19.3c2.6-6.2,5.8-12.4,8-18.8c2.3-6.7,0-11.6-2.6-17.7
				c-2.6-6.2-3.6-11.4-10.3-14.4c-5.9-2.7-12.1-4.6-18.2-6.9c-6.1-2.3-12.2-4.5-18-7.2c-2.6-1.2-5.5-2.3-7.8-3.9
				c-2.3-1.7-4.2-3.4-7.1-4.6c2.2,2.9,4.4,5.8,6.6,8.7c0.1-15.4,0.1-30.8,0.1-46.1c0-11.6-18-11.6-18,0c0,15.4,0,30.8-0.1,46.1
				c0,4.3,2.9,7.2,6.6,8.7c0.4,0.2,0.8,0.3,1.2,0.5c-1.3-0.8-2.6-1.5-4-2.3c7.9,7.6,19.4,11.3,29.5,15.2c5.3,2,10.7,4,16,6
				c1.2,0.5,4.6,1.1,5.4,1.9c-1.3-1.4,0.2,2,0.3,2.4c0.7,1.9,1.5,3.7,2.3,5.6c1.2,2.5,1.3,1.8,0.3,4.2c-1.2,2.8-2.4,5.7-3.6,8.5
				c-2.6,6-5.2,12-7.6,18.1c-3.8,9.5-9.5,21.3-3.9,31.3c2.6,4.6,7.2,8,10.9,11.7c4.4,4.3,8.6,8.7,12.9,13.1
				c3.8,3.9,7.5,8.3,12.8,10.1c6,2.1,11.6,0.5,17.2-1.8c11-4.6,22.1-9,33-14c1.3-0.6,2.6-1.2,3.9-1.9c0.3-0.1,0.5-0.3,0.8-0.4
				c2.3-0.8,2-1.2-0.6-1.1c0.7-0.5,6,2.6,7,3c1.3,0.5,2.5,1.1,3.8,1.6c0.4,0.2,0.7,0.3,1.1,0.5c1.8,0.9,1.6,0.4-0.5-1.3
				c0,0,3.1,7.9,3.4,8.5c4.3,10.6,8.4,21.6,13.7,31.8c2.3,4.4,4.9,9.6,9.3,12.4c5.1,3.3,11.5,2.5,17.3,2.5c6,0,12.1,0,18.1,0
				c5.7,0,12.3,0.9,17.8-0.6c11.2-3,15.8-19.9,19.6-29.3c2.1-5.2,4-10.4,5.9-15.7c0.9-2.5,2.4-5.2,3-7.8c0.5-2.4,1.1-0.5-0.5-0.2
				c1.8-0.3,3.8-1.6,5.4-2.3c1.1-0.5,2.1-1,3.2-1.5c0.2-0.1,5-1.6,2.4-1.5c-2.5,0.1,2.1,1.3,2.4,1.5c1.1,0.5,2.2,1,3.3,1.4
				c5.6,2.4,11.4,4.7,17,7c4.8,2,9.6,4,14.5,5.6c5.3,1.8,11.5,4,17.2,2.9c4.8-1,8.1-4.2,11.5-7.6c4.4-4.4,8.7-8.8,13.1-13
				c7.5-7.3,16.3-14,16.2-25.5c-0.1-5.7-2.8-11-4.9-16.1c-2.5-5.9-5.1-11.8-7.7-17.7c-1.2-2.6-2.4-5.2-3.5-7.9
				c-0.5-1.2-1-2.3-1.6-3.5c-0.4-1-1.5-5.8-1.9-1.9c0.2-2.1,2.1-4.7,2.9-6.7c0.6-1.5,1-3.5,2-4.3c3.1-2.8,9.3-4,13.1-5.5
				c5.8-2.3,11.7-4.7,17.4-7.4c4.4-2,9-3.9,13.1-6.5c5.8-3.6,10.1-7.5,10.4-14.6c0.4-12.5,0-25.1,0-37.7c0-3.1,0.5-6.6-0.8-9.4
				c-1-2.4-2.9-4.4-4.9-6.1c-4.4-3.7-9.8-5.9-15-8.1c-5.3-2.3-10.6-4.4-16-6.4c-2.9-1.1-5.9-2.2-8.8-3.2c-2.6-0.9-6.2-1.5-8.4-3.1
				c0,0-1.2-0.7-0.5,0c0.9,0.9-0.7-2.8-0.7-2.8c-0.7-2.1-1.5-4.9-2.9-6.8c-0.2-0.5-0.5-1-0.7-1.5c-0.3,2-0.1,2,0.6-0.1
				c0.6-0.9,1-2.3,1.4-3.2c1.2-2.9,2.4-5.8,3.6-8.6c4.4-10.7,9.7-21.5,12.3-32.8c2.9-13.1-6.9-20.1-15.2-28.5
				c-4.3-4.4-8.6-8.7-13-13s-8-7.6-14.4-8.1c-10.9-0.9-22,6.1-31.7,10.3c-5.1,2.2-10.1,4.5-15.1,6.9c-1.1,0.5-2.2,1-3.3,1.5
				c-0.4,0.2-2.5,0.7-1.4,0.6c-0.7,0-4.9-2.1-6.7-2.9c-1-0.4-3.7-1.2-4.1-1.7c0.7,0.7-1.3-4.5-1.6-5.2c-2.3-5.9-4.8-11.7-7.3-17.5
				C640,33.6,636,19.8,627.1,14c-4.7-3-10.1-2.7-15.5-2.7c-6.6,0-13.3,0-19.9,0c-5.7,0-12.1-0.9-17.6,0.9
				c-5.6,1.8-9.1,6.7-11.8,11.6c-5.7,10.6-9.7,22.4-13.9,33.7c-1,2.7-2.3,5.4-3,8.2c-0.5,1.9,1.1-0.5,0.2,0
				c-1.3,0.6-2.7,1.2-4.1,1.7c-1.7,0.7-3.5,1.9-5.3,2.3c-2.6,0.7-5.1-1.2-7.7-2.3c-10.5-4.5-21.1-8.9-31.9-12.6
				c-4.4-1.5-8.9-3.4-13.7-3.2c-6.1,0.3-10.2,4-14.2,8.1c-8.3,8.3-17.9,16.2-25.2,25.4c-7.8,9.7-2.3,21.2,1.9,31.3
				c4.4,10.7,10.7,21.2,14.1,32.2c0-1.6,0-3.2,0-4.8c-0.5,3.2-2.4,6.4-3.6,9.5c-0.5,1.1-0.9,2.3-1.3,3.5c0.1-0.2,1.4-0.5-0.4,0.1
				c-6.1,1.9-12.2,4.8-18.1,7.2c-12,4.9-26.3,9.3-34.4,19.9c-3,3.9-0.6,10.1,3.2,12.3C409.7,199.1,414.4,197,417.4,193.1z"/>
			<path class="st1" d="M779.4,209.8c0-5.6,1.1-12.4-0.5-17.8c-1.8-6.2-7.4-7.9-12.8-10c-10.8-4.1-21.7-8.4-32.4-12.8
				c-4.5-1.8-4.3-2.7-6.1-7.3c-1.7-4.1-6.4-11.1-5.4-15.3c1.3-5.6,4.8-11.5,7.1-16.9c2.3-5.6,4.6-11.3,6.8-17
				c2.1-5.4,4.8-10.7,2.4-16.6c-2.1-5.2-7.6-9-11.5-12.8c-4.1-4-7.9-8.9-12.5-12.3c-5.3-3.9-10.4-2.6-15.9-0.1
				c-10.4,4.7-21.1,8.9-31.5,13.7c-1.5,0.7-2.9,1.3-4.4,2c-1.2,0.5-4,0.6-1.6,0.9c-2.6-0.3-5.6-2.3-8-3.3c-3.5-1.4-9.7-2.7-12.2-5.9
				c-2.7-3.4-3.9-9.7-5.5-13.8c-2.3-5.7-4.8-11.4-7.3-17.1c-2.2-4.9-3.9-11.3-8.2-14.7c-4.6-3.6-10.8-2.7-16.3-2.7
				c-6.1,0-12.2-0.1-18.3-0.1c-5.7,0-10.1,1.8-12.9,7c-2.9,5.2-4.8,11.4-7.1,16.9c-2.2,5.5-4.4,11.1-6.4,16.6
				c-1.3,3.5-1.7,7.5-5,9.5c-4.4,2.7-9.9,4.2-14.6,6.3c0.2-0.1-5.3,2-2.7,1.6c2.2-0.4-2.3-1.1-3-1.3c-2.2-0.8-4.3-1.7-6.4-2.7
				c-5.3-2.4-10.7-4.6-16.2-6.7c-5.4-2.1-10.9-3.9-16.2-6.1c-6.2-2.5-10.1-1.9-15.1,2.9c-4.4,4.3-8.7,8.7-13.1,12.9
				c-4.2,4.1-9.3,8-9.7,14.4c-0.3,5.7,3,11.2,5.1,16.3c2.4,5.6,4.9,11.3,7.4,16.9c1.7,3.7,6.2,10.8,5.9,14.2c-0.2,2.4-2.1,5.3-3,7.5
				c-1.2,2.8-2.2,5.7-3.4,8.5c-1.7,3.9-2.5,3.4-6.8,5.3c-5.6,2.3-11.1,4.7-16.7,7c-5.7,2.4-11.4,4.9-17,7.3c-4.6,2-8.5,5-10,10
				c-1.6,5.3-0.3,12-0.3,17.5s-1.2,12.1,0.5,17.4c1.9,5.8,7.1,7.8,12.4,9.7c5.4,1.9,10.5,4.4,15.8,6.5c5.5,2.2,11,4.2,16.5,6.2
				c1.3,0.5,3.3,0.8,4.3,1.6c0.5,0.4,0.4,0.7-0.3-0.2c1.6,2.2,2.5,5.5,3.5,8c1.8,4.3,5.7,9.9,3.9,14.4c-2.3,5.9-4.9,11.6-7.3,17.4
				c-2.4,5.7-4.6,11.4-6.8,17.2c-2.1,5.6-4.6,10.9-0.9,16.4c3.2,4.8,8.6,8.8,12.6,12.8c3.8,3.8,7.8,9.4,12.5,12
				c5.8,3.2,11.3-0.4,16.7-2.8c5.2-2.3,10.6-4.4,15.8-6.6c4.9-2.1,9.9-4.2,14.7-6.6c5-2.5,4.8-2.1,10.1,0.3c2.8,1.3,5.7,2.5,8.7,3.6
				c1.5,0.6,3.8,0.9,4.9,2c2.6,2.6,3.9,8.9,5.3,12.4c2.4,5.8,4.8,11.5,7.3,17.2c2.2,5,4,11.9,7.8,15.9c3.9,4.2,9.3,3.9,14.6,3.8
				c6.3,0,12.5,0,18.8,0c5.9,0,11.6-0.2,14.9-6c3-5.2,4.9-11.4,7.1-17c2.3-5.7,4.5-11.4,6.6-17.1c1-2.7,1.9-5.5,3-8.1
				c0.3-0.6,0.4-1.4,0.9-2c-1.1,1.3,1.6-0.2,2.1-0.4c5.1-2,10.5-5.4,15.8-6.7c4-0.9,9.1,2.7,12.7,4.3c5.5,2.4,11,4.6,16.6,6.8
				c4.6,1.8,9.3,4.3,13.9,5.8c5.9,1.9,10.9-0.6,15.2-4.6c4.4-4.2,8.8-8.5,13.1-12.8c3.8-3.8,8.2-7.5,8.8-13.2
				c0.7-6-3.1-11.8-5.4-17.1c-2.3-5.4-4.6-10.9-7-16.3c-1.8-4.1-6.4-10.1-5.8-14.8c0.3-2.4,2.3-4.8,3.2-6.9c1.2-2.5,2.2-5.1,3-7.8
				c0.9-3.4,2.6-4.2,5.9-5.6c10.8-4.5,21.6-8.6,32.3-13.4c5.1-2.3,10.6-4.5,12.3-10.3C780.4,222.1,779.4,215.3,779.4,209.8
				c0-11.6-18-11.6-18,0c0,3.6,0.8,11-0.1,13.2c0.8-1.3,1.5-2.6,2.3-4c-1.6,2-8.3,4.1-11.5,5.4c-4.9,2.1-9.7,4.4-14.7,6.3
				c-8.1,3.2-17.1,5.2-22.6,12.6c-2.7,3.6-3.3,7.5-4.8,11.5c-2,5.1-5.2,9.2-5.7,14.9c-1.1,10.7,5.9,20.5,10,29.9
				c2,4.6,3.9,9.2,5.9,13.8c0.5,1.1,0.9,2.5,1.5,3.4c0.1,0.3,0.3,0.6,0.4,0.9c0.6,1.9,1.1,1.1,1.4-2.2c-0.4-0.1-5,5-5.4,5.4
				c-3.4,3.4-6.9,6.7-10.4,10.1c0.2-0.2-2.8,2.6-2.7,2.7c1.2-0.2,2.5-0.3,3.7-0.5c-0.4-0.2-0.9-0.5-1.3-0.7
				c-2.1-1.5-5.2-2.2-7.7-3.1c-9.3-3.4-18.3-7.5-27.5-11.3c-4.6-1.9-8.7-3.4-13.8-2.7c-5.1,0.8-9.9,3.5-14.6,5.5
				c-4.9,2.1-10.8,3.3-14.7,7.2c-4,4-5.4,9.8-7.3,15c-2,5.4-4.1,10.8-6.2,16.2c-1.2,3-2.4,6-3.6,9c-0.7,1.6-2,6-2.7,6.6
				c1.3-0.8,2.6-1.5,4-2.3c-2.1,0.7-6.9,0.1-9.7,0c-4,0-7.9,0-11.9,0c-0.4,0-5.7-0.4-5.9,0c3.6,3.2,4.8,3.6,3.6,1.5
				c-0.4-0.9-0.8-1.8-1.2-2.6c-1.6-3.5-3.1-7.1-4.7-10.6c-3-6.9-5.9-13.9-8.7-20.9c-2.5-6.3-4.9-11.6-11.2-14.9
				c-3-1.7-6.5-2.5-9.7-3.8c-3-1.2-5.8-2.8-8.7-4.1c-6.9-3.1-13.6-2.1-20.1,1.4c-5.6,3-11.6,5.6-17.5,8c-6.5,2.7-13,6.2-19.7,8.4
				c1.6,0,3.2,0,4.8,0c1.3,0.4,1.1,0-0.5-1.2c-0.9-0.9-1.7-1.8-2.6-2.6c-1.7-1.8-3.5-3.5-5.2-5.2c-3-3-7.5-6.1-9.9-9.6
				c0.4,1.5,0.8,3,1.2,4.5c-0.3-2.5,4-10.7,5.4-14.2c2.1-5.3,4.3-10.6,6.5-15.9c2.1-5,5.2-10.2,5.8-15.7c0.7-6.2-2.2-11.5-4.5-17.2
				c-1.9-4.8-3.7-10.1-6.3-14.5c-2.9-4.8-7.7-6.6-12.7-8.5c-10.3-3.9-20.5-8.1-30.7-12.1c-1.1-0.4-2.2-0.8-3.3-1.2
				c-0.3-0.1-0.6-0.2-0.8-0.3c-2.9-1.4-2.6-0.3,0.8,3.3c0.6-0.3,0.2-6.9,0.2-7.9c0-1.7,0.1-17.7-0.2-17.6c-0.2,0.4-0.4,0.9-0.5,1.3
				c-1.2,1.1-1.3,1.3-0.4,0.8c0.5,0.1,2.1-1,2.6-1.2c2.7-1.2,5.4-2.3,8.1-3.5c5.3-2.3,10.5-4.5,15.8-6.7c8.9-3.6,18.6-5.8,22.9-15.3
				c2.1-4.6,3.8-9.5,5.8-14.2c2.2-5.3,4.4-10.2,3-16c-1.5-6.1-5-12.1-7.6-17.8c-2.6-5.9-5.2-11.8-7.8-17.7c-0.6-1.4-1.2-2.7-1.7-4.1
				c-0.2-0.6-0.5-1.2-0.7-1.8c-0.4-1.9-0.6-1.8-0.6,0.2c-0.1,0.5-0.1,1-0.2,1.5c0.9-0.9,1.9-1.8,2.8-2.7c1.2-1.1,2.3-2.2,3.5-3.4
				c4.6-4.5,9-9.5,13.9-13.6c-2.1,0.9-4.2,1.8-6.4,2.6c-1.9,0,0.6,0.6,0.9,0.8c1,0.5,2.3,0.9,3.4,1.3c2.3,0.9,4.6,1.7,6.9,2.5
				c4.9,1.8,9.8,3.6,14.6,5.7c8.7,3.7,18.5,10.6,28.1,6.9c4.5-1.7,8.8-3.9,13.3-5.7c4.4-1.7,8.7-3.5,12.2-6.8
				c6.7-6.3,8.5-17.1,11.8-25.4c1.8-4.7,3.7-9.3,5.6-14c0.3-0.7,3.1-6.1,2.8-6.5c-1.2,0.6-2.4,1.3-3.6,1.9c0.6,0,1.3,0,1.9,0
				c1.8,0.2,4,0,5.8,0.1c5.1,0,10.3,0,15.4,0c0.5,0,3.8-0.1,3.8,0c-0.6-0.3-1.2-0.7-1.7-1c-2-1.6-2.3-1.3-0.9,0.7
				c0.4,2.5,2.5,5.5,3.6,7.9c4.1,9.3,7.7,18.8,11.5,28.2c4,9.7,12.8,12.9,21.9,16.6c5.4,2.2,11.1,5.8,17.1,5.1
				c5.7-0.7,11.8-4.7,17-7c4.9-2.2,9.6-4.6,14.6-6.6c2.9-1.1,5.8-2.2,8.6-3.4c2-0.9,4.2-2.2,6.4-2.5c-1.6,0-3.2,0-4.8,0
				c-1-0.8-1.1-0.8-0.2,0.1c0.6,0.7,1.3,1.3,1.9,2c1.3,1.3,2.6,2.7,3.9,4c2.4,2.4,4.9,4.8,7.4,7.2c1.2,1.1,2.6,3.2,4.1,3.9
				c1.3,1.5,1.3,0.7-0.3-2.6c-0.2,0.6-0.5,1.2-0.7,1.8c-2,2.7-2.9,7.6-4.2,10.8c-2.7,6.9-5.6,13.7-8.4,20.5
				c-3.2,7.7-6,13.9-2.6,22.1c2.7,6.3,4.9,12.8,7.8,19c2.8,5.9,8,8.6,13.8,11c6.1,2.5,12.3,4.6,18.4,6.9c3.5,1.3,6.8,2.9,10.3,4.3
				c2,0.8,7.2,2.3,7.8,3.1c-0.8-1.3-1.5-2.6-2.3-4c0.7,2.1,0,9.7,0,13.5C761.4,221.4,779.4,221.4,779.4,209.8z"/>
		</g>
	</g>
	<g>
		<path class="st1" d="M662,210.5c-0.2,16.7-6,32-19.1,45.3c-4.6,4.6-10.2,8.5-16.7,11.6c-5.6,2.7-11.6,4.2-17.8,5.5
			c-5.1,1-10.2,1.4-15.1,0.7c-9.1-1.2-17.8-3.7-25.6-8.2c-30.9-17.5-38-53.3-27.8-78.3c4.6-11.2,11.9-21.1,23.1-28.8
			c5.7-3.9,12.2-7.1,19.9-9c8.5-2.1,16.9-2.7,25.3-1.4c8.4,1.3,16,4,22.9,8.3c6,3.7,11,7.9,15.3,12.8c6.1,6.8,10.1,14.3,12.7,22.3
			C660.9,197.7,661.9,204.1,662,210.5z M649.3,206.8c-0.7-12.4-6.3-27-22.6-38.1c-6.2-4.3-13.2-6.8-20.9-8.1
			c-6.3-1-12.5-0.5-18.9,0.9c-7.8,1.8-14.1,5.1-19.6,9.3c-9,7-14.9,15.7-17.3,25.4c-5.1,20.5-1.1,39.2,18.5,54.7
			c7.8,6.2,17.3,9.2,27.8,10.3c6.7,0.7,13.1-1.1,19.4-3.2c9.3-3,16.1-8.3,21.5-14.5C645.6,233.7,649.5,222.5,649.3,206.8z"/>
		<g>
			<path class="st1" d="M641,210.5c0,1.6-0.2,3.1-0.2,4.7c-0.1,5.2,1-4.6,0,0.5c-0.5,2.5-1,5-1.7,7.4c-0.3,1-0.7,3.6-1.5,4.3
				c0.3-0.7,0.6-1.5,1-2.2c-0.4,0.9-0.9,1.9-1.3,2.8c-1.4,2.9-3.2,5.5-4.9,8.2c-2.9,4.4,3-2.9-0.8,1c-0.8,0.8-1.5,1.7-2.3,2.5
				c-1.2,1.2-2.4,2.3-3.6,3.5c-3.7,3.8,3.5-2.1-1,0.9c-2.4,1.6-5,2.9-7.4,4.4c-4.8,2.9,3.9-1.1-1.2,0.6c-1.6,0.5-3.2,1.1-4.8,1.6
				c-3.4,1-6.8,1.8-10.3,2.4c3.9-0.7,0.7-0.1-0.1-0.1c-1.6,0-4.2,0.5-5.6-0.1c0.7,0.1,1.4,0.2,2,0.3c-1.1-0.2-2.3-0.4-3.4-0.6
				c-1.4-0.3-2.8-0.6-4.1-0.9c-1.4-0.3-2.7-0.7-4.1-1.1c-1.1-0.3-7.9-1.9-2.8-0.9c-2.2-0.4-5.1-2.6-7-3.8c-0.7-0.4-3.3-1.7-3.6-2.4
				c0.7,0.5,1.3,1,2,1.6c-0.7-0.6-1.5-1.2-2.2-1.8c-1.7-1.5-3.4-3.1-4.9-4.8c-0.2-0.2-2.6-3.1-2.6-3.1c1.8,2.3,2.2,2.9,1.3,1.6
				c-0.4-0.5-0.8-1.1-1.1-1.6c-1.5-2.2-2.8-4.4-3.9-6.7c-0.1-0.2-0.8-2.1-1.1-2.3c0.4,0.9,0.7,1.8,1.1,2.7c-0.3-0.8-0.6-1.6-0.9-2.4
				c-0.8-2.2-1.4-4.4-2-6.6c-0.2-1-0.5-2-0.7-3c-0.2-0.8-0.3-1.6-0.4-2.4c0.4,3.5,0.5,4.2,0.3,1.9c-0.3-4.3,0-8.5,0-12.7
				c0-2.9-1,5.6-0.2,1.5c0.2-1.2,0.4-2.3,0.7-3.5c0.5-2.3,1.2-4.5,2-6.7c0.1-0.4,0.3-0.7,0.4-1.1c0.7-1.8,0.6-1.4-0.5,1.2
				c0-1.1,1.5-3.1,2-4.1c1.2-2.2,2.6-4.3,4-6.4c2.8-4.3-3,3.2,0.5-0.6c0.7-0.8,1.4-1.6,2.1-2.3c1.1-1.1,2.3-2.3,3.4-3.3
				c0.8-0.7,1.6-1.4,2.5-2.1c-2.1,1.6-2.2,1.7-0.2,0.3c2.3-1.5,4.5-2.9,7-4.2c1-0.5,5-3.4,1.1-0.6c1-0.7,2.9-1,4.1-1.4
				c1.5-0.4,2.9-0.8,4.4-1.1c0.7-0.2,6.7-1,1.7-0.5c3.7-0.4,7.2-0.3,10.8-0.3c5.6-0.1-3.7-1,1.5,0.1c1.9,0.4,3.8,0.8,5.7,1.3
				c1.3,0.4,2.6,0.8,3.9,1.2c2.2,0.8,2,0.7-0.5-0.3c1,0.4,2,0.9,2.9,1.4c2.7,1.4,6.5,3,8.5,5.3c-3.1-3.6,0.2,0.2,1,0.9
				c1.2,1.1,2.4,2.2,3.6,3.4c1.2,1.2,2.2,2.4,3.4,3.7c1.5,1.8,1.4,1.7-0.2-0.3c0.6,0.9,1.2,1.8,1.8,2.7s1.1,1.8,1.6,2.8
				c0.5,0.9,4.1,7.1,1.3,2.1c1.6,2.7,2.3,6.5,2.9,9.6c0.2,0.8,1.6,6.5,0.4,1.3C641.1,205.7,640.9,208.3,641,210.5
				c0.2,11,9.5,21.5,21,21c11.2-0.5,21.3-9.2,21-21c-0.4-19.4-6.6-37.1-18.5-52.3c-10.8-13.7-26.5-24.3-43.4-28.9
				c-36.4-9.9-76.6,6.3-95.3,39.2c-14.4,25.1-14.4,55.7-1.4,81.3c15.7,31.2,52.6,49.3,86.8,43.9c41.4-6.6,70.8-41.7,71.9-83.2
				c0.3-11-9.9-21.5-21-21C650.4,190.1,641.3,198.8,641,210.5z"/>
			<path class="st1" d="M670.3,206.8c-2.1-29.5-20.8-53.7-48.6-63.8c-30.8-11.2-65.7,2.4-83.6,28.9c-14.6,21.6-15,54.3-0.6,76
				c17.4,26.3,49.5,40.6,80.4,31.5c16.7-4.9,30.1-14.5,40.1-28.6C667,238,670.3,222.2,670.3,206.8c0-11-9.7-21.5-21-21
				c-11.4,0.5-21,9.2-21,21c0,2.5-0.1,5-0.3,7.5c0,0.3,0,0.5-0.1,0.8c-0.3,2.4-0.2,2.1,0.1-1c0.2,0.3-0.6,2.8-0.6,2.9
				c-0.4,1.9-1,3.6-1.6,5.5c-1.2,4,0.4-1.3,0.6-1.2c0.2,0.2-1.6,3.2-1.9,3.7c-0.5,0.8-0.9,1.6-1.4,2.4c-0.2,0.3-2.8,4.2-0.8,1.3
				c1.7-2.5-0.1,0-0.6,0.6c-0.8,0.9-1.6,1.8-2.5,2.7c-0.7,0.7-1.4,1.3-2.2,2c-2.3,2.2,0.2-0.8,0.7-0.5c-0.2-0.1-6,3.7-6.7,4
				c-3.9,2,0.4-0.1,0.5-0.2c-0.2,0.3-2.8,0.9-3.3,1.1c-2.6,0.8-5.2,1.3-7.8,2c-2.8,0.8,4.5,0.4-0.6,0c-1.2-0.1-2.5-0.1-3.6-0.1
				c-3.5-0.2,0.7,0.1,0.7,0.1c-0.1,0.2-4.5-0.9-4.7-1c-1.6-0.4-4.8-0.7-6-1.9c1.8,1.8,2.6,1.3,0.7,0.3c-1.1-0.6-2.3-1.2-3.4-1.9
				c-1-0.6-2.4-1.3-3.2-2.1c0.5,0.5,3.3,2.9,0.4,0.2c-2-1.8-3.9-3.7-5.7-5.6c-1.5-1.5-0.5-2,0.4,0.7c-0.2-0.7-1.2-1.7-1.7-2.4
				c-1.2-1.8-2.1-3.6-3.1-5.5c-1.4-2.4,1.3,3.9,0.5,1.3c-0.3-1.1-0.7-2.1-1.1-3.2c-0.2-0.9-0.5-1.7-0.7-2.6
				c-0.1-0.4-0.2-0.9-0.3-1.3c-0.4-2.3-0.3-1.7,0.2,1.6c0.5-0.8-0.3-4.3-0.3-5.4c0-1.8,0.2-3.7,0.3-5.5c0.3-4.7-0.8,3.7-0.1,0.7
				c0.2-0.9,0.4-1.9,0.6-2.8c0.3-1.2,0.5-2.4,0.9-3.6c0.2-0.6,1.3-4.8,0.4-1.7c-0.9,3.1,0.6-1.1,0.9-1.6c0.5-0.9,1-1.8,1.5-2.6
				c0.3-0.4,1.5-2.6,1.7-2.6c-0.3,0-2.5,2.9-0.3,0.6c1.7-1.8,3.5-3.4,5.3-5.1c2.3-2.2-3.9,2.4,0.1-0.1c1.1-0.7,2.1-1.4,3.2-2
				c1.1-0.6,2.2-1.2,3.4-1.8c1.9-1,1.1-1.5-0.7,0.3c1.2-1.2,4.7-1.5,6.3-1.9c1.3-0.3,2.5-0.5,3.8-0.7c-4.2,0.7-0.1,0.1,1,0.1
				c1.2,0,2.6,0.2,3.8,0c1.5,0.1,1.3,0-0.9-0.3c0.8,0.1,1.6,0.3,2.5,0.5c2.7,0.6,5.2,1.5,7.8,2.2c2.8,0.8-3.1-1.7-0.6-0.3
				c1.4,0.8,2.8,1.5,4.2,2.3c0.9,0.6,1.8,1.3,2.7,1.8c1.2,0.9,1,0.7-0.8-0.7c0.6,0.5,1.3,1.1,1.9,1.6c2,1.8,3.7,3.7,5.5,5.6
				c2,2.1-2-3.2-0.6-0.8c0.7,1.2,1.6,2.3,2.2,3.6c0.4,0.8,0.9,1.6,1.3,2.4c2.2,4.2-0.5-1.9-0.1-0.2c0.5,2,1.3,3.9,1.7,6
				c0.2,0.8,0.3,1.6,0.5,2.4c0.3,1.4-0.5-5.5-0.2-0.4c0.8,10.9,9.1,21.5,21,21C660.1,227.3,671.1,218.5,670.3,206.8z"/>
		</g>
	</g>
	<path class="st2" d="M649.3,206.8c0.1,15.7-3.7,26.9-12.2,36.7c-5.4,6.3-12.2,11.5-21.5,14.5c-6.3,2-12.6,3.8-19.4,3.2
		c-10.5-1-20-4.1-27.8-10.3c-19.6-15.5-23.5-34.2-18.5-54.7c2.4-9.8,8.3-18.5,17.3-25.4c5.5-4.2,11.8-7.6,19.6-9.3
		c6.4-1.4,12.6-2,18.9-0.9c7.8,1.3,14.7,3.9,20.9,8.1C643.1,179.8,648.6,194.4,649.3,206.8z"/>
</g>
<g>
	<g>
		<path class="st1" d="M521.2,110.6c-11.6-5.5-23.6-4.8-33.8,3.1c-10,7.8-14.1,20-12.5,32.4c1.5,11.2,6.3,22.8,16,29.3
			c11.2,7.4,26.9,4.6,35.8-5.1c14.6-16,9.1-41.7,0-59.1c-8.4-16.1-25.6-33.1-45.5-27.9c-15.8,4.1-21.4,20.3-17.5,34.9
			c3,11.1,8.9,20.7,16.2,29.4c4.7,5.6,13.7,7.3,20.4,5.4c7.5-2.1,12.2-7.6,14.7-14.7c4.8-13.5,2.7-28.1-3.8-40.6
			c-7.9,10.3-15.8,20.6-23.7,30.8c17.3,7.1,35.7,10.6,54.4,11.5c1.1,0,2.1,0.1,3.2,0.1c-14-6.4-18.8-13.9-14.3-22.7
			c-0.4,0.8-0.9,1.6-1.4,2.4c0.6-0.7,1.1-1.4,1.7-2c0.3,1.5-5.9,5.9-7.1,6.8c-5.3,4.4-10.8,8.3-15.3,13.7
			c-9.4,11.3-15.2,23.9-21,37.2c-2.6,5.9-5.3,11.9-8.6,17.4c-0.8,1.4-1.7,2.7-2.5,4c-0.5,0.7-1,1.5-1.6,2.2c1.8-2.3,2.2-2.8,1.2-1.6
			c-2.3,2.5-4.6,4.9-7.3,7.1c11,1.4,22,2.8,33,4.3c-0.4-0.5-0.7-1-1-1.5c-0.8-1.4-0.5-0.7,0.9,2.3c0.1-0.4-0.5-4.8-0.5-0.7
			c0,3.8,0.2,0.1,0.1-0.8c0.1-1.7,0.1-1.6-0.2,0.4c-0.3,2-0.3,2.1,0,0.4c0.3-0.8,1.3-4.3,0.1-0.9c-1.4,4,0.6-0.6,0.6-0.7
			c-2,2.4-2.5,3.1-1.4,1.9c0.4-0.5,0.8-0.9,1.3-1.3c0,1-4.5,2.8-0.3,0.6c9.2-5,12.5-16.9,8.6-26.2c-3.9-9.2-14.7-15.4-24.8-12.2
			c-13.9,4.4-27.4,9.7-40.7,15.6c-6.6,2.9-13.3,5.6-18.7,10.5c-7.8,6.9-11.7,17.6-8.6,27.9c2.7,9,10.8,15.3,20.2,15.4
			c17.7,0.3,35.3-12.6,38.7-30.4c2.1-10.7-3-23.2-14.7-25.8c-11.2-2.5-22.6,3.4-25.8,14.7c-4.5,15.9,0.5,33.8,12.6,45.1
			c6.4,6,14,9.4,22.6,11.3c0.8,0.2,1.6,0.4,2.4,0.6c1.9,0.6,2.1,0.6,0.5,0c-1.1-0.3-2-1-2.7-1.9c1.6,1.7,1.4,1.4-0.5-0.8
			c0.2,0.4,0.5,0.9,0.7,1.3c-1-2.7-1.2-2.9-0.3-0.8c0.5,1.6,1,3.1,1.5,4.7c1.1,3.7,2.3,7.3,3.2,11c0.5,1.9,0.9,3.7,1.3,5.6
			c0.3,1.4,0.9,5.7,0.5,1.9c0.2,2.2,0.4,4.4,0.4,6.5c0,0.7-0.5,6.3-0.1,3.7c0.4-2.7-0.7,2.7-0.8,3.2c-0.5,1.8-1.1,3.6-1.7,5.4
			c-2.1,6.1-4.8,12-6.1,18.3c-2.3,11-1.1,20.5,3.5,30.8c3.6,8.1,15.6,12.3,23.7,9.7c9.3-3,14.6-10.6,15.4-20.2
			c0.4-5,0.9-9.9,1.4-14.9c0.3-2.5,0.6-4.9,0.9-7.4c-0.7,5,0.4-2.8,0.6-3.7c1.5-9.5,3.3-19,5.4-28.5c4.3-19.2,9.9-38,16.8-56.4
			c3.6-9.8-3.3-21-12.2-24.8c-10.3-4.3-19.9,0-26.2,8.6c-26.8,36.4-20.2,92.8,12.8,123.1c6.8,6.3,17.2,8.2,25.4,3.3
			c9.1-5.5,14.5-15.5,13.6-26.2c-0.7-8.6-4.1-15.8-8.3-23.2c-1.5-2.7-3-5.3-4.4-8c-0.8-1.5-1.5-2.9-2.3-4.4c-2.5-4.7,1.3,4-0.5-0.9
			c-0.5-1.5-1-3-1.4-4.5c-0.1-0.5-0.2-1-0.4-1.5c-0.4-2.4-0.4-2,0.1,1c0.1,0.1-0.7-5.7-0.2-1.8c-0.3,1.8-0.3,1.7,0.1-0.3
			c-1.6,2.9-1.8,3.5-0.6,1.7c-2.5,2.5-5,5-7.5,7.5c-2.4,0.7-4.7,1.3-7.1,2c-3.5-1-7.1-1.9-10.6-2.9c3.3,1.4-2.1-2.5,0.1-0.1
			c0,0-2.4-3.8-1.4-1.9c0.3,0.5,0.7,1,1,1.5c0.4,0.7,1,2.7,1.7,3.2c-0.1,0-1.5-4.2-0.9-2.2c0.2,0.8,0.6,1.5,0.8,2.3
			c1.7,5.2,2.6,10.7,3.7,16c2.4,12.5,6.4,25.3,15.9,34.3c5.8,5.5,12.7,8.9,20.3,11.5c2.6,0.9,5.2,1.6,7.8,2.4
			c1.2,0.3,2.4,0.7,3.5,1.1c0.6,0.2,1.1,0.4,1.7,0.6c2.8,0.8-1.2-0.3-1.7-0.8c0.7,0.6,2.1,1.2,3,1.6c3,1.5-3.1-3-0.9-0.6
			c0.2,0.3-3.1-3.8-1.6-2.1c0.2,0.3,0.6,1.3,0.8,1.5c-0.7-0.3-1-3.9-1-1.6c0,1,0.5,2.2,0.6,3.2c2,9.6,7.8,16.7,14.9,23.1
			c14.8,13.2,35.1,25.3,55.6,17.7c13.4-5,18.8-17.9,12.6-30.8c-5.5-11.5-10.9-23-16.5-34.4c-5.5-11.1-12.4-22.1-22.2-29.9
			c-20.4-16.2-45.3-19.3-70.5-20.7c-10.4-0.6-19.3,8.5-20.6,18.2c-1.4,10.2,4.9,20.3,15,23c39.7,10.6,79.3,21.3,119,31.9
			c10.2,2.7,20.7-2.6,24.8-12.2c4.2-10,0.1-20.2-8.6-26.2c-14-9.6-27.9-19.2-41.9-28.8c-1.7,12.8-3.3,25.6-5,38.4
			c2.1-0.8,4.2-1.2,6.3-1.9c2.4-0.4,2.1-0.5-0.8-0.1c1.1-0.1,2.2-0.2,3.3-0.3c2.2-0.1,4.4,0.1,6.6,0.1c2.4,0.2,2.2,0.2-0.6-0.2
			c1.1,0.2,2.2,0.4,3.3,0.6c4.4,0.9,8.6,2.3,12.9,3.8c2.2,0.9,2.1,0.8-0.3-0.2c1,0.5,2,0.9,3.1,1.4c1.8,0.9,3.5,1.8,5.2,2.7
			c16.2,9.1,30.4,21.3,46.7,30.4c5.4-12.8,10.8-25.6,16.2-38.4c2.8,1.2,3.1,1.3,1.1,0.2c0.6,0.5,1.3,1,1.9,1.5
			c-0.7-0.6-1.4-1.3-2-2.1c0.5,0.6,1,1.3,1.6,1.9c-0.9,0.1-2.2-4.8-0.3-0.2c-1.6-3.9,0.3,4.6,0-0.8c0.1-1.7,0-0.9-0.3,2.2
			c0.6-1.7,0.5-1.7-0.2-0.1c-0.8,1.6-0.7,1.7,0.1,0c1-1.5,0.9-1.6-0.1-0.1c-1.1,1.4-1.1,1.4,0.1,0c1.3-1.2,1.3-1.3-0.1-0.2
			c-1.4,1-1.4,1.1,0.1,0.1c2-1,1.6-0.9-1.3,0.4c7-2.5,12.6-7.2,14.7-14.7c1.9-7.1,0-15.3-5.4-20.4c-18.2-17.1-42.7-18.5-66.3-16.4
			c3.5,13,7.1,26.1,10.6,39.1c18.9-9.8,34.7-25.2,45.5-43.5c8-13.5-2.2-31.9-18.1-31.6c-8.6,0.2-17.3,1.6-25.3,4.8
			c8.9,6.7,17.7,13.5,26.6,20.2c-0.1-0.9-0.2-1.9-0.1-2.8c0.2-2.3,0.1-1.9-0.3,1.5c0.2-0.9,0.4-1.8,0.7-2.7
			c-1.3,2.8-1.5,3.2-0.4,1.2c0.4-0.8,0.9-1.6,1.5-2.4c-1.9,2.4-2.1,2.7-0.6,1c0.6-0.7,1.3-1.3,2-1.9c-2.4,1.8-2.7,2.1-0.8,0.9
			c2-1.1,1.6-1-1.3,0.3c0.9-0.3,1.7-0.6,2.6-0.8c2.3-0.5,1.8-0.4-1.4,0.2c1.2,0,2.4,0,3.6,0.1c-3.6-1-0.3,0.1,1.4,0.6
			c2.3,0.6,4.6,1.3,7,2c10,2.7,20.8,3.7,30.7,0c12.9-4.9,22.5-16.1,22.9-30.3c0.7-26.8-24.8-39-45.9-47.7
			c-9.3-3.8-19.2-7.4-29.4-6.6c-14.2,1.2-27.7,10.3-31,24.8c-2,8.8,1.2,19.3,9.7,23.7c7.9,4.2,19.2,3.9,25.4-3.3
			c12.5-14.4,19.3-31.8,22.7-50.5c1.6-9,2.8-18.1,4-27.2c0.6-4.5,1.2-9,1.9-13.4c1-7.3,2.7-14.8,0.6-22.1
			c-4-13.5-16.1-21.9-30.1-21.5c-8.6,0.3-15.9,3.9-24.1,5.8c-1.5,0.4-3.2,0.4-4.6,0.9c4-1.4,3.4-0.4,1.6-0.2
			c-0.9,0.1-1.8,0.2-2.7,0.2c-3.6,0.2-7.1,0-10.7-0.2c-3.7-0.2,1.3,0,1.6,0.3c-0.3-0.3-2.4-0.4-2.6-0.4c-1.5-0.3-3.1-0.6-4.6-1
			s-3-0.8-4.5-1.3c-0.9-0.3-1.7-0.6-2.5-0.9c-0.4-0.1-4.5-1.8-1.2-0.4c2.9,1.2,0.2,0-0.6-0.3c-1-0.5-2-1-3-1.5c-1.8-1-3.5-2-5.2-3.1
			s-5.7-5-1.7-1c-1.2-1.3-2.8-2.3-4.1-3.5c-1.5-1.4-2.9-2.8-4.2-4.3c-0.4-0.5-0.9-1-1.3-1.5c-3.1-3.4,2.6,3.9,0,0
			c-2.3-3.3-4.3-6.8-6.1-10.4c-4.7-10.1-19.8-13.1-28.7-7.5c-16.9,10.5-31.1,23.7-43,39.6c-8.3,11.1-15.6,24.3-7.2,37.8
			c6.8,11,20.1,13.1,31.6,16.4c19.8,5.6,39.7,11.1,59.5,16.7c9,2.5,18.1,4.8,27,7.6c1.2,0.4,4.5,0.9,5.3,1.9
			c-2.9-1.2-3.3-1.4-1.2-0.4c0.8,0.4,1.6,0.9,2.4,1.3c1.9,1.3,1.5,0.9-1-1c0.7,0.6,1.3,1.1,1.9,1.8c-1.9-2.6-2.2-3-0.9-1.2
			c1,2,0.9,1.5-0.5-1.4c12.8-5.4,25.6-10.8,38.4-16.2c1.9,4,0.3,0.6,0-0.5c-1.2-4.3-0.7-0.4-0.2-0.2c-0.1,0,0.1-5.5-0.2-2.2
			c-0.2,3.2,0.5-1.8,0.6-2.4c1.9-9.3,2.1-18.4-2.9-26.9c-7.6-12.9-22.3-17.1-35.7-21c-25.4-7.5-51.1-14.1-76.9-20.1
			c-8.3-1.9-16.8,0.7-22.1,7.5c-5.4,7-5.5,15.6-1.6,23.3c5,10,14.1,16.5,24.4,20.1c10.4,3.6,23.4-4.1,25.8-14.7
			c2.7-11.7-3.5-22-14.7-25.8c2.7,1.3,3,1.4,0.9,0.3c-1.9-1.3-1.7-1.1,0.7,0.6c-1.6-1.7-1.4-1.4,0.4,0.8c-0.5-0.8-1-1.7-1.4-2.6
			c-7.9,10.3-15.8,20.6-23.7,30.8c23.9,5.5,47.7,11.7,71.2,18.5c5.4,1.5,10.8,3,16.1,4.8c3.3,1.1,0.7,0.9-0.5-0.4
			c0.5,0.5,1.8,1,2.5,1.3c3.8,1.8-2.1-2-0.5-0.5c1.1,1.1,0.7,0.5-1.3-1.8c-0.4-0.9-0.7-1.8-1.1-2.7c-0.4-1.7,0.1-3,0.1-4.6
			c0,1.4-0.7,3-1,4.4c-0.8,3.7-1.4,7.7-1.4,11.5c0,8.4,2.4,16,5.9,23.6c4.4,9.4,17.4,12.3,26.2,8.6c9-3.8,15.7-14.9,12.2-24.8
			c-7-19.8-24.2-27.3-43.1-32.6c-17.9-5-35.9-10.1-53.8-15.1c-9-2.5-17.9-5-26.9-7.5c-2.6-0.7-5.1-1.4-7.7-2.2
			c-1-0.3-4.7-0.7-5.1-1.5c7.9,2.5,10.9,9.6,8.8,21.2c0.6-0.9,1.2-1.9,1.8-2.8c0.9-1.4,1.9-2.7,2.8-4.1c0.6-0.9,1.3-1.8,2-2.7
			c-1.6,2.1-1.7,2.2-0.2,0.4c1.1-1.3,2.1-2.5,3.2-3.8c2.6-2.9,5.3-5.7,8.1-8.3c2.8-2.6,5.7-5.3,8.8-7.6c-4.3,3.2,1.7-1.1,2.4-1.6
			c1.8-1.2,3.7-2.4,5.6-3.6c-9.6-2.5-19.2-5-28.7-7.5c13.8,29.3,44.4,46.9,75.8,50.1c7.9,0.8,15.8,0.1,23.6-1.2
			c6.4-1.1,12.3-3.8,18.6-5.3c0.8-0.2,3.9-0.8,0.5-0.2c-3.1,0.5-1,0.1-0.3,0.2c-6.2-0.4-3.4-0.8-2.1-0.3c-2.5-1.1-5.5-2.9-7.3-5
			c-1.5-1.7-2-10-2.6-6.5c-0.1,0.5,0.2,2-0.2,2.4c1.1-1.3,0.4-3,0-0.2c-0.2,1.3-0.4,2.6-0.5,3.8c-1.3,9.1-2.4,18.3-3.8,27.4
			c-1.2,8.3-2.7,16.7-5.1,24.8c-0.6,2-1.3,3.9-2,5.9c-1.3,3.7,0.3-0.2,0.4-0.7c-0.2,1.2-1.1,2.5-1.7,3.5c-0.9,1.8-2,3.6-3.1,5.3
			c-0.4,0.6-0.9,1.3-1.3,1.9c-2.9,4.3,2.8-3.3-0.6,0.6c11.7,6.8,23.4,13.6,35.1,20.4c0.6-2.2,0.3-1.8-0.7,1.2
			c-0.6,1.2-1.4,2.2-2.5,3c-0.9,0.9-2.1,1.5-3.5,1.7c2.2-0.6,1.8-0.6-1.2-0.1c4.3-0.3-3.4-1.4,1.1-0.1c1.7,0.5,3.3,0.9,4.9,1.4
			c3.5,1.2,7,2.5,10.5,3.9c-4.1-1.7,2,1,2.8,1.3c1.7,0.8,3.4,1.7,5.1,2.5c1.8,0.9,3.5,1.8,5.2,2.8c0.5,0.3,0.9,0.6,1.4,0.9
			c1.9,1.3,1.8,1.2-0.3-0.3c0.7,0,4.4,5.1,1,0.5c2.5,3.4-0.4-3.3,0.3,0.5c-0.5-1.8-0.5-3.5,0.2-5.3c-0.5,1.8-0.5,1.9,0.1,0.2
			c0.4-1.4,1.1-2.6,2.2-3.6c2.6-1.8,3.2-2.2,1.8-1.4s-0.7,0.5,2.2-0.7c-0.8,0.3-1.6,0.5-2.5,0.7c0.2-0.8,5.6-0.2,0.3-0.2
			c-0.7,0-1.3,0-2-0.1c-1.7-0.1-0.9,0,2.3,0.3c-1,0.5-4.1-0.9-5.3-1.3c-3.8-1-7.5-2.2-11.3-2.9c-10.8-2-20.5-1.1-30.5,3.5
			c-15.5,7.3-26.6,25.6-25.2,42.8c0.6,6.8,2.8,12.2,8.3,16.5c4.8,3.7,12.3,6.2,18.3,3.8c2.9-1.2,5.8-2,8.8-2.9
			c2-0.6,1.9-0.4-0.1-0.2c1.8-0.2,3.7-0.3,5.5-0.3c-6-10.5-12.1-21.1-18.1-31.6c-1.1,1.8-2.2,3.7-3.4,5.4c-0.7,1-3.9,6.9-1.5,2.2
			c-1.7,3.2-5.6,6.3-8.2,8.8c-1.4,1.3-2.8,2.5-4.2,3.7c-1.8,1.5-1.6,1.4,0.5-0.3c-0.9,0.6-1.7,1.3-2.6,1.9c-3.5,2.5-7.2,4.6-11,6.6
			c-7.9,4.1-12.4,15.3-9.7,23.7c2.7,8.3,10.9,16.3,20.2,15.4c8.5-0.8,16.9-1.2,25.5-0.5c3.1,0.2-0.4,0.4-1.2-0.2
			c0.6,0.4,2.1,0.4,2.9,0.6c1.9,0.4,3.7,1,5.5,1.6c2.9,0.9-0.6,0.2-1.1-0.5c0.3,0.5,2.5,1.3,3.1,1.7c0.6,0.4,3.4,1.6,0.8,0.4
			c-2.4-1.2,0.5,0.5,1.2,1.2c3.1-11.7,6.2-23.4,9.3-35.1c-16.8,6.1-28.2,20-29.1,38.1c-0.4,7.8,2.2,16.3,6.5,22.8
			c5.6,8.4,12.9,13.4,22.1,17.1c9.7,3.9,21.1-3.5,24.8-12.2c4-9.4,0.6-21.1-8.6-26.2c-17.7-9.9-33-23.7-51.1-32.8
			c-20.3-10.1-44.6-15.9-66.7-7.8c-8,2.9-13.9,8.7-15,17.5c-1.2,8.7,2.9,16,10,20.9c14,9.6,27.9,19.2,41.9,28.8
			c5.4-12.8,10.8-25.6,16.2-38.4c-39.7-10.6-79.3-21.3-119-31.9c-1.9,13.7-3.7,27.5-5.6,41.2c4.7,0.3,9.3,0.6,14,1
			c1.3,0.1,2.6,0.3,3.9,0.4c3,0.3-5.2-0.9-0.2,0c2.3,0.4,4.6,0.8,6.9,1.3c2.2,0.5,4.5,1.1,6.7,1.7c1.2,0.4,2.4,0.8,3.6,1.2
			c0.6,0.2,3.6,1.6,1,0.3c-2.9-1.4,1,0.5,1.6,0.9c0.9,0.5,1.8,0.9,2.6,1.5c1.1,0.6,2.1,1.4,3.1,2c2.3,1.4-3.5-3.3-0.1,0
			c1.8,1.7,3.4,3.5,5.1,5.3c2,2.1-1.7-2.8-0.2-0.3c0.7,1.2,1.6,2.3,2.3,3.5c2.7,4.3,5,8.8,7.2,13.3c5.2,10.7,10.3,21.4,15.4,32.1
			c4.2-10.3,8.4-20.6,12.6-30.8c0.2-0.1-2.8,1.1-2.9,1c-0.5-0.6,4.7,0.2,1.2-0.2c-4.9-0.4,3.5,1.2,0.4,0.2c-0.9-0.3-2-0.6-2.9-0.8
			c-2.8-0.5,3.2,1.8,0.7,0.4c-0.9-0.5-1.9-1-2.8-1.5c-2-1.1-4.5-2.4-6.2-4c3.7,3.6-2-1.8-2.8-2.5c-1.6-1.5-3.1-3.1-4.7-4.5
			c-2-1.8,1,1.7,1.3,1.9c1.6,1.4,0.3,0.1,0-1.4c-0.8-4-1.8-7.3-3.7-11c-5-9.9-14.3-15.5-24.4-19.1c-3.3-1.2-6.7-2.1-10-3.1
			c-1.6-0.5-3.2-1-4.7-1.6c-2.4-0.8,0.3-1,1.6,0.7c-0.5-0.7-2.4-1.3-3.2-1.7c-2.3-1.2,0.9-0.9,1.4,1.1c-0.1-0.2-1.6-1.6-1.7-1.6
			c-1.8-1.6,0.7-1.1,1.1,1.5c-0.1-0.4-1.1-1.7-1.2-2c-0.3-0.4-0.8-1.8-1.1-2.1c0.3,0.2,1.8,5,0.8,1.7c-0.6-1.9-1.3-3.8-1.8-5.8
			c-1.8-7-2.6-14.1-4.5-21.1c-2.5-9.2-6.8-18.5-13.7-25.3c-6.6-6.6-16-9.9-25.2-7.9c-9.1,2-16.3,10-18.5,19
			c-3.4,14.2,0.3,27.6,6.5,40.4c2.4,5,5.3,9.7,7.9,14.6c0.5,1,1,1.9,1.5,2.9c2.2,4-1.1-4.1,0,0c0.4,1.5,0.2,3.4-0.1-1.8
			c0,0.4,0,0.8,0,1.2c0.2-5.4,2.6-9.6,7.1-12.6c8.5,1.1,17,2.2,25.4,3.3c-1.5-1.4-3-2.8-4.3-4.3c-0.8-0.8-1.5-1.7-2.2-2.5
			c-1.9-2.1,0.4,0.1,0.8,1.1c-0.7-1.9-2.7-3.9-3.7-5.6s-2-3.5-2.9-5.4c-0.7-1.4-1.2-4.2,0.2,0.7c-0.2-0.9-0.7-1.7-1-2.5
			c-0.7-1.9-1.3-3.9-1.9-5.8c-0.5-2-1-3.9-1.4-6c-0.1-0.5-0.7-4.9-0.3-1.2c0.4,3.7-0.1-0.8-0.1-1.3c-0.4-4.1-0.4-8.2-0.1-12.2
			c0.1-0.9,0.2-1.8,0.2-2.7c0.4-4.6-0.7,3.5-0.1,0.9c0.4-2,0.7-4,1.2-6c0.5-2.2,1.2-4.3,1.9-6.5c0.3-0.8,0.8-1.7,0.9-2.5
			c-0.3,1.8-1.6,3.7-0.2,0.7c1.9-3.9,4.1-7.5,6.7-11c-12.8-5.4-25.6-10.8-38.4-16.2c-14.6,39.2-23.2,80.3-26.5,122
			c13-3.5,26.1-7.1,39.1-10.6c1.1,2.7,1.3,2.9,0.6,0.7c0.1,0.9,0.2,1.8,0.3,2.7c0.1-0.1,0.1-4.3,0.1-4.4c-0.4,2.8-0.5,3.5-0.1,1.8
			c0.2-0.8,0.3-1.5,0.5-2.3c0.4-1.5,0.9-3.1,1.4-4.6c2-5.9,4.6-11.6,6.1-17.6c4.2-17.1,0.9-34.4-4.3-51c-2.6-8.4-5.4-16.5-11.3-23.3
			c-6-6.9-14.1-9.6-22.7-11.7c-1.1-0.2-2.1-0.5-3.2-0.9c0.9,0.4,1.7,0.8,2.6,1.2c0,0.1-3.3-2-3.3-2c2.4,1.9,3,2.3,1.8,1.2
			c-0.5-0.4-0.9-0.9-1.3-1.4c1.8,2.4,2.2,3,1.3,1.7c-0.4-0.5-0.7-1.1-1-1.6c-2.2-3,0.9,4.2,0,0.3c-0.2-0.9-0.4-3.1-0.9-3.7
			c0.9,1.1,0.2,4.9,0.5,1.1c0.1-1.7-0.1-0.9-0.4,2.4c0.2-0.8,0.4-1.7,0.6-2.5c-13.5-3.7-27-7.4-40.5-11.2c-0.1,0.9-0.3,1.8-0.6,2.7
			c1.3-2.9,1.4-3.3,0.4-1.3c3-4.2,0.3,0.3-0.3-0.1c2.3-1.7,2.8-2.1,1.5-1.3c-1.4,0.8-0.7,0.6,1.9-0.6c-0.9,0.3-1.7,0.6-2.6,0.7
			c3.3-0.4,3.8-0.5,1.5-0.5c6.7,5.1,13.5,10.3,20.2,15.4c1,5.5-0.1,10.1-3.3,13.9c-2.5,1.8-2.8,2.1-0.9,0.9c2.1-0.8,4.2-2,6.2-3
			c2.3-1,4.5-2,6.8-3.1c2.2-1,2.3-1,0.1-0.1c0.9-0.4,1.7-0.7,2.6-1.1c8.9-3.6,18-6.9,27.1-9.8c-5.4-12.8-10.8-25.6-16.2-38.4
			c-19.8,10.7-27.4,38.9-14.7,57.8c8.1,12.1,22.1,13.1,33,4.3c19.8-16.1,24.5-41.4,37.1-62.3c0.7-1.2,1.4-2.3,2.2-3.5
			c0.4-0.6,0.8-1.1,1.2-1.7c1.2-1.9-1.2,1.5-1.2,1.5c2.3-1.5,4.1-4.6,6.2-6.5c4.6-4.1,9.9-7.6,14.2-12c6.8-6.9,12.3-15.9,12.9-25.8
			c0.9-15.3-11.7-24.8-25.6-26.1c-4-0.4-8.1-0.4-12.2-0.8c-0.9-0.1-1.8-0.2-2.8-0.3c2,0.2,2.1,0.3,0.1,0c-2.1-0.4-4.3-0.7-6.4-1.2
			c-8.8-1.8-17.4-4.5-25.7-7.9c-7.6-3.1-17.5,1.6-22.1,7.5c-5.3,6.9-5.6,15.7-1.6,23.3c2.1,4-0.4-3.3,0.3,0.8c0.3,1,0.5,2,0.7,3.1
			c-0.3-2.7-0.4-3.3-0.3-1.7c-0.1,0.8-0.8,5.8,0.1,2.7c0.9-3.3-1,2.8-1.2,3.3c11.7-3.1,23.4-6.2,35.1-9.3c-1.9-2.2-0.7,0,0.2,0.4
			c-0.6-0.2-1.8-2.8-2.2-3.4c-0.6-0.9-1.1-1.9-1.6-2.9c-0.2-0.5-1.7-3.8-0.7-1.2c1.1,2.8-0.5-1.5-0.7-2.1c-0.3-0.8-0.4-2.5-0.9-3.2
			c-0.6,3.6-1.3,7.2-1.9,10.8c-3.2,2.5-6.4,5-9.6,7.6c-1.7,0.6-3.5,0.8-5.2,0.4c-1.9-0.3-2.2-0.3-1.1,0c2.4,0.6-3.9-1.9-1.8-0.7
			c1.8,1.1-4.1-4.1-0.8-0.5c0.5,0.5,4.5,4.1,4.2,4.6c0.1-0.1-2.3-3.4-0.5-0.5c0.7,1.1,1.4,2.2,2.1,3.3c0.5,0.9,1,1.8,1.5,2.7
			c0.2,0.5,0.5,0.9,0.7,1.4c0.7,1.4,0.5,0.9-0.6-1.4c0.2-0.1,1.7,5.4,1.9,5.9c0.3,1.3,0.5,2.6,0.8,3.8c0.7,2.8-0.1-3.8-0.2-0.9
			c0,1,0.1,2.1,0.2,3.1c0,1.4-0.7,4.8,0.3,0c-0.8,4.3,2.1-3.2,2.7-3.8c0.7-0.5,1.3-1,2-1.6c3.6-0.4,7.3-0.9,10.9-1.3
			c0.6,0.2,11,10.1,7.4,4.5c-1.3-1.9,0.8,3.2,0.3,0.6c-0.2-1-0.6-2.2-0.9-3.2c-0.8-2.1-0.2,3.7,0.2,0c-0.2,1.8-0.6,3.1-1.4,4.7
			c1.3-2.4-0.3,0.5-1,1.1s-1.5,1.1-2.2,1.7c1.6-0.8,1.5-0.8-0.2,0c-4.5,1.3-6,1.9-11.6-0.7c9.9,4.7,23.1,3.1,28.7-7.5
			C533.7,130,531.8,115.6,521.2,110.6L521.2,110.6z"/>
	</g>
</g>
<circle class="st4" cx="599.8" cy="210.7" r="84.1"/>
</svg>
