<?xml version="1.0" encoding="utf-8"?>
<!-- Generator: Adobe Illustrator 19.2.1, SVG Export Plug-In . SVG Version: 6.00 Build 0)  -->
<svg version="1.1" id="Слой_1" xmlns="http://www.w3.org/2000/svg" xmlns:xlink="http://www.w3.org/1999/xlink" x="0px" y="0px"
	 viewBox="0 0 20 20" style="enable-background:new 0 0 20 20;" xml:space="preserve">
<path d="M8.3,2.2c-0.4,0-0.8-0.4-0.8-0.8c0-0.4,0.4-0.8,0.8-0.8h10.9C19.6,0.6,20,1,20,1.4c0,0.4-0.4,0.8-0.8,0.8H8.3L8.3,2.2z
	 M0.5,0L0.5,0L0.5,0h4.8c0.3,0,0.5,0.2,0.5,0.5v0v4.8c0,0.3-0.2,0.5-0.5,0.5h0H0.5C0.2,5.7,0,5.5,0,5.3v0V0.5C0,0.2,0.2,0,0.5,0
	L0.5,0z M0.5,7.1L0.5,7.1L0.5,7.1h4.8c0.3,0,0.5,0.2,0.5,0.5v0v4.8c0,0.3-0.2,0.5-0.5,0.5h0H0.5c-0.3,0-0.5-0.2-0.5-0.5v0V7.6
	C0,7.3,0.2,7.1,0.5,7.1L0.5,7.1z M0.5,14.3L0.5,14.3L0.5,14.3h4.8c0.3,0,0.5,0.2,0.5,0.5v0v4.8c0,0.3-0.2,0.5-0.5,0.5h0H0.5
	C0.2,20,0,19.8,0,19.5v0v-4.8C0,14.5,0.2,14.3,0.5,14.3L0.5,14.3z M8.3,5.1L8.3,5.1c-0.4,0-0.8-0.4-0.8-0.8c0-0.4,0.4-0.8,0.8-0.8
	h10.9c0.4,0,0.8,0.4,0.8,0.8c0,0.4-0.4,0.8-0.8,0.8H8.3L8.3,5.1z M8.3,9.4L8.3,9.4C7.9,9.4,7.5,9,7.5,8.6c0-0.4,0.4-0.8,0.8-0.8
	h10.9c0.4,0,0.8,0.4,0.8,0.8c0,0.4-0.4,0.8-0.8,0.8H8.3L8.3,9.4z M8.3,12.2L8.3,12.2c-0.4,0-0.8-0.4-0.8-0.8c0-0.4,0.4-0.8,0.8-0.8
	h10.9c0.4,0,0.8,0.4,0.8,0.8c0,0.4-0.4,0.8-0.8,0.8H8.3L8.3,12.2z M8.3,16.5L8.3,16.5c-0.4,0-0.8-0.4-0.8-0.8c0-0.4,0.4-0.8,0.8-0.8
	h10.9c0.4,0,0.8,0.4,0.8,0.8c0,0.4-0.4,0.8-0.8,0.8H8.3L8.3,16.5z M8.3,19.3L8.3,19.3c-0.4,0-0.8-0.4-0.8-0.8c0-0.4,0.4-0.8,0.8-0.8
	h10.9c0.4,0,0.8,0.4,0.8,0.8c0,0.4-0.4,0.8-0.8,0.8H8.3L8.3,19.3z"/>
</svg>
