<?xml version="1.0" encoding="utf-8"?>
<!-- Generator: Adobe Illustrator 19.2.1, SVG Export Plug-In . SVG Version: 6.00 Build 0)  -->
<svg version="1.1" id="Layer_1" xmlns="http://www.w3.org/2000/svg" xmlns:xlink="http://www.w3.org/1999/xlink" x="0px" y="0px"
	 viewBox="0 0 4.803 4.803" style="enable-background:new 0 0 4.803 4.803;" xml:space="preserve">
<style type="text/css">
	.st0{fill:#666666;}
</style>
<path class="st0" d="M0.394,2.395c0,0.105-0.086,0.19-0.189,0.19c-0.105,0-0.191-0.085-0.191-0.19c0-0.323,0.066-0.632,0.182-0.915
	v0c0.123-0.293,0.301-0.558,0.52-0.778C1.148,0.268,1.748,0,2.41,0c0.322,0,0.633,0.065,0.914,0.182
	c0.295,0.121,0.559,0.299,0.777,0.519c0.221,0.22,0.398,0.484,0.52,0.778l0,0c0.117,0.283,0.182,0.592,0.182,0.916
	c0,0.324-0.065,0.633-0.182,0.916l-0.004,0.01c-0.121,0.29-0.299,0.55-0.516,0.767c-0.219,0.22-0.482,0.398-0.777,0.52l0,0
	C3.043,4.725,2.732,4.79,2.41,4.79c-0.324,0-0.635-0.065-0.916-0.182L1.482,4.603c-0.23-0.096-0.441-0.227-0.627-0.386l-0.531,0.53
	c-0.074,0.074-0.193,0.074-0.268,0C0.02,4.71,0,4.662,0,4.613V4.608V3.954V3.294c0-0.105,0.086-0.19,0.191-0.19h0.004H0.85h0.66
	c0.104,0,0.189,0.085,0.189,0.19c0,0.052-0.021,0.1-0.057,0.134L1.125,3.947c0.152,0.126,0.322,0.23,0.504,0.307l0.01,0.003
	C1.875,4.355,2.135,4.41,2.41,4.41c0.271,0,0.533-0.054,0.77-0.152l0,0c0.244-0.101,0.467-0.251,0.654-0.438
	c0.184-0.184,0.334-0.404,0.434-0.646l0.004-0.009c0.098-0.236,0.152-0.496,0.152-0.77c0-0.273-0.055-0.534-0.152-0.77V1.623
	C4.17,1.378,4.019,1.157,3.834,0.97C3.648,0.784,3.426,0.634,3.18,0.532C2.943,0.434,2.682,0.38,2.41,0.38
	c-0.557,0-1.061,0.226-1.426,0.59C0.799,1.156,0.648,1.378,0.547,1.624l-0.002,0C0.447,1.86,0.394,2.121,0.394,2.395L0.394,2.395z
	 M1.051,3.484L1.051,3.484H0.85H0.381v0.469v0.201C0.604,3.931,0.828,3.707,1.051,3.484L1.051,3.484z"/>
</svg>
