<?xml version="1.0" encoding="utf-8"?>
<!-- Svg Vector Icons : http://www.onlinewebfonts.com/icon -->
<!DOCTYPE svg PUBLIC "-//W3C//DTD SVG 1.1//EN" "http://www.w3.org/Graphics/SVG/1.1/DTD/svg11.dtd">
<svg version="1.1" xmlns="http://www.w3.org/2000/svg" xmlns:xlink="http://www.w3.org/1999/xlink" x="0px" y="0px" viewBox="0 0 1000 1000" enable-background="new 0 0 1000 1000" xml:space="preserve">
<metadata> Svg Vector Icons : http://www.onlinewebfonts.com/icon </metadata>
<g><path d="M341,655l212.4-60.3L401.7,443.9L341,655z M908.3,242L756.5,91.2L422.8,422.9l151.7,150.8L908.3,242z M864,800.3c0,52.4-42.5,94.9-94.9,94.9H199.8c-52.4,0-94.9-42.5-94.9-94.9V230.9c0-52.4,42.5-94.9,94.9-94.9h379.6l94.9-94.9H168.2C80.8,41.2,10,112,10,199.3v632.6c0,87.3,70.8,158.2,158.2,158.2h632.6c87.3,0,158.2-70.8,158.2-158.2V325.8L864,420.7V800.3z M978.8,115.3l-94.8-94.2c-15.7-15.6-42-14.8-58.8,1.9l-45.5,45.2L931.3,219l45.5-45.2C993.6,157.1,994.5,130.9,978.8,115.3z"/></g>
</svg>