<?xml version="1.0" encoding="utf-8"?>
<!-- Generator: Adobe Illustrator 19.2.1, SVG Export Plug-In . SVG Version: 6.00 Build 0)  -->
<svg version="1.1" id="Layer_1" xmlns="http://www.w3.org/2000/svg" xmlns:xlink="http://www.w3.org/1999/xlink" x="0px" y="0px"
	 viewBox="0 0 13.833333 5.5833335" style="enable-background:new 0 0 13.833333 5.5833335;" xml:space="preserve">
<style type="text/css">
	.st0{fill:#666666;}
</style>
<path class="st0" d="M9.9699459,2.4384935c0-0.0942886-0.0389996-0.1806886-0.1014996-0.2431886
	c-0.0605879-0.0604999-0.1425877-0.0995998-0.2323999-0.1025H9.0578585c-0.0312128,0-0.0605125-0.0132-0.0819998-0.0346999
	c-0.021513-0.0220001-0.0352125-0.0518-0.0352125-0.0835V1.6024935c0-0.0316886,0.0117998-0.0614886,0.0352125-0.082
	C8.9953461,1.499005,9.0266457,1.485405,9.0578585,1.485405h0.5663872c0.0313005,0,0.0625,0.0136,0.0840006,0.0350885
	c0.0214996,0.0205114,0.0352001,0.0503114,0.0352001,0.082c0,0.063,0.0487995,0.1143115,0.1132994,0.1143115
	c0.0625,0,0.1132002-0.0513115,0.1132002-0.1143115c0-0.0931885-0.0389996-0.1810886-0.1014996-0.2430886
	c-0.0645008-0.063-0.1504002-0.1021-0.2442007-0.1021H9.4543457V1.159205c0-0.0635-0.0507994-0.1148-0.1132994-0.1148
	s-0.1131878,0.0512999-0.1131878,0.1148v0.0980999H9.0578585c-0.0937128,0-0.1797123,0.0391001-0.244112,0.1021
	c-0.0625,0.062-0.1016006,0.1499001-0.1016006,0.2430886V1.974605c0,0.0947,0.0391006,0.1811999,0.1016006,0.2436999
	c0.0604992,0.0599999,0.1425991,0.0996001,0.2343998,0.1025h0.5760994c0.0313005,0,0.0606127,0.0132,0.0840006,0.0356002
	c0.0196123,0.0209999,0.0352001,0.0507998,0.0352001,0.0820885c0,0.1240001,0,0.2480001,0,0.3716114
	c0,0.0322001-0.0137005,0.062-0.0352001,0.0830002c-0.0215006,0.0218999-0.0508003,0.0351-0.0840006,0.0351H9.0578585
	c-0.0312128,0-0.0605125-0.0132-0.0819998-0.0351c-0.021513-0.0210001-0.0352125-0.0508001-0.0352125-0.0830002
	c0-0.063-0.0507002-0.1137998-0.1152-0.1137998c-0.0625,0-0.1133003,0.0507998-0.1133003,0.1137998
	c0,0.0947001,0.0391006,0.1821001,0.1035004,0.2441001c0.0625,0.062,0.1484995,0.1015999,0.2422123,0.1015999h0.1700001V3.254905
	c0,0.0625,0.0506878,0.1132998,0.1131878,0.1132998S9.4543457,3.317405,9.4543457,3.254905V3.1558049h0.1698999
	c0.0938005,0,0.1817007-0.0386,0.2442007-0.1015999c0.0625-0.062,0.1014996-0.1494,0.1014996-0.2441001v-0.2535V2.548305V2.4384935
	L9.9699459,2.4384935z M11.4758587,2.120605L11.4758587,2.120605c-0.1406126-0.0601115-0.2949123-0.102-0.4531126-0.1216
	C10.9192457,1.1567049,10.1965456,0.513705,9.3410463,0.513705c-0.9316006,0-1.6933002,0.7612-1.6933002,1.6933
	c0,0.8544886,0.6426001,1.5761998,1.4862995,1.6801999c0.0742006,0.6035001,0.4746008,1.1249998,1.0332003,1.3560002
	c0.2012005,0.0829997,0.4180002,0.1288996,0.6464996,0.1288996c0.4473009,0,0.8828001-0.1806998,1.1973009-0.4956112
	c0.3163996-0.3154888,0.4960995-0.7514887,0.4960995-1.1972885C12.5071459,3.0029049,12.0930462,2.383805,11.4758587,2.120605
	L11.4758587,2.120605z M8.0285463,2.207005L8.0285463,2.207005c0-0.7236,0.5899-1.3134,1.3125-1.3134
	c0.7227001,0,1.3144999,0.5898,1.3144999,1.3134c0,0.7236998-0.5917997,1.3134885-1.3144999,1.3134885
	C8.6184464,3.5204935,8.0285463,2.9297049,8.0285463,2.207005L8.0285463,2.207005z M11.7434464,4.6074047L11.7434464,4.6074047
	c-0.2481003,0.2470889-0.5820999,0.3848-0.9297009,0.3848c-0.1776991,0-0.3495998-0.0347114-0.5019999-0.0990996
	c-0.4159994-0.1714001-0.7226-0.5577002-0.7948866-1.0020001c0.2655869-0.0273001,0.5116873-0.1162,0.7265873-0.2519
	c0.0136995,0.0179999,0.0272999,0.0355999,0.0429001,0.0511999c0.0605993,0.0606,0.1425991,0.0996001,0.2325125,0.1026001h0.5780869
	c0.0312004,0,0.0605001,0.0140998,0.0819998,0.0346c0.0215006,0.0224998,0.0352001,0.0517998,0.0352001,0.0834999
	c0,0.1235998,0,0.2475998,0,0.3721001c0,0.0312886-0.0116997,0.0615001-0.0331993,0.0819998
	c-0.0215006,0.0215001-0.0508003,0.0352001-0.0840006,0.0352001h-0.5663996c-0.0313005,0-0.0606003-0.0137-0.0840006-0.0352001
	c-0.0194998-0.0204997-0.0331993-0.0507112-0.0331993-0.0819998c0-0.0630002-0.0508003-0.1147113-0.1133003-0.1147113
	c-0.0643997,0-0.1151876,0.0517111-0.1151876,0.1147113c0,0.0941997,0.0390005,0.1801996,0.103488,0.2431998
	c0.0625124,0.0625,0.1483994,0.1025,0.2421999,0.1025h0.1698999v0.0981998c0,0.0629001,0.0507994,0.1137004,0.1132994,0.1137004
	s0.1133003-0.0508003,0.1133003-0.1137004V4.6289048h0.1698999c0.0937004,0,0.1816006-0.04,0.2441006-0.1025
	c0.0625-0.0630002,0.1015997-0.1490002,0.1015997-0.2431998V3.9111049c0-0.0947001-0.0390997-0.1811001-0.1015997-0.2436113
	c-0.0605001-0.0600886-0.1424999-0.0990887-0.2323999-0.1020887h-0.5781002c-0.0313005,0-0.0606003-0.0146-0.0819998-0.0360999
	c-0.0079002-0.0068114-0.0156879-0.0156-0.0196009-0.0249c0.1778002-0.1509116,0.3262005-0.3364,0.4297009-0.5474h0.2382994
	c0.0312004,0,0.0625,0.0142,0.0840006,0.0351999c0.0214996,0.0209999,0.0331993,0.0508001,0.0331993,0.0829999
	c0,0.0625,0.0508003,0.1138,0.1152,0.1138c0.0625134,0,0.1133003-0.0513,0.1133003-0.1138
	c0-0.0947113-0.0390997-0.1812-0.1015997-0.2440999c-0.0644007-0.0625-0.1504002-0.1016114-0.2441006-0.1016114H10.952446
	c0.0370998-0.1112888,0.0605001-0.2280002,0.0721998-0.3481886c0.1075001,0.0170999,0.2090006,0.0474,0.3046999,0.0883999
	c0.4785128,0.2036002,0.7988005,0.6856,0.7988005,1.2095001C12.1281462,4.0278049,11.9895458,4.3613048,11.7434464,4.6074047
	L11.7434464,4.6074047z"/>
<path class="st0" d="M1.3471072,0.9341448h0.0049h4.5522003c0.1044998,0,0.1894999,0.0839102,0.1894999,0.1894102v0.0049v3.4696896
	c0,0.1055102-0.085,0.1895103-0.1894999,0.1895103h-0.0053H1.3471072c-0.1044999,0-0.1899-0.0840001-0.1899-0.1895103V4.593255
	V1.1235549C1.1572071,1.018055,1.2426072,0.9341448,1.3471072,0.9341448L1.3471072,0.9341448z M5.7143073,1.478055
	L5.7143073,1.478055L3.7065072,3.4858549c-0.0444,0.0459001-0.1176929,0.0459001-0.1611001,0L1.5375072,1.4790549v2.9287h4.1768003
	V1.478055L5.7143073,1.478055z M5.5576072,1.3130549L5.5576072,1.3130549H1.6938144l1.9315928,1.9316L5.5576072,1.3130549
	L5.5576072,1.3130549z"/>
</svg>
