<?xml version="1.0" encoding="utf-8"?>
<!-- Svg Vector Icons : http://www.onlinewebfonts.com/icon -->
<!DOCTYPE svg PUBLIC "-//W3C//DTD SVG 1.1//EN" "http://www.w3.org/Graphics/SVG/1.1/DTD/svg11.dtd">
<svg version="1.1" xmlns="http://www.w3.org/2000/svg" xmlns:xlink="http://www.w3.org/1999/xlink" x="0px" y="0px" viewBox="0 0 1000 1000" enable-background="new 0 0 1000 1000" xml:space="preserve">
<metadata> Svg Vector Icons : http://www.onlinewebfonts.com/icon </metadata>
<g><path d="M921.9,942.7l-34.1,36.5c-13.4,14.5-35.1,14.5-48.6,0L701.8,832.3c-33.1,20.6-71.6,32.5-112.7,32.5c-121.4,0-226.4-110.8-229.9-240l-173.8,0v-61.6H365c4.9-21.9,12.9-42.2,22.9-61.4H185.4v-61.4h247.5c-0.4,0.5-0.7,1.2-1,1.7c39.7-38.9,92.2-63.2,150.3-63.2c123.7,0,230.7,114.4,230.7,246.6c0,45.6-11.8,88-32.3,124.3l136.6,146.1C930.6,910.2,935.4,928.4,921.9,942.7L921.9,942.7z M582.2,452.5c-85.5,0-154.8,74.1-154.8,165.7c0,91.4,76.3,172.9,161.7,172.9c85.6,0,155-74.2,155-165.6C744,533.9,667.8,452.5,582.2,452.5L582.2,452.5z M185.4,194.4h403.7v61.5H185.4V194.4L185.4,194.4z M589.2,331.6c-34.3,10.5-66.5,25.9-95,47.3l-308.7,0v-61.5h403.7L589.2,331.6L589.2,331.6z M647,320.4V132.9H127.8v614.8H372c12.3,45.8,33.1,87.2,60.9,122.9l-305.2,0c-31.9,0-57.7-27.4-57.7-61.4l0-737.7c0-33.9,25.8-61.4,57.7-61.4H647c31.8,0,57.7,27.5,57.7,61.4v249c-9.7-0.9-19-3.1-29-3.1C665.9,317.3,656.6,319.5,647,320.4L647,320.4z"/></g>
</svg>