<?xml version="1.0" encoding="utf-8"?>
<!-- Generator: Adobe Illustrator 19.2.1, SVG Export Plug-In . SVG Version: 6.00 Build 0)  -->
<svg version="1.1" id="Слой_1" xmlns="http://www.w3.org/2000/svg" xmlns:xlink="http://www.w3.org/1999/xlink" x="0px" y="0px"
	 viewBox="0 0 150 49.7" style="enable-background:new 0 0 150 49.7;" xml:space="preserve" preserveAspectRatio="xMinYMid">
<style type="text/css">
	.st0{fill:none;stroke:#FFFFFF;stroke-width:2;stroke-miterlimit:10;}
	.st1{fill:none;stroke:#FFFFFF;stroke-width:1.5;stroke-miterlimit:10;}
	.st2{fill:none;stroke:#333333;stroke-width:2;stroke-miterlimit:10;}
	.st3{fill:none;stroke:#333333;stroke-width:1.5;stroke-miterlimit:10;}
	.st4{fill:none;stroke:#FFFFFF;stroke-miterlimit:10;}
	.st5{fill:none;stroke:#333333;stroke-miterlimit:10;}
	.st6{fill:none;stroke:#FFFFFF;stroke-width:0.5;stroke-miterlimit:10;}
	.st7{fill:none;stroke:#FFC100;stroke-width:1.5;stroke-linecap:round;stroke-miterlimit:10;}
</style>
<rect x="4.2" y="6.6" class="st0" width="21" height="14.9"/>
<polyline class="st0" points="4.2,14.1 5.5,14.9 7.4,15.3 21.7,15.3 22.1,15.3 23.8,14.9 25.2,14.1 "/>
<line class="st0" x1="9.5" y1="12.6" x2="9.5" y2="10.7"/>
<line class="st0" x1="19.7" y1="12.6" x2="19.7" y2="10.7"/>
<path class="st0" d="M12.1,4.4"/>
<path class="st1" d="M17,6.6h-4.6c-0.3,0-0.6-0.3-0.6-0.6V3.7c0-0.3,0.3-0.6,0.6-0.6h4.7c0.3,0,0.6,0.3,0.6,0.6v2.2
	C17.6,6.3,17.4,6.6,17,6.6z"/>
<rect x="33.7" y="6.8" class="st2" width="21" height="14.9"/>
<polyline class="st2" points="33.7,14.3 35,15.1 36.9,15.5 51.2,15.5 51.6,15.5 53.3,15.1 54.7,14.3 "/>
<line class="st2" x1="39" y1="12.8" x2="39" y2="10.9"/>
<line class="st2" x1="49.2" y1="12.8" x2="49.2" y2="10.9"/>
<path class="st2" d="M41.6,4.6"/>
<path class="st3" d="M46.5,6.8h-4.6c-0.3,0-0.6-0.3-0.6-0.6V3.9c0-0.3,0.3-0.6,0.6-0.6h4.7c0.3,0,0.6,0.3,0.6,0.6v2.2
	C47.1,6.5,46.9,6.8,46.5,6.8z"/>
<ellipse class="st1" cx="86.6" cy="13.2" rx="2.4" ry="2.3"/>
<ellipse class="st1" cx="72.2" cy="13.2" rx="2.4" ry="2.3"/>
<ellipse class="st1" cx="79.4" cy="15.6" rx="2.4" ry="2.3"/>
<ellipse class="st1" cx="75.5" cy="8.3" rx="1.8" ry="1.8"/>
<ellipse class="st1" cx="83.6" cy="8.3" rx="1.8" ry="1.8"/>
<path class="st1" d="M82.4,21.7"/>
<path class="st1" d="M79.4,17.9"/>
<path class="st1" d="M76.4,21.7"/>
<path class="st1" d="M89.6,19.4"/>
<path class="st1" d="M86.6,15.6"/>
<path class="st1" d="M86.6,15.6"/>
<path class="st1" d="M83.6,19.4"/>
<path class="st1" d="M79.4,17.9c1.6,0,3,0.7,3,3.2"/>
<path class="st1" d="M76.4,21.1c-0.1-2.5,1.4-3.2,3-3.2"/>
<path class="st1" d="M72.2,15.8c1.6,0,3,0.7,3,3.1"/>
<path class="st1" d="M69.2,18.9c-0.1-2.5,1.4-3.1,3-3.1"/>
<path class="st1" d="M86.6,15.8c1.6,0,3,0.7,3,3.1"/>
<path class="st1" d="M83.6,18.9c-0.1-2.5,1.4-3.1,3-3.1"/>
<ellipse class="st3" cx="116" cy="11.9" rx="2.4" ry="2.3"/>
<ellipse class="st3" cx="101.6" cy="11.9" rx="2.4" ry="2.3"/>
<ellipse class="st3" cx="108.8" cy="14.3" rx="2.4" ry="2.3"/>
<ellipse class="st3" cx="104.9" cy="7" rx="1.8" ry="1.8"/>
<ellipse class="st3" cx="113" cy="7" rx="1.8" ry="1.8"/>
<path class="st3" d="M111.8,20.4"/>
<path class="st3" d="M108.8,16.6"/>
<path class="st3" d="M105.8,20.4"/>
<path class="st3" d="M119,18.1"/>
<path class="st3" d="M116,14.3"/>
<path class="st3" d="M116,14.3"/>
<path class="st3" d="M113,18.1"/>
<path class="st3" d="M108.8,16.6c1.6,0,3,0.7,3,3.2"/>
<path class="st3" d="M105.8,19.8c-0.1-2.5,1.4-3.2,3-3.2"/>
<path class="st3" d="M101.6,14.5c1.6,0,3,0.7,3,3.1"/>
<path class="st3" d="M98.6,17.6c-0.1-2.5,1.4-3.1,3-3.1"/>
<path class="st3" d="M116,14.5c1.6,0,3,0.7,3,3.1"/>
<path class="st3" d="M113,17.6c-0.1-2.5,1.4-3.1,3-3.1"/>
<circle class="st1" cx="15" cy="33.6" r="5.2"/>
<path class="st1" d="M6.9,45.8c1.2-7,3.3-7,7.8-7c5,0,6.7,0.4,7.9,7"/>
<path class="st4" d="M10.4,39.5"/>
<path class="st4" d="M14.1,43.3"/>
<path class="st4" d="M18.3,39.7"/>
<path class="st4" d="M19.5,39.1l-4.3,4.6c-0.1,0.2-0.5,0.2-0.6,0l-4.3-4.6"/>
<circle class="st3" cx="39.3" cy="32.6" r="5.2"/>
<path class="st3" d="M31.1,44.8c1.2-7,3.3-7,7.8-7c5,0,6.7,0.4,7.9,7"/>
<path class="st5" d="M34.7,38.5"/>
<path class="st5" d="M38.3,42.3"/>
<path class="st5" d="M42.5,38.7"/>
<path class="st5" d="M43.8,38.1l-4.3,4.6c-0.1,0.2-0.5,0.2-0.6,0l-4.3-4.6"/>
<path class="st1" d="M52.2,37v7.8h17.3V29.3H59.4"/>
<line class="st4" x1="65.6" y1="31.2" x2="65.6" y2="27.9"/>
<line class="st1" x1="69.5" y1="33.2" x2="60.3" y2="33.2"/>
<line class="st6" x1="62.5" y1="37.7" x2="62.5" y2="38.9"/>
<line class="st6" x1="62.5" y1="41" x2="62.5" y2="42.2"/>
<line class="st6" x1="65.9" y1="37.7" x2="65.9" y2="38.9"/>
<line class="st6" x1="59.2" y1="41" x2="59.2" y2="42.2"/>
<line class="st6" x1="65.9" y1="41" x2="65.9" y2="42.2"/>
<line class="st6" x1="56.1" y1="41" x2="56.1" y2="42.2"/>
<circle class="st1" cx="54.8" cy="32.2" r="5.6"/>
<line class="st4" x1="54.8" y1="32.8" x2="54.8" y2="29.1"/>
<line class="st4" x1="53.2" y1="34" x2="54.9" y2="32.4"/>
<path class="st3" d="M76.4,37.2V45h17.3V29.5H83.6"/>
<line class="st5" x1="89.8" y1="31.4" x2="89.8" y2="28.1"/>
<line class="st3" x1="93.7" y1="33.4" x2="84.5" y2="33.4"/>
<line class="st5" x1="86.7" y1="37.9" x2="86.7" y2="39.1"/>
<line class="st5" x1="86.7" y1="41.2" x2="86.7" y2="42.4"/>
<line class="st5" x1="90.1" y1="37.9" x2="90.1" y2="39.1"/>
<line class="st5" x1="83.4" y1="41.2" x2="83.4" y2="42.4"/>
<line class="st5" x1="90.1" y1="41.2" x2="90.1" y2="42.4"/>
<line class="st5" x1="80.3" y1="41.2" x2="80.3" y2="42.4"/>
<circle class="st3" cx="79" cy="32.4" r="5.6"/>
<line class="st5" x1="79" y1="33" x2="79" y2="29.3"/>
<line class="st5" x1="77.4" y1="34.2" x2="79.1" y2="32.6"/>
<rect x="98.9" y="28.4" class="st1" width="19.9" height="14.6"/>
<line class="st1" x1="112.2" y1="33.9" x2="116.3" y2="33.9"/>
<line class="st1" x1="112.2" y1="37.4" x2="116.3" y2="37.4"/>
<path class="st7" d="M103.6,32.1c1.1-1,2.9-1,4,0s1.1,2.7,0,3.7s-2.9,1-4,0S102.5,33.1,103.6,32.1z"/>
<line class="st0" x1="113.1" y1="42.6" x2="113.1" y2="41.5"/>
<line class="st0" x1="104.5" y1="42.6" x2="104.5" y2="41.3"/>
<path class="st7" d="M102.4,39.7c0-2.6,1.7-3.1,3.1-3.1s3.4,0.5,3.3,3.1"/>
<path class="st7" d="M105.1,41.1"/>
<rect x="123" y="28.4" class="st3" width="19.9" height="14.6"/>
<line class="st3" x1="136.3" y1="33.9" x2="140.4" y2="33.9"/>
<line class="st3" x1="136.3" y1="37.4" x2="140.4" y2="37.4"/>
<path class="st7" d="M127.7,32.1c1.1-1,2.9-1,4,0c1.1,1,1.1,2.7,0,3.7c-1.1,1-2.9,1-4,0S126.6,33.1,127.7,32.1z"/>
<line class="st2" x1="137.2" y1="42.6" x2="137.2" y2="41.5"/>
<line class="st2" x1="128.6" y1="42.6" x2="128.6" y2="41.3"/>
<path class="st7" d="M126.5,39.7c0-2.6,1.7-3.1,3.1-3.1c1.4,0,3.4,0.5,3.3,3.1"/>
<path class="st7" d="M129.2,41.1"/>
</svg>
