<?xml version="1.0" encoding="utf-8"?>
<!-- Generator: Adobe Illustrator 19.2.1, SVG Export Plug-In . SVG Version: 6.00 Build 0)  -->
<svg version="1.1" id="Слой_1" xmlns="http://www.w3.org/2000/svg" xmlns:xlink="http://www.w3.org/1999/xlink" x="0px" y="0px"
	 viewBox="0 0 960 560" style="enable-background:new 0 0 960 560;" xml:space="preserve">
<style type="text/css">
	.st0{fill:#202021;}
	.st1{fill:#00B549;}
</style>
<g>
	<path class="st0" d="M86,99c-16.8,0-33.6,0-50.4,0c-3.7-0.5-5.9-2.7-6.6-6.3c0-23,0-45.9,0-68.8c0.5-2.8,2.4-5.1,5-5.9
		c3.2-0.6,6.5-0.1,9.8-0.2c6.8-0.3,14.7,0,21.8,0c1.6,0,3.5-0.3,4.5,0c0.6,0.2,2,1.9,2.8,2.8c5.7,6.1,10.9,11.9,16.4,17.8
		c1,1.1,2.2,2,2.7,3c0.8,1.6,0.6,4.9,0.6,7.7c0,11.1,0,21.2,0,32.1c0,3.7,0.6,9.5-0.2,12.6C91.6,96.7,89.5,98.4,86,99z M43.7,21.2
		c-2.9,0.1-5.5-0.3-8,0c-4.3,0.6-3.1,6.1-3.1,10.8c0,18,0,34.9,0,52.8c0,2.7-0.5,6.9,0.2,8.6c1,2.5,4.3,2,8.2,2
		c13.7,0,26.5,0,39.6,0c2.2,0,5,0.3,6.4-0.2c2.6-1,2.1-4.1,2.1-7.6c0-15.1,0-28.5,0-43.4c-5.7-0.1-12.7,0.9-16.9-0.7
		c-1.8-0.7-3.2-2.1-3.8-3.9c-0.8-2.3-0.4-6.1-0.4-9.6c0-3,0-6.1,0-8.8C59.6,21.2,51.5,21,43.7,21.2z M71.5,24.3
		c0-0.1-0.1-0.1-0.1,0.1c0.3,4.2-0.4,9.6,0,13c1.6,5.2,6.4,3.6,15.3,3.2C82,35.3,76.5,29.7,71.5,24.3z"/>
	<path class="st0" d="M41.5,44.2c5.9,0,11.7,0,17.5,0c0,1.2,0,2.3,0,3.5c-5.9,0-11.8,0-17.7,0C41.5,46.6,41.2,45.2,41.5,44.2z"/>
	<path class="st0" d="M41.5,54.9c5.9,0,11.7,0,17.5,0c0,1.2,0,2.3,0,3.5c-5.9,0-11.8,0-17.7,0C41.5,57.2,41.2,55.8,41.5,54.9z"/>
	<path class="st0" d="M41.5,65.4c12.9,0,25.8,0,38.7,0c0,1.2,0,2.4,0,3.6c-12.9,0-25.9,0-38.8,0c0-1.1,0-2.2,0-3.2
		C41.4,65.5,41.4,65.4,41.5,65.4z"/>
	<path class="st0" d="M41.5,76c12.9,0,25.8,0,38.7,0c0,1.2,0,2.4,0,3.6c-12.9,0-25.9,0-38.8,0c0-1.1,0-2.2,0-3.2
		C41.4,76.2,41.4,76,41.5,76z"/>
</g>
<g>
	<path class="st0" d="M158.4,73.8l16.3-4.6l-11.6-11.5L158.4,73.8z M201.8,42.2l-11.6-11.5L164.7,56l11.6,11.5L201.8,42.2z
		 M198.5,84.9c0,4-3.3,7.3-7.3,7.3h-43.6c-4,0-7.3-3.3-7.3-7.3V41.3c0-4,3.3-7.3,7.3-7.3h29.1l7.3-7.3h-38.7
		c-6.7,0-12.1,5.4-12.1,12.1v48.4c0,6.7,5.4,12.1,12.1,12.1h48.4c6.7,0,12.1-5.4,12.1-12.1V48.6l-7.3,7.3V84.9z M207.2,32.5
		l-7.3-7.2c-1.2-1.2-3.2-1.1-4.5,0.1l-3.5,3.5l11.6,11.5l3.5-3.5C208.4,35.7,208.4,33.7,207.2,32.5z"/>
</g>
<g>
	<path class="st0" d="M298.9,96.3l-2.4,2.6c-1,1-2.5,1-3.5,0l-9.9-10.6c-2.4,1.5-5.1,2.3-8.1,2.3c-8.7,0-16.3-8-16.5-17.2H246V69
		h12.9c0.4-1.6,0.9-3,1.6-4.4H246v-4.4h17.8c0,0-0.1,0.1-0.1,0.1c2.9-2.8,6.6-4.5,10.8-4.5c8.9,0,16.6,8.2,16.6,17.7
		c0,3.3-0.8,6.3-2.3,8.9l9.8,10.5C299.5,93.9,299.9,95.2,298.9,96.3L298.9,96.3z M274.5,61c-6.1,0-11.1,5.3-11.1,11.9
		c0,6.6,5.5,12.4,11.6,12.4c6.1,0,11.1-5.3,11.1-11.9C286.1,66.9,280.7,61,274.5,61L274.5,61z M246,42.5h29v4.4h-29V42.5L246,42.5z
		 M275,52.4c-2.5,0.8-4.8,1.9-6.8,3.4H246v-4.4h29V52.4L275,52.4z M279.2,51.6V38.1h-37.3v44.2h17.5c0.9,3.3,2.4,6.3,4.4,8.8h-21.9
		c-2.3,0-4.1-2-4.1-4.4v-53c0-2.4,1.9-4.4,4.1-4.4h37.3c2.3,0,4.1,2,4.1,4.4v17.9c-0.7-0.1-1.4-0.2-2.1-0.2
		C280.5,51.3,279.9,51.5,279.2,51.6L279.2,51.6z"/>
</g>
<g>
	<path class="st1" d="M313.3,26.6l40.3,36.5L312,99.7l30.7-36.5L313.3,26.6z"/>
</g>
</svg>
