<?xml version="1.0" encoding="utf-8"?>
<!-- Generator: Adobe Illustrator 19.2.1, SVG Export Plug-In . SVG Version: 6.00 Build 0)  -->
<svg version="1.1" id="Layer_1" xmlns="http://www.w3.org/2000/svg" xmlns:xlink="http://www.w3.org/1999/xlink" x="0px" y="0px"
	 viewBox="0 0 3.418 3.417" style="enable-background:new 0 0 3.418 3.417;" xml:space="preserve">
<style type="text/css">
	.st0{fill:#CE3835;}
</style>
<path class="st0" d="M1.709,0C2.18,0,2.607,0.191,2.916,0.501l0,0h0.002c0.309,0.31,0.5,0.736,0.5,1.208s-0.191,0.899-0.5,1.208
	l-0.012,0.01c-0.309,0.304-0.73,0.49-1.197,0.49c-0.471,0-0.899-0.19-1.207-0.5H0.5C0.191,2.608,0,2.181,0,1.709
	s0.191-0.898,0.5-1.208l0.012-0.009C0.818,0.189,1.242,0,1.709,0L1.709,0z M2.158,0.991L2.158,0.991L1.709,1.441L1.26,0.991
	c-0.074-0.073-0.195-0.073-0.27,0c-0.074,0.074-0.074,0.194,0,0.27l0.451,0.448L0.99,2.158c-0.074,0.074-0.074,0.194,0,0.269
	c0.074,0.074,0.195,0.074,0.27,0l0.449-0.448l0.449,0.449c0.074,0.073,0.193,0.073,0.268,0c0.074-0.075,0.074-0.195,0-0.27
	L1.977,1.709L2.426,1.26c0.074-0.074,0.074-0.194,0-0.268C2.352,0.917,2.232,0.917,2.158,0.991L2.158,0.991z M2.648,0.769
	L2.648,0.769c-0.24-0.239-0.572-0.388-0.939-0.388c-0.363,0-0.691,0.144-0.932,0.38L0.769,0.77c-0.24,0.24-0.391,0.572-0.391,0.939
	s0.15,0.699,0.391,0.94l0,0c0.24,0.239,0.572,0.389,0.94,0.389c0.363,0,0.691-0.145,0.932-0.381l0.008-0.008
	c0.24-0.241,0.389-0.573,0.389-0.94S2.889,1.01,2.648,0.769L2.648,0.769L2.648,0.769z"/>
</svg>
