<?xml version="1.0" encoding="utf-8"?>
<!-- Generator: Adobe Illustrator 19.2.1, SVG Export Plug-In . SVG Version: 6.00 Build 0)  -->
<svg version="1.1" id="Layer_1" xmlns="http://www.w3.org/2000/svg" xmlns:xlink="http://www.w3.org/1999/xlink" x="0px" y="0px"
	 viewBox="0 0 3.418 3.417" style="enable-background:new 0 0 3.418 3.417;" xml:space="preserve">
<style type="text/css">
	.st0{fill:#32A457;}
</style>
<path class="st0" d="M2.736,1.142c-0.074-0.074-0.195-0.074-0.27,0L1.392,2.217L0.949,1.775c-0.074-0.074-0.193-0.074-0.268,0
	C0.607,1.85,0.607,1.969,0.684,2.043l0.564,0.566l0.01,0.01c0.074,0.074,0.195,0.074,0.268,0L2.736,1.41
	C2.809,1.336,2.809,1.216,2.736,1.142L2.736,1.142z M2.916,0.501L2.916,0.501L2.916,0.501L2.916,0.501C2.607,0.191,2.18,0,1.709,0
	C1.242,0,0.818,0.189,0.512,0.492L0.5,0.501C0.191,0.811,0,1.237,0,1.709s0.191,0.899,0.5,1.208l0,0c0.31,0.31,0.738,0.5,1.209,0.5
	c0.467,0,0.889-0.186,1.197-0.49l0.01-0.01c0.311-0.309,0.502-0.736,0.502-1.208S3.227,0.811,2.916,0.501L2.916,0.501z M2.648,2.649
	L2.648,2.649L2.641,2.657C2.4,2.893,2.072,3.038,1.709,3.038c-0.367,0-0.699-0.149-0.939-0.389c-0.24-0.241-0.391-0.573-0.391-0.94
	S0.529,1.01,0.769,0.77l0.008-0.009c0.24-0.235,0.568-0.38,0.932-0.38c0.367,0,0.699,0.148,0.939,0.388V0.77
	c0.24,0.24,0.389,0.572,0.389,0.939S2.889,2.408,2.648,2.649L2.648,2.649z"/>
</svg>
