<?xml version="1.0" encoding="utf-8"?>
<!-- Generator: Adobe Illustrator 19.2.1, SVG Export Plug-In . SVG Version: 6.00 Build 0)  -->
<svg version="1.1" id="Слой_1" xmlns="http://www.w3.org/2000/svg" xmlns:xlink="http://www.w3.org/1999/xlink" x="0px" y="0px"
	 viewBox="0 0 200 95.192" style="enable-background:new 0 0 200 95.192;" xml:space="preserve">
<style type="text/css">
	.st0{fill:#5EBB52;}
	.st1{fill:#F8991D;}
	.st2{fill:#5A5E63;}
	.st3{fill:#9FA3A8;}
	.st4{fill:#FFFFFF;}
</style>
<path class="st0" d="M158.146,10.163c-0.7-0.7-1.8-1.2-2.9-1.2h-1.8v-0.8c0-0.6-0.3-1.2-0.7-1.6c-0.4-0.4-1-0.7-1.7-0.7h-4.4
	c-0.6,0-1.2,0.3-1.6,0.7c-0.4,0.4-0.7,1-0.7,1.6v0.7h-1.8c-1.1,0.1-2.1,0.5-2.9,1.3c-0.7,0.7-1.2,1.8-1.2,2.9v8.7
	c0,1.1,0.4,2.1,1.2,2.8l0,0c0.8,0.8,1.8,1.3,2.9,1.3h12.6c1.1,0,2.2-0.5,2.9-1.2c0.8-0.8,1.2-1.8,1.2-2.9v-8.7
	C159.346,11.863,158.846,10.863,158.146,10.163z M145.246,8.163c0-0.4,0.2-0.7,0.4-1c0.3-0.2,0.6-0.3,1-0.3h4.4c0.4,0,0.7,0.2,1,0.4
	s0.4,0.6,0.4,0.9v0.7h-7.2V8.163z M157.746,21.763c0,0.7-0.3,1.3-0.7,1.8c-0.5,0.5-1.1,0.7-1.8,0.7h-12.7c-0.7,0-1.3-0.3-1.8-0.7
	l0,0c-0.4-0.5-0.7-1.1-0.7-1.8v-3.9h2.3v0.1c0.2-0.1,0.5,0.1,0.5,0.4c0,1.3,1,1.1,1.8,1.1c1.1,0,1.6,0.2,1.7-1.2
	c0-0.2,0.2-0.3,0.4-0.4l0,0h4.3v0.1c0.2,0,0.5,0.1,0.5,0.4c0,1.1,0.2,1,1.3,1.1c1.1,0.1,2.4,0.3,2.3-1.1c0-0.2,0.2-0.4,0.3-0.4v-0.1
	h2.3C157.746,17.863,157.746,21.763,157.746,21.763z M145.946,16.063c0.3,0.6,0.4,2,0.1,2.5c-0.1,0.1-0.1,0.2-0.2,0.2l0,0l0,0
	c-0.4,0.4-1.1,0.4-1.8,0.3c-0.1,0-0.2-0.1-0.3-0.1c-0.2,0.2-0.8,0-0.7-0.4c0.1-0.9-0.1-1.7,0.1-2.6c0.1-0.1,0.2-0.2,0.3-0.2
	c0.7-0.1,1.4,0,2.1,0.1c0.1,0,0.1,0.1,0.2,0.1l0,0l0,0C145.846,15.963,145.946,15.963,145.946,16.063z M151.846,16.063
	c0-0.3,0.3-0.4,0.6-0.4c0.1-0.1,0.2-0.2,0.3-0.2c0.7,0,1.7-0.2,2.2,0.5c0.3,0.6,0.1,2.1-0.1,2.7c0,0.1-0.2,0.3-0.3,0.3
	c-0.7,0.1-1.5,0.2-2.1,0.1c-0.2,0-0.6-0.2-0.7-0.4C151.346,17.963,151.846,16.963,151.846,16.063z M157.746,16.863h-2.3l0,0
	c-0.2,0-0.3-0.2-0.3-0.4c0-0.4-0.1-0.8,0-1.1l0,0c-0.5,0-1.1,0.1-1.5,0c-0.9,0-2.2-0.2-2.1,1.2c0,0.3-0.2,0.4-0.4,0.4l0,0h-4.4v-0.1
	c-0.2,0-0.3-0.1-0.4-0.4c-0.1-0.9-0.2-0.9-1.1-1s-2.5-0.3-2.5,1c0,0.3-0.2,0.4-0.5,0.4l0,0h-2.2v-3.8c0-0.7,0.3-1.3,0.7-1.8l0,0
	c0.5-0.5,1.1-0.7,1.8-0.7h2.1h0.1h8.1h0.1h2.1c0.7,0,1.3,0.3,1.8,0.7c0.5,0.5,0.7,1.1,0.7,1.8v3.8H157.746z"/>
<g>
	<path class="st1" d="M145.746,15.963v2.1l1-0.1v-2.5l0,0c0-0.3-0.2-0.5-0.5-0.5h-3.4l0,0c-0.3,0-0.5,0.2-0.5,0.5v2.5l1,0.1v-2.1
		H145.746z"/>
	<path class="st1" d="M145.746,18.863h-2.4v-1h-1v1.4l0,0c0,0.3,0.2,0.5,0.5,0.5h3.4l0,0c0.3,0,0.5-0.2,0.5-0.5v-1.4h-1V18.863z"/>
</g>
<g>
	<path class="st1" d="M154.446,15.963v2.1l1-0.1v-2.5l0,0c0-0.3-0.2-0.5-0.5-0.5h-3.4l0,0c-0.3,0-0.5,0.2-0.5,0.5v2.5l1,0.1v-2.1
		H154.446z"/>
	<path class="st1" d="M154.546,18.863h-2.5v-1h-1v1.4l0,0c0,0.3,0.2,0.5,0.5,0.5h3.4l0,0c0.3,0,0.5-0.2,0.5-0.5v-1.4h-1v1H154.546z"
		/>
</g>
<path class="st2" d="M158.19,39.773c-0.7-0.7-1.8-1.2-2.9-1.2h-1.8v-0.8c0-0.6-0.3-1.2-0.7-1.6c-0.4-0.4-1-0.7-1.7-0.7h-4.4
	c-0.6,0-1.2,0.3-1.6,0.7c-0.4,0.4-0.7,1-0.7,1.6v0.7h-1.8c-1.1,0.1-2.1,0.5-2.9,1.3c-0.7,0.7-1.2,1.8-1.2,2.9v8.7
	c0,1.1,0.4,2.1,1.2,2.8l0,0c0.8,0.8,1.8,1.3,2.9,1.3h12.6c1.1,0,2.2-0.5,2.9-1.2c0.8-0.8,1.2-1.8,1.2-2.9v-8.7
	C159.39,41.473,158.89,40.473,158.19,39.773z M145.29,37.773c0-0.4,0.2-0.7,0.4-1c0.3-0.2,0.6-0.3,1-0.3h4.4c0.4,0,0.7,0.2,1,0.4
	c0.3,0.2,0.4,0.6,0.4,0.9v0.7h-7.2V37.773z M157.79,51.373c0,0.7-0.3,1.3-0.7,1.8c-0.5,0.5-1.1,0.7-1.8,0.7h-12.7
	c-0.7,0-1.3-0.3-1.8-0.7l0,0c-0.4-0.5-0.7-1.1-0.7-1.8v-3.9h2.3v0.1c0.2-0.1,0.5,0.1,0.5,0.4c0,1.3,1,1.1,1.8,1.1
	c1.1,0,1.6,0.2,1.7-1.2c0-0.2,0.2-0.3,0.4-0.4l0,0h4.3v0.1c0.2,0,0.5,0.1,0.5,0.4c0,1.1,0.2,1,1.3,1.1c1.1,0.1,2.4,0.3,2.3-1.1
	c0-0.2,0.2-0.4,0.3-0.4v-0.1h2.3C157.79,47.473,157.79,51.373,157.79,51.373z M145.99,45.673c0.3,0.6,0.4,2,0.1,2.5
	c-0.1,0.1-0.1,0.2-0.2,0.2l0,0l0,0c-0.4,0.4-1.1,0.4-1.8,0.3c-0.1,0-0.2-0.1-0.3-0.1c-0.2,0.2-0.8,0-0.7-0.4
	c0.1-0.9-0.1-1.7,0.1-2.6c0.1-0.1,0.2-0.2,0.3-0.2c0.7-0.1,1.4,0,2.1,0.1c0.1,0,0.1,0.1,0.2,0.1l0,0l0,0
	C145.89,45.573,145.99,45.573,145.99,45.673z M151.89,45.673c0-0.3,0.3-0.4,0.6-0.4c0.1-0.1,0.2-0.2,0.3-0.2c0.7,0,1.7-0.2,2.2,0.5
	c0.3,0.6,0.1,2.1-0.1,2.7c0,0.1-0.2,0.3-0.3,0.3c-0.7,0.1-1.5,0.2-2.1,0.1c-0.2,0-0.6-0.2-0.7-0.4
	C151.39,47.573,151.89,46.573,151.89,45.673z M157.79,46.473h-2.3l0,0c-0.2,0-0.3-0.2-0.3-0.4c0-0.4-0.1-0.8,0-1.1l0,0
	c-0.5,0-1.1,0.1-1.5,0c-0.9,0-2.2-0.2-2.1,1.2c0,0.3-0.2,0.4-0.4,0.4l0,0h-4.4v-0.1c-0.2,0-0.3-0.1-0.4-0.4c-0.1-0.9-0.2-0.9-1.1-1
	c-0.9-0.1-2.5-0.3-2.5,1c0,0.3-0.2,0.4-0.5,0.4l0,0h-2.2v-3.8c0-0.7,0.3-1.3,0.7-1.8l0,0c0.5-0.5,1.1-0.7,1.8-0.7h2.1h0.1h8.1h0.1
	h2.1c0.7,0,1.3,0.3,1.8,0.7c0.5,0.5,0.7,1.1,0.7,1.8v3.8H157.79z"/>
<g>
	<path class="st2" d="M145.79,45.573v2.1l1-0.1v-2.5l0,0c0-0.3-0.2-0.5-0.5-0.5h-3.4l0,0c-0.3,0-0.5,0.2-0.5,0.5v2.5l1,0.1v-2.1
		H145.79z"/>
	<path class="st2" d="M145.79,48.473h-2.4v-1h-1v1.4l0,0c0,0.3,0.2,0.5,0.5,0.5h3.4l0,0c0.3,0,0.5-0.2,0.5-0.5v-1.4h-1V48.473z"/>
</g>
<g>
	<path class="st2" d="M154.49,45.573v2.1l1-0.1v-2.5l0,0c0-0.3-0.2-0.5-0.5-0.5h-3.4l0,0c-0.3,0-0.5,0.2-0.5,0.5v2.5l1,0.1v-2.1
		H154.49z"/>
	<path class="st2" d="M154.59,48.473h-2.5v-1h-1v1.4l0,0c0,0.3,0.2,0.5,0.5,0.5h3.4l0,0c0.3,0,0.5-0.2,0.5-0.5v-1.4h-1v1H154.59z"/>
</g>
<path class="st0" d="M25.643,6.662L25.643,6.662h-18.4c-0.5,0-0.8,0.3-0.8,0.8v18.5c0,0.4,0.3,0.7,0.8,0.7h18.5
	c0.4,0,0.8-0.3,0.8-0.8v-18.4C26.443,6.962,26.143,6.662,25.643,6.662L25.643,6.662z M24.943,25.162L24.943,25.162h-17v-12.5h16.9
	v12.5H24.943z M24.943,11.762L24.943,11.762h-17v-3.6h1.5v1.1c0,0.4,0.3,0.8,0.8,0.8s0.8-0.3,0.8-0.8v-1.1h2.6v1.1
	c0,0.4,0.3,0.8,0.8,0.8c0.4,0,0.8-0.3,0.8-0.8v-1.1h2.6v1.1c0,0.4,0.3,0.8,0.8,0.8c0.4,0,0.8-0.3,0.8-0.8v-1.1h2.6v1.1
	c0,0.4,0.3,0.8,0.8,0.8c0.4,0,0.8-0.3,0.8-0.8v-1.1h1.5v3.6H24.943z"/>
<path class="st1" d="M13.743,16.362c0.2,0.2,0.6,0.4,0.9,0.4c0.4,0,0.7-0.1,0.9-0.4c0.2-0.2,0.4-0.6,0.4-0.9c0-0.4-0.1-0.7-0.4-0.9
	l0,0c-0.2-0.3-0.5-0.4-0.9-0.4c-0.4,0-0.7,0.1-0.9,0.4l0,0c-0.2,0.2-0.4,0.5-0.4,0.9C13.343,15.762,13.543,16.062,13.743,16.362
	L13.743,16.362L13.743,16.362z"/>
<path class="st1" d="M14.443,15.162L14.443,15.162L14.443,15.162c0-0.1,0.1-0.1,0.2-0.1c0.1,0,0.2,0,0.3,0.1l0,0
	c0.1,0.1,0.1,0.2,0.1,0.3s0,0.2-0.1,0.3c-0.1,0-0.2,0-0.3,0c-0.1,0-0.2,0-0.2-0.1c-0.1,0-0.2-0.1-0.2-0.2
	C14.243,15.362,14.343,15.262,14.443,15.162L14.443,15.162z"/>
<path class="st1" d="M13.743,19.862L13.743,19.862c0.2,0.2,0.6,0.4,0.9,0.4c0.4,0,0.7-0.1,0.9-0.4l0,0c0.2-0.2,0.4-0.6,0.4-0.9
	c0-0.4-0.1-0.7-0.4-0.9l0,0c-0.2-0.2-0.6-0.4-0.9-0.4c-0.4,0-0.7,0.1-0.9,0.4l0,0c-0.2,0.2-0.4,0.6-0.4,0.9
	C13.343,19.262,13.543,19.562,13.743,19.862L13.743,19.862L13.743,19.862z"/>
<path class="st1" d="M14.443,18.662L14.443,18.662L14.443,18.662c0.1-0.1,0.2-0.1,0.3-0.1s0.2,0,0.3,0.1l0,0
	c0.1,0.1,0.1,0.2,0.1,0.3s0,0.2-0.1,0.3l0,0c-0.1,0.1-0.2,0.1-0.3,0.1s-0.2,0-0.3-0.1l0,0c-0.1-0.1-0.1-0.2-0.1-0.3
	C14.243,18.762,14.343,18.662,14.443,18.662L14.443,18.662z"/>
<path class="st1" d="M20.843,16.362L20.843,16.362c0.2,0.2,0.6,0.4,0.9,0.4c0.4,0,0.7-0.1,0.9-0.4c0.2-0.2,0.4-0.6,0.4-0.9
	c0-0.4-0.1-0.7-0.4-0.9l0,0c-0.2-0.2-0.6-0.4-0.9-0.4s-0.7,0.1-0.9,0.4l0,0c-0.2,0.2-0.4,0.5-0.4,0.9
	C20.443,15.762,20.643,16.062,20.843,16.362L20.843,16.362L20.843,16.362z"/>
<path class="st1" d="M21.543,15.162L21.543,15.162L21.543,15.162c0.1-0.1,0.2-0.1,0.3-0.1s0.2,0,0.3,0.1l0,0
	c0.1,0.1,0.1,0.2,0.1,0.3s0,0.2-0.1,0.3s-0.2,0.1-0.3,0.1s-0.2,0-0.3-0.1s-0.2-0.2-0.2-0.3
	C21.343,15.362,21.443,15.262,21.543,15.162L21.543,15.162z"/>
<path class="st1" d="M17.343,16.362L17.343,16.362c0.2,0.2,0.6,0.4,0.9,0.4c0.4,0,0.7-0.1,0.9-0.4c0.2-0.2,0.4-0.6,0.4-0.9
	c0-0.4-0.1-0.7-0.4-0.9l0,0c-0.2-0.2-0.6-0.4-0.9-0.4c-0.4,0-0.7,0.1-0.9,0.4l0,0c-0.2,0.2-0.4,0.6-0.4,0.9
	S17.043,16.062,17.343,16.362L17.343,16.362L17.343,16.362z"/>
<path class="st1" d="M17.943,15.162L17.943,15.162L17.943,15.162c0.1-0.1,0.2-0.1,0.3-0.1s0.2,0,0.3,0.1l0,0
	c0.1,0.1,0.1,0.2,0.1,0.3s0,0.2-0.1,0.3s-0.2,0.1-0.3,0.1s-0.2,0-0.3-0.1s-0.1-0.2-0.1-0.3S17.843,15.262,17.943,15.162
	L17.943,15.162z"/>
<path class="st1" d="M13.743,23.362L13.743,23.362c0.2,0.2,0.6,0.3,0.9,0.3c0.4,0,0.7-0.1,0.9-0.4l0,0c0.2-0.2,0.4-0.6,0.4-0.9
	c0-0.4-0.1-0.7-0.4-0.9l0,0c-0.2-0.2-0.6-0.4-0.9-0.4c-0.4,0-0.7,0.1-0.9,0.4l0,0c-0.2,0.2-0.4,0.6-0.4,0.9
	C13.343,22.762,13.543,23.062,13.743,23.362L13.743,23.362L13.743,23.362z"/>
<path class="st1" d="M14.443,22.162L14.443,22.162L14.443,22.162c0.1-0.1,0.2-0.1,0.3-0.1s0.2,0,0.3,0.1l0,0
	c0.1,0.1,0.1,0.2,0.1,0.3s0,0.2-0.1,0.3l0,0c-0.1,0.1-0.2,0.1-0.3,0.1s-0.2,0-0.3-0.1l0,0c-0.1-0.1-0.1-0.2-0.1-0.3
	C14.243,22.262,14.343,22.162,14.443,22.162L14.443,22.162z"/>
<path class="st1" d="M17.343,23.362L17.343,23.362c0.2,0.2,0.6,0.4,0.9,0.4c0.4,0,0.7-0.1,0.9-0.4l0,0c0.2-0.2,0.4-0.6,0.4-0.9
	c0-0.4-0.1-0.7-0.4-0.9l0,0c-0.2-0.2-0.6-0.4-0.9-0.4c-0.4,0-0.7,0.1-0.9,0.4l0,0c-0.2,0.2-0.4,0.6-0.4,0.9
	S17.043,23.062,17.343,23.362L17.343,23.362L17.343,23.362z"/>
<path class="st1" d="M17.943,22.162L17.943,22.162L17.943,22.162c0.1-0.1,0.2-0.1,0.3-0.1s0.2,0,0.3,0.1l0,0
	c0.1,0.1,0.1,0.2,0.1,0.3s0,0.2-0.1,0.3l0,0c-0.1,0.1-0.2,0.1-0.3,0.1s-0.2,0-0.3-0.1l0,0c-0.1-0.1-0.1-0.2-0.1-0.3
	C17.843,22.262,17.843,22.162,17.943,22.162L17.943,22.162z"/>
<path class="st1" d="M10.243,19.862L10.243,19.862c0.2,0.2,0.6,0.4,0.9,0.4c0.4,0,0.7-0.1,0.9-0.4l0,0c0.2-0.3,0.4-0.6,0.4-1
	s-0.1-0.7-0.4-0.9l0,0c-0.2-0.2-0.6-0.4-0.9-0.4c-0.4,0-0.7,0.1-0.9,0.4l0,0c-0.2,0.2-0.4,0.6-0.4,0.9
	C9.843,19.262,9.943,19.562,10.243,19.862L10.243,19.862L10.243,19.862z"/>
<path class="st1" d="M10.843,18.662L10.843,18.662L10.843,18.662c0.1-0.1,0.2-0.1,0.3-0.1c0.1,0,0.2,0,0.3,0.1l0,0
	c0,0,0.1,0.1,0.1,0.2c0,0.1,0,0.2-0.1,0.3l0,0c-0.1,0.1-0.2,0.1-0.3,0.1s-0.2,0-0.3-0.1l0,0c-0.1-0.1-0.1-0.2-0.1-0.3
	C10.743,18.762,10.743,18.662,10.843,18.662L10.843,18.662z"/>
<path class="st1" d="M10.243,23.362L10.243,23.362c0.2,0.2,0.5,0.3,0.9,0.3c0.4,0,0.7-0.1,0.9-0.4l0,0c0.2-0.2,0.4-0.5,0.4-0.9
	c0-0.4-0.1-0.7-0.4-0.9l0,0c-0.2-0.2-0.6-0.4-0.9-0.4c-0.4,0-0.7,0.1-0.9,0.4l0,0c-0.2,0.2-0.4,0.6-0.4,0.9
	C9.843,22.762,9.943,23.062,10.243,23.362L10.243,23.362L10.243,23.362z"/>
<path class="st1" d="M10.843,22.162L10.843,22.162L10.843,22.162c0.1-0.1,0.2-0.1,0.3-0.1c0.1,0,0.2,0,0.3,0.1l0,0
	c0.1,0.1,0.1,0.2,0.1,0.3s0,0.2-0.1,0.3l0,0c-0.1,0.1-0.2,0.1-0.3,0.1s-0.2,0-0.3-0.1l0,0c-0.1-0.1-0.1-0.2-0.1-0.3
	C10.743,22.262,10.743,22.162,10.843,22.162L10.843,22.162z"/>
<path class="st1" d="M17.343,19.862L17.343,19.862c0.2,0.2,0.6,0.4,0.9,0.4c0.4,0,0.7-0.1,0.9-0.4l0,0c0.2-0.2,0.4-0.6,0.4-0.9
	c0-0.4-0.1-0.7-0.4-0.9l0,0c-0.2-0.2-0.6-0.4-0.9-0.4c-0.4,0-0.7,0.1-0.9,0.4l0,0c-0.2,0.2-0.4,0.6-0.4,0.9
	C16.943,19.262,17.043,19.562,17.343,19.862L17.343,19.862L17.343,19.862z"/>
<path class="st1" d="M17.943,18.662L17.943,18.662L17.943,18.662c0.1-0.1,0.2-0.1,0.3-0.1s0.2,0,0.3,0.1l0,0
	c0.1,0.1,0.1,0.2,0.1,0.3s0,0.2-0.1,0.3l0,0c-0.1,0.1-0.2,0.1-0.3,0.1s-0.2,0-0.3-0.1l0,0c-0.1-0.1-0.1-0.2-0.1-0.3
	C17.843,18.762,17.843,18.662,17.943,18.662L17.943,18.662z"/>
<path class="st1" d="M20.843,19.862L20.843,19.862c0.2,0.2,0.6,0.4,0.9,0.4s0.7-0.1,0.9-0.4l0,0c0.2-0.2,0.4-0.6,0.4-0.9
	c0-0.4-0.1-0.7-0.4-0.9l0,0c-0.2-0.2-0.6-0.4-0.9-0.4c-0.3,0-0.7,0.1-0.9,0.4l0,0c-0.2,0.2-0.4,0.6-0.4,0.9
	C20.443,19.262,20.643,19.562,20.843,19.862L20.843,19.862L20.843,19.862z"/>
<path class="st1" d="M21.543,18.662L21.543,18.662L21.543,18.662c0.1-0.1,0.2-0.1,0.3-0.1s0.2,0,0.3,0.1l0,0
	c0.1,0.1,0.1,0.2,0.1,0.3s0,0.2-0.1,0.3l0,0c-0.1,0.1-0.2,0.1-0.3,0.1s-0.2,0-0.3-0.1l0,0c-0.1-0.1-0.1-0.2-0.1-0.3
	C21.343,18.762,21.443,18.662,21.543,18.662L21.543,18.662z"/>
<path class="st0" d="M61.516,6.995h-23.7c-0.6,0-1,0.5-1,1v18c0,0.5,0.4,1,1,1h3.2c0.5,0,0.9-0.4,0.9-1v-1.6h3.2v1.6
	c0,0.5,0.5,1,1,1h7.2c0.5,0,0.8-0.5,0.8-1.1v-1.5h3.3v1.7c0,0.5,0.6,0.9,1.1,0.9h3.2c0.5,0,1-0.5,1-1.1v-17.9
	C62.516,7.495,62.016,6.995,61.516,6.995z M40.716,23.495v2.3h-2.6v-17.6h23.1v17.5h-2.7v-2.3h-5.5l0,0l0,0v2.4h-6.7v-2.3l0,0"/>
<path class="st1" d="M52.116,18.295h6.1c0.3,0,0.6-0.3,0.6-0.6c0-0.3-0.3-0.6-0.6-0.6h-6.1c-0.3,0-0.6,0.3-0.6,0.6
	C51.516,17.995,51.816,18.295,52.116,18.295L52.116,18.295z"/>
<path class="st1" d="M52.116,15.695L52.116,15.695h6.1c0.3,0,0.6-0.3,0.6-0.6s-0.3-0.6-0.6-0.6h-6.1c-0.3,0-0.6,0.3-0.6,0.6
	C51.516,15.395,51.816,15.695,52.116,15.695L52.116,15.695z"/>
<path class="st1" d="M52.116,13.095L52.116,13.095h6.1c0.3,0,0.6-0.3,0.6-0.6s-0.3-0.6-0.6-0.6h-6.1c-0.3,0-0.6,0.3-0.6,0.6
	C51.516,12.795,51.816,13.095,52.116,13.095L52.116,13.095z"/>
<path class="st1" d="M49.216,18.395c-0.2-0.4-0.4-0.7-0.7-1c-0.3-0.3-0.6-0.5-1-0.7l-0.1-0.1l0.1-0.1c0.7-0.7,1.1-1.6,1.1-2.6
	s-0.4-1.9-1.1-2.6c-0.8-0.7-1.7-1.1-2.7-1.1s-2,0.4-2.6,1.1c-0.7,0.7-1.1,1.6-1.1,2.6s0.4,1.9,1.1,2.6l0.1,0.1
	c-0.5,0.2-0.9,0.4-1.2,0.8c-0.3,0.3-0.5,0.6-0.7,1c-0.2,0.4-0.2,0.8-0.2,1.2v0.9c0,0.3,0.3,0.6,0.6,0.6h8c0.3,0,0.6-0.3,0.6-0.6
	v-0.9C49.416,19.195,49.316,18.795,49.216,18.395z M43.016,12.095c0.5-0.4,1.1-0.7,1.8-0.7s1.3,0.3,1.8,0.7c0.5,0.5,0.7,1.1,0.7,1.8
	s-0.3,1.3-0.7,1.8c-1,1-2.6,1-3.6,0c-0.4-0.5-0.7-1.1-0.7-1.8S42.616,12.595,43.016,12.095z M48.216,19.895h-6.8v-0.3
	c0-0.3,0.1-0.5,0.2-0.8c0.1-0.2,0.2-0.5,0.4-0.6c0.4-0.4,0.9-0.6,1.4-0.6h2.9c0.3,0,0.5,0.1,0.8,0.1c0.2,0.1,0.5,0.3,0.6,0.4
	c0.2,0.2,0.3,0.4,0.4,0.6c0.1,0.2,0.1,0.5,0.1,0.8C48.216,19.495,48.216,19.895,48.216,19.895z"/>
<path class="st3" d="M21.293,73.583c0,0.6-0.5,1.1-1.1,1.1c-0.5,0-1-0.5-1-1.1c0-0.2-0.1-0.5-0.3-0.6c-0.1-0.2-0.3-0.3-0.6-0.3
	c-1.6,0-3.2,0-4.8,0c-0.2,0-0.4,0.1-0.6,0.3c-0.1,0.2-0.2,0.4-0.2,0.6v1l0,0v1.1l0,0v1c0,0.2,0.1,0.5,0.3,0.6l0,0
	c0.1,0.2,0.3,0.3,0.5,0.3l0,0h4.8l0,0c0.8,0,1.6,0.3,2.1,0.9l0,0c0.6,0.6,0.9,1.3,0.9,2.1v0.9v0.1v2.1c0,0.8-0.3,1.6-0.9,2.1l0,0
	l0,0c-0.5,0.6-1.3,0.9-2.1,0.9h-1.3v0.8c0,0.7-0.5,1.2-1.1,1.2s-1.1-0.5-1.1-1.1v-0.8h-1.3c-0.8,0-1.6-0.3-2.1-0.9l0,0l0,0
	c-0.5-0.5-0.9-1.3-0.9-2.1c0-0.6,0.5-1.1,1.1-1.1c0.6,0,1.1,0.5,1.1,1.1c0,0.2,0.1,0.5,0.3,0.6l0,0c0.1,0.2,0.3,0.3,0.5,0.3
	c1.6,0,3.2,0,4.8,0c0.2,0,0.5-0.1,0.6-0.3l0,0c0.2-0.2,0.3-0.4,0.3-0.6v-0.9v-0.1v-2.1c0-0.2-0.1-0.4-0.3-0.6l0,0l0,0
	c-0.2-0.2-0.4-0.3-0.6-0.3l0,0h-4.8l0,0c-0.8,0-1.6-0.3-2.1-0.9l0,0l0,0c-0.6-0.6-0.9-1.3-0.9-2.2v-1l0,0v-1.1l0,0v-1
	c0-0.8,0.3-1.6,0.9-2.1c0.5-0.6,1.3-0.9,2.1-0.9h1.3v-0.8c0-0.6,0.5-1.1,1.1-1.1s1.1,0.5,1.1,1.1v0.8h1.3c0.8,0,1.6,0.3,2.1,0.9
	C20.993,71.983,21.293,72.783,21.293,73.583L21.293,73.583z"/>
<path class="st0" d="M113.043,8.363c1.3-1.1,3.8-1.1,5.1,0c0.8,0.7,1.1,1.6,1.1,2.1l0,0v0.7c0,0.8,0,1.7,0.1,2.3
	c0,0.2,0,0.3,0.1,0.5c0,0,0,0,0,0.1l0,0l0,0c0,0.1,0.1,0.1,0.1,0.1s0,0.1,0,0.5c0,0.5-0.2,0.8-0.3,1.1v0.1c-0.1,0.2-0.2,0.3-0.2,0.5
	l-0.1,0.3l0,0l0.1,0.2c-0.1,0.5,0.2,0.9,0.6,1c0.5,0.1,0.9-0.2,1-0.6l0.1-0.2l0.1-0.3c0,0,0-0.1,0.1-0.2l0,0c0.2-0.4,0.5-1,0.5-1.9
	c0-1.2-0.2-1.4-0.5-1.7l0,0c-0.1-0.1,0.1-0.9,0.1-1.8l0,0v-0.7l0,0l0,0c0-0.7-0.4-2.3-1.7-3.4c-2-1.6-5.3-1.6-7.3,0
	c-1.4,1.1-1.8,2.6-1.8,3.4v0.1v0.7l0,0c0,0.8,0.2,1.7,0.1,1.8l0,0l0,0c-0.2,0.2-0.5,0.4-0.5,1.6c0,0.9,0.3,1.5,0.5,1.9
	c0.1,0.1,0.1,0.2,0.1,0.2c0,0.1,0.1,0.3,0.1,0.5l0,0c0.1,0.2,0.1,0.3,0.2,0.6c0,0.3,0.1,0.5,0.3,0.8c0.2,0.3,0.3,0.5,0.5,0.7
	c-0.1,3-0.9,3.2-3,3.9c-0.6,0.2-1.2,0.4-2,0.7c-0.1,0.1-0.4,0.2-0.5,0.3l0,0c-0.1,0.1-0.1,0.1-0.2,0.2c-0.2,0.4-0.2,0.8,0.2,1.1
	c0.1,0,0.1,0.1,0.2,0.1c0.1,0.1,0.2,0.1,0.4,0.1l0,0c2.4,0.1,4.8,0,7.1,0c1,0,2,0,3.6,0c0.5,0,0.8-0.4,0.8-0.8
	c0-0.5-0.4-0.8-0.8-0.8c-0.8,0-2.2,0-3.6,0c-1,0-1.9,0-2.9,0c1.6-0.7,2.2-1.7,2.4-4.9l0,0c0-0.2,0-0.3-0.1-0.5v-0.1
	c-0.1-0.2-0.2-0.4-0.3-0.5c-0.1-0.1-0.2-0.3-0.3-0.5c0-0.1-0.1-0.1-0.1-0.2c0-0.2-0.1-0.5-0.1-0.7l0,0c0-0.2-0.1-0.4-0.1-0.6
	c-0.1-0.2-0.1-0.3-0.2-0.5c-0.3-0.1-0.5-0.5-0.5-1v-0.5l0.1-0.1v-0.1c0.3-0.4,0.3-1.7,0.3-2.8v-0.7v-0.1
	C111.943,9.963,112.243,9.063,113.043,8.363L113.043,8.363z"/>
<path class="st1" d="M129.443,19.663c0-0.4-0.2-0.7-0.4-1c-0.2-0.2-0.6-0.4-1-0.4h-2.3c0.4-1.4,0.6-2.4-0.2-3.9l0,0
	c-0.2-0.4-0.6-0.6-1-0.7c-0.2,0-0.4,0-0.6,0.1l0,0c-0.2,0.1-0.4,0.2-0.6,0.4c-0.2,0.3-0.3,0.6-0.3,1.1c0.1,0.5,0,1.1-0.3,1.6l0,0
	c-0.3,0.5-0.6,1-1.1,1.5c0,0-0.1,0-0.2,0h-2.4c-0.3,0-0.5,0.2-0.5,0.5v6.4c0,0.3,0.2,0.5,0.5,0.5h2.4c0.2,0,0.4-0.1,0.5-0.4l0.9,0.4
	c0.1,0,0.1,0.1,0.2,0.1h3.6c0.4,0,0.7-0.2,1-0.4l0,0l0,0c0.2-0.2,0.4-0.6,0.4-1c0-0.2,0-0.4-0.1-0.5l0.1-0.1l0,0l0,0
	c0.2-0.2,0.3-0.4,0.3-0.6l0,0c0.1-0.2,0.1-0.5,0-0.7l0,0v-0.1c0.1,0,0.1-0.1,0.2-0.1c0.2-0.2,0.3-0.4,0.3-0.6c0.1-0.2,0.1-0.5,0-0.7
	l0,0v-0.1l0.1-0.1C129.243,20.363,129.443,20.063,129.443,19.663z M128.343,19.863c-0.1,0.1-0.2,0.1-0.3,0.1c-0.3,0-0.5,0.2-0.5,0.5
	c0,0.2,0.1,0.4,0.3,0.5c0.1,0,0.1,0.1,0.2,0.2l0,0c0,0.1,0,0.1,0,0.2s-0.1,0.1-0.1,0.2c-0.1,0.1-0.2,0.1-0.3,0.1
	c-0.3,0-0.5,0.2-0.5,0.5c0,0.2,0.1,0.4,0.3,0.5c0.1,0,0.1,0.1,0.1,0.2l0,0c0,0,0,0.1,0,0.2l0,0c0,0.1-0.1,0.1-0.1,0.2l0,0
	c-0.1,0.1-0.2,0.1-0.3,0.1c-0.3,0-0.5,0.2-0.5,0.5c0,0.2,0.1,0.4,0.3,0.5l0.1,0.1l0,0c0,0,0,0.1,0,0.2s0,0.2-0.1,0.2l0,0
	c-0.1,0.1-0.1,0.1-0.2,0.1h-3.5l-1.5-0.6c-0.3-0.1-0.6,0-0.7,0.3c0,0.1,0,0.1,0,0.2l0,0v0.1h-1.4v-5.4h1.4c0.1,0.2,0.3,0.4,0.5,0.4
	c0.1,0,0.3-0.1,0.4-0.2c0.7-0.6,1.3-1.4,1.7-2.2l0,0c0.4-0.7,0.5-1.5,0.4-2.3c0-0.1,0-0.2,0-0.3l0.1-0.1l0,0c0.1,0,0.1,0,0.2,0
	s0.2,0.1,0.3,0.2l0,0c0.7,1.1,0.4,2.1,0.1,3.2l0,0l-0.1,0.4c-0.1,0.3,0.1,0.5,0.4,0.6h0.1h3c0.1,0,0.2,0,0.2,0.1l0,0
	c0.1,0.1,0.1,0.1,0.1,0.2C128.443,19.763,128.443,19.763,128.343,19.863z"/>
<path class="st0" d="M96.389,20.962c-0.2-0.6-0.6-1.1-1-1.5l-1-1c0.7-0.8,1.2-1.8,1.2-2.9c0-1.2-0.5-2.3-1.3-3.1
	c-0.8-0.8-1.9-1.3-3.1-1.3c-0.4,0-0.9,0.1-1.3,0.2c-0.4-2.6-2.7-4.6-5.4-4.6c-2.7,0-5,2-5.4,4.6c-0.4-0.1-0.8-0.2-1.2-0.2
	c-1.2,0-2.3,0.5-3.1,1.3c-0.8,0.7-1.3,1.8-1.3,3c0,1.1,0.4,2.2,1.2,2.9l-1,1c-0.5,0.5-0.8,1-1,1.5l0,0c-0.3,0.7-0.4,1.3-0.4,1.9v1.3
	c0,0.3,0.1,0.7,0.3,1c0.2,0.3,0.5,0.5,0.9,0.6h0.1h1v0.4c0,0.4,0.4,0.7,0.8,0.7h18.2c0.4,0,0.8-0.3,0.8-0.7v-0.4h1h0.1
	c0.4-0.1,0.7-0.3,0.9-0.6c0.2-0.3,0.3-0.6,0.3-1v-1.3C96.689,22.162,96.589,21.562,96.389,20.962z M95.189,24.062h-1.4v-1.4
	c0-0.3-0.2-0.5-0.5-0.5c-0.3,0-0.5,0.2-0.5,0.5v2.5h-2.8c0.2-0.1,0.2-0.4,0.4-0.5c-0.8,0.4-1.3,0.5-1.8-0.2c-0.3,0-0.6-0.1-0.9-0.2
	c1.1,0.5-2.4,2.2-3,2.2c-1.9,0-2.9-1.5-4.6-1.7c-0.5,0.3-0.7,0.4-1.3,0.2c0.1,0,0.1,0.1,0.2,0.2h-2.8v-2.5c0-0.3-0.2-0.5-0.5-0.5
	c-0.3,0-0.5,0.2-0.5,0.5v1.4h-1.3v-1.3c0-0.4,0.1-0.8,0.2-1.2l0,0l0,0c0.2-0.4,0.4-0.7,0.7-1l1.2-1.2c0.5,0.3,1.1,0.4,1.8,0.4v0.1
	c0.4-0.3,0.8-0.4,1.3-0.4c0.1-0.2,0.2-0.5,0.3-0.7c0.2-0.3,0.5-0.5,0.8-0.8c-0.4,0.1-0.8,0.1-1.3-0.1c0,0.1-0.1,0.1-0.1,0.1
	c-0.1,0-0.2,0.1-0.3,0.1l0,0c-0.2,0-0.3,0-0.5,0c-0.8,0-1.4-0.3-1.9-0.8l0,0c-0.5-0.5-0.8-1.2-0.8-1.9c0-0.8,0.3-1.4,0.8-1.9
	c0.3-0.4,1-0.7,1.8-0.7c0.3,0,0.6,0,0.8,0.1c0.2,0,0.3,0.1,0.5,0.2l0,0c0.4,0,0.8,0.1,1.2,0.3c-0.2-0.9-0.2-1.8-0.2-2.7
	c0-1.2,0.9-1.8,1.8-2c0.6-0.7,1.4-1,2.2-0.9c0.4-0.1,0.9-0.1,1.4,0.1c2,0.9,3.3,2,3.4,4.4c0,0.2,0,0.4,0,0.6
	c0.3,0.1,0.6,0.2,0.8,0.4l0,0l0,0l0,0l0,0v-0.1c0.1-0.1,0.3-0.1,0.5-0.2c0.3-0.2,0.6-0.2,0.9-0.2c0.8,0,1.4,0.3,1.9,0.8
	s0.8,1.2,0.8,1.9c0,0.8-0.3,1.4-0.8,1.9l0,0c-0.5,0.5-1.2,0.8-1.9,0.8c-0.2,0-0.4,0-0.5,0l0,0c-0.1,0-0.2,0-0.3-0.1
	c0-0.1-0.1-0.1-0.1-0.2c-0.4,0.2-0.8,0.3-1.2,0.3c0.3,0.4,0.5,0.9,0.8,1.4c0.6-0.1,1.1,0,1.6,0.4c0-0.1,0-0.1,0-0.2
	c0.6,0,1.2-0.2,1.8-0.4l1.2,1.2c0.3,0.3,0.5,0.7,0.7,1l0,0l0,0c0.2,0.4,0.2,0.8,0.2,1.2v1.3H95.189z"/>
<path class="st1" d="M84.489,6.762c3,0,5.4,2.4,5.4,5.4c0,1.5-0.6,2.9-1.6,3.8l0,0l0,0l0,0l0,0c1.1,1,2.3,2,2.8,3.5l0,0
	c0.3,0.7,0.4,1.5,0.4,2.3v1.7c0,0.4-0.1,0.8-0.4,1.1c-0.2,0.3-0.6,0.6-1,0.6h-0.1h-1.6v0.7c0,0.4-0.4,0.9-0.8,0.9l0,0h-6.3
	c-0.4,0-0.8-0.5-0.8-0.9l0,0v-0.7h-1.6c-0.1,0-0.1,0-0.2,0c-0.4-0.1-0.8-0.3-1-0.6c-0.2-0.3-0.4-0.7-0.4-1.1v-1.7
	c0-0.8,0.1-1.6,0.4-2.3c0.6-1.4,1.8-2.4,2.8-3.5l0,0l0,0c-1-1-1.6-2.4-1.6-3.8C79.089,9.162,81.489,6.762,84.489,6.762L84.489,6.762
	z M81.089,23.662L81.089,23.662v-2.1c0-0.3,0.2-0.5,0.5-0.5c0.3,0,0.5,0.2,0.5,0.5v2.8v0.1v0.7h4.9v-0.7l0,0v-0.1v-2.8
	c0-0.3,0.2-0.5,0.5-0.5c0.3,0,0.5,0.2,0.5,0.5v2.1h2c0,0,0-0.1,0-0.2v-1.7c0-0.6-0.1-1.2-0.3-1.7l0,0l0,0c-0.5-1.2-1.8-2.2-2.7-3.1
	c-0.8,0.4-1.6,0.6-2.5,0.6c-0.9,0-1.8-0.2-2.5-0.6c-0.9,0.9-2.2,1.9-2.7,3.1c-0.2,0.5-0.3,1.1-0.3,1.7v1.7c0,0.1,0,0.1,0,0.2
	L81.089,23.662L81.089,23.662z M84.489,8.362L84.489,8.362c-2.1,0-3.8,1.7-3.8,3.9c0,2.1,1.7,3.8,3.8,3.8c2.1,0,3.8-1.7,3.8-3.8
	C88.389,10.062,86.589,8.362,84.489,8.362L84.489,8.362z"/>
<path class="st0" d="M190.538,24.195h-18.5v-18.5c0-0.3-0.3-0.5-0.5-0.5c-0.3,0-0.5,0.2-0.5,0.5v19l0,0c0,0.3,0.2,0.5,0.5,0.5l0,0
	h19c0.3,0,0.5-0.2,0.5-0.5C191.038,24.495,190.838,24.195,190.538,24.195L190.538,24.195z"/>
<path class="st0" d="M180.738,15.995h-2.2c-0.3,0-0.5,0.2-0.5,0.5v6c0,0.3,0.2,0.5,0.5,0.5h2.2c0.3,0,0.5-0.2,0.5-0.5v-6
	C181.238,16.195,181.038,15.995,180.738,15.995z M180.338,21.995h-1.3v-5h1.3V21.995z"/>
<path class="st0" d="M190.138,18.995h-2.2c-0.3,0-0.5,0.2-0.5,0.5v3c0,0.3,0.2,0.5,0.5,0.5h2.2c0.3,0,0.5-0.2,0.5-0.5v-3
	C190.538,19.195,190.338,18.995,190.138,18.995z M189.638,21.995h-1.3v-2h1.3V21.995z"/>
<path class="st1" d="M176.038,7.495h-2.3c-0.3,0-0.5,0.2-0.5,0.5v14.5c0,0.3,0.2,0.5,0.5,0.5h2.3c0.3,0,0.5-0.2,0.5-0.5v-14.5
	C176.538,7.695,176.238,7.495,176.038,7.495z M175.538,21.995h-1.3v-13.6h1.3V21.995z"/>
<path class="st1" d="M185.538,10.095h-2.2c-0.3,0-0.5,0.2-0.5,0.5v11.8c0,0.3,0.2,0.5,0.5,0.5h2.2c0.3,0,0.5-0.2,0.5-0.5v-11.8
	C186.038,10.295,185.838,10.095,185.538,10.095z M185.038,21.995h-1.3v-10.9h1.3V21.995z"/>
<path class="st2" d="M25.093,36.673L25.093,36.673h-18.4c-0.5,0-0.8,0.3-0.8,0.8v18.5c0,0.4,0.3,0.7,0.8,0.7h18.5
	c0.4,0,0.8-0.3,0.8-0.8v-18.4C25.893,36.973,25.593,36.673,25.093,36.673L25.093,36.673z M24.393,55.173L24.393,55.173h-17v-12.5
	h16.9v12.5H24.393z M24.393,41.773L24.393,41.773h-17v-3.6h1.5v1.1c0,0.4,0.3,0.8,0.8,0.8s0.8-0.3,0.8-0.8v-1.1h2.6v1.1
	c0,0.4,0.3,0.8,0.8,0.8c0.4,0,0.8-0.3,0.8-0.8v-1.1h2.6v1.1c0,0.4,0.3,0.8,0.8,0.8c0.4,0,0.8-0.3,0.8-0.8v-1.1h2.6v1.1
	c0,0.4,0.3,0.8,0.8,0.8c0.4,0,0.8-0.3,0.8-0.8v-1.1h1.5v3.6H24.393z"/>
<path class="st2" d="M13.193,46.373c0.2,0.2,0.6,0.4,0.9,0.4c0.4,0,0.7-0.1,0.9-0.4c0.2-0.2,0.4-0.6,0.4-0.9c0-0.4-0.1-0.7-0.4-0.9
	l0,0c-0.2-0.3-0.5-0.4-0.9-0.4c-0.4,0-0.7,0.1-0.9,0.4l0,0c-0.2,0.2-0.4,0.5-0.4,0.9C12.793,45.773,12.993,46.073,13.193,46.373
	L13.193,46.373L13.193,46.373z"/>
<path class="st2" d="M13.893,45.173L13.893,45.173L13.893,45.173c0-0.1,0.1-0.1,0.2-0.1c0.1,0,0.2,0,0.3,0.1l0,0
	c0.1,0.1,0.1,0.2,0.1,0.3c0,0.1,0,0.2-0.1,0.3c-0.1,0-0.2,0-0.3,0c-0.1,0-0.2,0-0.2-0.1c-0.1,0-0.2-0.1-0.2-0.2
	C13.693,45.373,13.793,45.273,13.893,45.173L13.893,45.173z"/>
<path class="st2" d="M13.193,49.873L13.193,49.873c0.2,0.2,0.6,0.4,0.9,0.4c0.4,0,0.7-0.1,0.9-0.4l0,0c0.2-0.2,0.4-0.6,0.4-0.9
	c0-0.4-0.1-0.7-0.4-0.9l0,0c-0.2-0.2-0.6-0.4-0.9-0.4c-0.4,0-0.7,0.1-0.9,0.4l0,0c-0.2,0.2-0.4,0.6-0.4,0.9
	C12.793,49.273,12.993,49.573,13.193,49.873L13.193,49.873L13.193,49.873z"/>
<path class="st2" d="M13.893,48.673L13.893,48.673L13.893,48.673c0.1-0.1,0.2-0.1,0.3-0.1s0.2,0,0.3,0.1l0,0
	c0.1,0.1,0.1,0.2,0.1,0.3c0,0.1,0,0.2-0.1,0.3l0,0c-0.1,0.1-0.2,0.1-0.3,0.1s-0.2,0-0.3-0.1l0,0c-0.1-0.1-0.1-0.2-0.1-0.3
	C13.693,48.773,13.793,48.673,13.893,48.673L13.893,48.673z"/>
<path class="st2" d="M20.293,46.373L20.293,46.373c0.2,0.2,0.6,0.4,0.9,0.4c0.4,0,0.7-0.1,0.9-0.4c0.2-0.2,0.4-0.6,0.4-0.9
	c0-0.4-0.1-0.7-0.4-0.9l0,0c-0.2-0.2-0.6-0.4-0.9-0.4s-0.7,0.1-0.9,0.4l0,0c-0.2,0.2-0.4,0.5-0.4,0.9
	C19.893,45.773,20.093,46.073,20.293,46.373L20.293,46.373L20.293,46.373z"/>
<path class="st2" d="M20.993,45.173L20.993,45.173L20.993,45.173c0.1-0.1,0.2-0.1,0.3-0.1s0.2,0,0.3,0.1l0,0
	c0.1,0.1,0.1,0.2,0.1,0.3c0,0.1,0,0.2-0.1,0.3c-0.1,0.1-0.2,0.1-0.3,0.1s-0.2,0-0.3-0.1c-0.1-0.1-0.2-0.2-0.2-0.3
	C20.793,45.373,20.893,45.273,20.993,45.173L20.993,45.173z"/>
<path class="st2" d="M16.793,46.373L16.793,46.373c0.2,0.2,0.6,0.4,0.9,0.4c0.4,0,0.7-0.1,0.9-0.4c0.2-0.2,0.4-0.6,0.4-0.9
	c0-0.4-0.1-0.7-0.4-0.9l0,0c-0.2-0.2-0.6-0.4-0.9-0.4c-0.4,0-0.7,0.1-0.9,0.4l0,0c-0.2,0.2-0.4,0.6-0.4,0.9
	S16.493,46.073,16.793,46.373L16.793,46.373L16.793,46.373z"/>
<path class="st2" d="M17.393,45.173L17.393,45.173L17.393,45.173c0.1-0.1,0.2-0.1,0.3-0.1s0.2,0,0.3,0.1l0,0
	c0.1,0.1,0.1,0.2,0.1,0.3c0,0.1,0,0.2-0.1,0.3c-0.1,0.1-0.2,0.1-0.3,0.1s-0.2,0-0.3-0.1c-0.1-0.1-0.1-0.2-0.1-0.3
	C17.293,45.373,17.293,45.273,17.393,45.173L17.393,45.173z"/>
<path class="st2" d="M13.193,53.373L13.193,53.373c0.2,0.2,0.6,0.3,0.9,0.3c0.4,0,0.7-0.1,0.9-0.4l0,0c0.2-0.2,0.4-0.6,0.4-0.9
	c0-0.4-0.1-0.7-0.4-0.9l0,0c-0.2-0.2-0.6-0.4-0.9-0.4c-0.4,0-0.7,0.1-0.9,0.4l0,0c-0.2,0.2-0.4,0.6-0.4,0.9
	C12.793,52.773,12.993,53.073,13.193,53.373L13.193,53.373L13.193,53.373z"/>
<path class="st2" d="M13.893,52.173L13.893,52.173L13.893,52.173c0.1-0.1,0.2-0.1,0.3-0.1s0.2,0,0.3,0.1l0,0
	c0.1,0.1,0.1,0.2,0.1,0.3c0,0.1,0,0.2-0.1,0.3l0,0c-0.1,0.1-0.2,0.1-0.3,0.1s-0.2,0-0.3-0.1l0,0c-0.1-0.1-0.1-0.2-0.1-0.3
	C13.693,52.273,13.793,52.173,13.893,52.173L13.893,52.173z"/>
<path class="st2" d="M16.793,53.373L16.793,53.373c0.2,0.2,0.6,0.4,0.9,0.4c0.4,0,0.7-0.1,0.9-0.4l0,0c0.2-0.2,0.4-0.6,0.4-0.9
	c0-0.4-0.1-0.7-0.4-0.9l0,0c-0.2-0.2-0.6-0.4-0.9-0.4c-0.4,0-0.7,0.1-0.9,0.4l0,0c-0.2,0.2-0.4,0.6-0.4,0.9
	S16.493,53.073,16.793,53.373L16.793,53.373L16.793,53.373z"/>
<path class="st2" d="M17.393,52.173L17.393,52.173L17.393,52.173c0.1-0.1,0.2-0.1,0.3-0.1s0.2,0,0.3,0.1l0,0
	c0.1,0.1,0.1,0.2,0.1,0.3c0,0.1,0,0.2-0.1,0.3l0,0c-0.1,0.1-0.2,0.1-0.3,0.1s-0.2,0-0.3-0.1l0,0c-0.1-0.1-0.1-0.2-0.1-0.3
	C17.293,52.273,17.293,52.173,17.393,52.173L17.393,52.173z"/>
<path class="st2" d="M9.693,49.873L9.693,49.873c0.2,0.2,0.6,0.4,0.9,0.4c0.4,0,0.7-0.1,0.9-0.4l0,0c0.2-0.3,0.4-0.6,0.4-1
	c0-0.4-0.1-0.7-0.4-0.9l0,0c-0.2-0.2-0.6-0.4-0.9-0.4c-0.4,0-0.7,0.1-0.9,0.4l0,0c-0.2,0.2-0.4,0.6-0.4,0.9
	C9.293,49.273,9.393,49.573,9.693,49.873L9.693,49.873L9.693,49.873z"/>
<path class="st2" d="M10.293,48.673L10.293,48.673L10.293,48.673c0.1-0.1,0.2-0.1,0.3-0.1c0.1,0,0.2,0,0.3,0.1l0,0
	c0,0,0.1,0.1,0.1,0.2c0,0.1,0,0.2-0.1,0.3l0,0c-0.1,0.1-0.2,0.1-0.3,0.1s-0.2,0-0.3-0.1l0,0c-0.1-0.1-0.1-0.2-0.1-0.3
	C10.193,48.773,10.193,48.673,10.293,48.673L10.293,48.673z"/>
<path class="st2" d="M9.693,53.373L9.693,53.373c0.2,0.2,0.5,0.3,0.9,0.3c0.4,0,0.7-0.1,0.9-0.4l0,0c0.2-0.2,0.4-0.5,0.4-0.9
	c0-0.4-0.1-0.7-0.4-0.9l0,0c-0.2-0.2-0.6-0.4-0.9-0.4c-0.4,0-0.7,0.1-0.9,0.4l0,0c-0.2,0.2-0.4,0.6-0.4,0.9
	C9.293,52.773,9.393,53.073,9.693,53.373L9.693,53.373L9.693,53.373z"/>
<path class="st2" d="M10.293,52.173L10.293,52.173L10.293,52.173c0.1-0.1,0.2-0.1,0.3-0.1c0.1,0,0.2,0,0.3,0.1l0,0
	c0.1,0.1,0.1,0.2,0.1,0.3c0,0.1,0,0.2-0.1,0.3l0,0c-0.1,0.1-0.2,0.1-0.3,0.1s-0.2,0-0.3-0.1l0,0c-0.1-0.1-0.1-0.2-0.1-0.3
	C10.193,52.273,10.193,52.173,10.293,52.173L10.293,52.173z"/>
<path class="st2" d="M16.793,49.873L16.793,49.873c0.2,0.2,0.6,0.4,0.9,0.4c0.4,0,0.7-0.1,0.9-0.4l0,0c0.2-0.2,0.4-0.6,0.4-0.9
	c0-0.4-0.1-0.7-0.4-0.9l0,0c-0.2-0.2-0.6-0.4-0.9-0.4c-0.4,0-0.7,0.1-0.9,0.4l0,0c-0.2,0.2-0.4,0.6-0.4,0.9
	S16.493,49.573,16.793,49.873L16.793,49.873L16.793,49.873z"/>
<path class="st2" d="M17.393,48.673L17.393,48.673L17.393,48.673c0.1-0.1,0.2-0.1,0.3-0.1s0.2,0,0.3,0.1l0,0
	c0.1,0.1,0.1,0.2,0.1,0.3c0,0.1,0,0.2-0.1,0.3l0,0c-0.1,0.1-0.2,0.1-0.3,0.1s-0.2,0-0.3-0.1l0,0c-0.1-0.1-0.1-0.2-0.1-0.3
	C17.293,48.773,17.293,48.673,17.393,48.673L17.393,48.673z"/>
<path class="st2" d="M20.293,49.873L20.293,49.873c0.2,0.2,0.6,0.4,0.9,0.4s0.7-0.1,0.9-0.4l0,0c0.2-0.2,0.4-0.6,0.4-0.9
	c0-0.4-0.1-0.7-0.4-0.9l0,0c-0.2-0.2-0.6-0.4-0.9-0.4c-0.3,0-0.7,0.1-0.9,0.4l0,0c-0.2,0.2-0.4,0.6-0.4,0.9
	S20.093,49.573,20.293,49.873L20.293,49.873L20.293,49.873z"/>
<path class="st2" d="M20.993,48.673L20.993,48.673L20.993,48.673c0.1-0.1,0.2-0.1,0.3-0.1s0.2,0,0.3,0.1l0,0
	c0.1,0.1,0.1,0.2,0.1,0.3c0,0.1,0,0.2-0.1,0.3l0,0c-0.1,0.1-0.2,0.1-0.3,0.1s-0.2,0-0.3-0.1l0,0c-0.1-0.1-0.1-0.2-0.1-0.3
	C20.793,48.773,20.893,48.673,20.993,48.673L20.993,48.673z"/>
<path class="st2" d="M61.516,35.331h-23.7c-0.6,0-1,0.5-1,1v18c0,0.5,0.4,1,1,1h3.2c0.5,0,0.9-0.4,0.9-1v-1.6h3.2v1.6
	c0,0.5,0.5,1,1,1h7.2c0.5,0,0.8-0.5,0.8-1.1v-1.5h3.3v1.7c0,0.5,0.6,0.9,1.1,0.9h3.2c0.5,0,1-0.5,1-1.1v-17.9
	C62.516,35.831,62.016,35.331,61.516,35.331z M40.716,51.831v2.3h-2.6v-17.6h23.1v17.5h-2.7v-2.3h-5.5l0,0l0,0v2.4h-6.7v-2.3l0,0"/>
<path class="st2" d="M52.116,46.631h6.1c0.3,0,0.6-0.3,0.6-0.6c0-0.3-0.3-0.6-0.6-0.6h-6.1c-0.3,0-0.6,0.3-0.6,0.6
	C51.516,46.331,51.816,46.631,52.116,46.631L52.116,46.631z"/>
<path class="st2" d="M52.116,44.031L52.116,44.031h6.1c0.3,0,0.6-0.3,0.6-0.6s-0.3-0.6-0.6-0.6h-6.1c-0.3,0-0.6,0.3-0.6,0.6
	S51.816,44.031,52.116,44.031L52.116,44.031z"/>
<path class="st2" d="M52.116,41.431L52.116,41.431h6.1c0.3,0,0.6-0.3,0.6-0.6s-0.3-0.6-0.6-0.6h-6.1c-0.3,0-0.6,0.3-0.6,0.6
	S51.816,41.431,52.116,41.431L52.116,41.431z"/>
<path class="st2" d="M49.216,46.731c-0.2-0.4-0.4-0.7-0.7-1c-0.3-0.3-0.6-0.5-1-0.7l-0.1-0.1l0.1-0.1c0.7-0.7,1.1-1.6,1.1-2.6
	s-0.4-1.9-1.1-2.6c-0.8-0.7-1.7-1.1-2.7-1.1s-2,0.4-2.6,1.1c-0.7,0.7-1.1,1.6-1.1,2.6s0.4,1.9,1.1,2.6l0.1,0.1
	c-0.5,0.2-0.9,0.4-1.2,0.8c-0.3,0.3-0.5,0.6-0.7,1c-0.2,0.4-0.2,0.8-0.2,1.2v0.9c0,0.3,0.3,0.6,0.6,0.6h8c0.3,0,0.6-0.3,0.6-0.6
	v-0.9C49.416,47.531,49.316,47.131,49.216,46.731z M43.016,40.431c0.5-0.4,1.1-0.7,1.8-0.7s1.3,0.3,1.8,0.7c0.5,0.5,0.7,1.1,0.7,1.8
	c0,0.7-0.3,1.3-0.7,1.8c-1,1-2.6,1-3.6,0c-0.4-0.5-0.7-1.1-0.7-1.8C42.316,41.531,42.616,40.931,43.016,40.431z M48.216,48.231h-6.8
	v-0.3c0-0.3,0.1-0.5,0.2-0.8c0.1-0.2,0.2-0.5,0.4-0.6c0.4-0.4,0.9-0.6,1.4-0.6h2.9c0.3,0,0.5,0.1,0.8,0.1c0.2,0.1,0.5,0.3,0.6,0.4
	c0.2,0.2,0.3,0.4,0.4,0.6c0.1,0.2,0.1,0.5,0.1,0.8C48.216,47.831,48.216,48.231,48.216,48.231z"/>
<path class="st2" d="M113.98,37.123c1.3-1.1,3.8-1.1,5.1,0c0.8,0.7,1.1,1.6,1.1,2.1l0,0v0.7c0,0.8,0,1.7,0.1,2.3
	c0,0.2,0,0.3,0.1,0.5c0,0,0,0,0,0.1l0,0l0,0c0,0.1,0.1,0.1,0.1,0.1s0,0.1,0,0.5c0,0.5-0.2,0.8-0.3,1.1v0.1c-0.1,0.2-0.2,0.3-0.2,0.5
	l-0.1,0.3l0,0l0.1,0.2c-0.1,0.5,0.2,0.9,0.6,1c0.5,0.1,0.9-0.2,1-0.6l0.1-0.2l0.1-0.3c0,0,0-0.1,0.1-0.2l0,0c0.2-0.4,0.5-1,0.5-1.9
	c0-1.2-0.2-1.4-0.5-1.7l0,0c-0.1-0.1,0.1-0.9,0.1-1.8l0,0v-0.7l0,0l0,0c0-0.7-0.4-2.3-1.7-3.4c-2-1.6-5.3-1.6-7.3,0
	c-1.4,1.1-1.8,2.6-1.8,3.4v0.1v0.7l0,0c0,0.8,0.2,1.7,0.1,1.8l0,0l0,0c-0.2,0.2-0.5,0.4-0.5,1.6c0,0.9,0.3,1.5,0.5,1.9
	c0.1,0.1,0.1,0.2,0.1,0.2c0,0.1,0.1,0.3,0.1,0.5l0,0c0.1,0.2,0.1,0.3,0.2,0.6c0,0.3,0.1,0.5,0.3,0.8c0.2,0.3,0.3,0.5,0.5,0.7
	c-0.1,3-0.9,3.2-3,3.9c-0.6,0.2-1.2,0.4-2,0.7c-0.1,0.1-0.4,0.2-0.5,0.3l0,0c-0.1,0.1-0.1,0.1-0.2,0.2c-0.2,0.4-0.2,0.8,0.2,1.1
	c0.1,0,0.1,0.1,0.2,0.1c0.1,0.1,0.2,0.1,0.4,0.1l0,0c2.4,0.1,4.8,0,7.1,0c1,0,2,0,3.6,0c0.5,0,0.8-0.4,0.8-0.8
	c0-0.5-0.4-0.8-0.8-0.8c-0.8,0-2.2,0-3.6,0c-1,0-1.9,0-2.9,0c1.6-0.7,2.2-1.7,2.4-4.9l0,0c0-0.2,0-0.3-0.1-0.5v-0.1
	c-0.1-0.2-0.2-0.4-0.3-0.5c-0.1-0.1-0.2-0.3-0.3-0.5c0-0.1-0.1-0.1-0.1-0.2c0-0.2-0.1-0.5-0.1-0.7l0,0c0-0.2-0.1-0.4-0.1-0.6
	c-0.1-0.2-0.1-0.3-0.2-0.5c-0.3-0.1-0.5-0.5-0.5-1v-0.5l0.1-0.1v-0.1c0.3-0.4,0.3-1.7,0.3-2.8v-0.7v-0.1
	C112.88,38.723,113.18,37.823,113.98,37.123L113.98,37.123z"/>
<path class="st2" d="M130.38,48.423c0-0.4-0.2-0.7-0.4-1c-0.2-0.2-0.6-0.4-1-0.4h-2.3c0.4-1.4,0.6-2.4-0.2-3.9l0,0
	c-0.2-0.4-0.6-0.6-1-0.7c-0.2,0-0.4,0-0.6,0.1l0,0c-0.2,0.1-0.4,0.2-0.6,0.4c-0.2,0.3-0.3,0.6-0.3,1.1c0.1,0.5,0,1.1-0.3,1.6l0,0
	c-0.3,0.5-0.6,1-1.1,1.5c0,0-0.1,0-0.2,0h-2.4c-0.3,0-0.5,0.2-0.5,0.5v6.4c0,0.3,0.2,0.5,0.5,0.5h2.4c0.2,0,0.4-0.1,0.5-0.4l0.9,0.4
	c0.1,0,0.1,0.1,0.2,0.1h3.6c0.4,0,0.7-0.2,1-0.4l0,0l0,0c0.2-0.2,0.4-0.6,0.4-1c0-0.2,0-0.4-0.1-0.5l0.1-0.1l0,0l0,0
	c0.2-0.2,0.3-0.4,0.3-0.6l0,0c0.1-0.2,0.1-0.5,0-0.7l0,0v-0.1c0.1,0,0.1-0.1,0.2-0.1c0.2-0.2,0.3-0.4,0.3-0.6c0.1-0.2,0.1-0.5,0-0.7
	l0,0v-0.1l0.1-0.1C130.18,49.123,130.38,48.823,130.38,48.423z M129.28,48.623c-0.1,0.1-0.2,0.1-0.3,0.1c-0.3,0-0.5,0.2-0.5,0.5
	c0,0.2,0.1,0.4,0.3,0.5c0.1,0,0.1,0.1,0.2,0.2l0,0c0,0.1,0,0.1,0,0.2c0,0.1-0.1,0.1-0.1,0.2c-0.1,0.1-0.2,0.1-0.3,0.1
	c-0.3,0-0.5,0.2-0.5,0.5c0,0.2,0.1,0.4,0.3,0.5c0.1,0,0.1,0.1,0.1,0.2l0,0c0,0,0,0.1,0,0.2l0,0c0,0.1-0.1,0.1-0.1,0.2l0,0
	c-0.1,0.1-0.2,0.1-0.3,0.1c-0.3,0-0.5,0.2-0.5,0.5c0,0.2,0.1,0.4,0.3,0.5l0.1,0.1l0,0c0,0,0,0.1,0,0.2c0,0.1,0,0.2-0.1,0.2l0,0
	c-0.1,0.1-0.1,0.1-0.2,0.1h-3.5l-1.5-0.6c-0.3-0.1-0.6,0-0.7,0.3c0,0.1,0,0.1,0,0.2l0,0v0.1h-1.4v-5.4h1.4c0.1,0.2,0.3,0.4,0.5,0.4
	c0.1,0,0.3-0.1,0.4-0.2c0.7-0.6,1.3-1.4,1.7-2.2l0,0c0.4-0.7,0.5-1.5,0.4-2.3c0-0.1,0-0.2,0-0.3l0.1-0.1l0,0c0.1,0,0.1,0,0.2,0
	c0.1,0,0.2,0.1,0.3,0.2l0,0c0.7,1.1,0.4,2.1,0.1,3.2l0,0l-0.1,0.4c-0.1,0.3,0.1,0.5,0.4,0.6h0.1h3c0.1,0,0.2,0,0.2,0.1l0,0
	c0.1,0.1,0.1,0.1,0.1,0.2C129.38,48.523,129.38,48.523,129.28,48.623z"/>
<path class="st2" d="M97.326,49.722c-0.2-0.6-0.6-1.1-1-1.5l-1-1c0.7-0.8,1.2-1.8,1.2-2.9c0-1.2-0.5-2.3-1.3-3.1
	c-0.8-0.8-1.9-1.3-3.1-1.3c-0.4,0-0.9,0.1-1.3,0.2c-0.4-2.6-2.7-4.6-5.4-4.6s-5,2-5.4,4.6c-0.4-0.1-0.8-0.2-1.2-0.2
	c-1.2,0-2.3,0.5-3.1,1.3c-0.8,0.7-1.3,1.8-1.3,3c0,1.1,0.4,2.2,1.2,2.9l-1,1c-0.5,0.5-0.8,1-1,1.5l0,0c-0.3,0.7-0.4,1.3-0.4,1.9v1.3
	c0,0.3,0.1,0.7,0.3,1c0.2,0.3,0.5,0.5,0.9,0.6h0.1h1v0.4c0,0.4,0.4,0.7,0.8,0.7h18.2c0.4,0,0.8-0.3,0.8-0.7v-0.4h1h0.1
	c0.4-0.1,0.7-0.3,0.9-0.6c0.2-0.3,0.3-0.6,0.3-1v-1.3C97.626,50.922,97.526,50.322,97.326,49.722z M96.126,52.822h-1.4v-1.4
	c0-0.3-0.2-0.5-0.5-0.5c-0.3,0-0.5,0.2-0.5,0.5v2.5h-2.8c0.2-0.1,0.2-0.4,0.4-0.5c-0.8,0.4-1.3,0.5-1.8-0.2c-0.3,0-0.6-0.1-0.9-0.2
	c1.1,0.5-2.4,2.2-3,2.2c-1.9,0-2.9-1.5-4.6-1.7c-0.5,0.3-0.7,0.4-1.3,0.2c0.1,0,0.1,0.1,0.2,0.2h-2.8v-2.5c0-0.3-0.2-0.5-0.5-0.5
	c-0.3,0-0.5,0.2-0.5,0.5v1.4h-1.3v-1.3c0-0.4,0.1-0.8,0.2-1.2l0,0l0,0c0.2-0.4,0.4-0.7,0.7-1l1.2-1.2c0.5,0.3,1.1,0.4,1.8,0.4v0.1
	c0.4-0.3,0.8-0.4,1.3-0.4c0.1-0.2,0.2-0.5,0.3-0.7c0.2-0.3,0.5-0.5,0.8-0.8c-0.4,0.1-0.8,0.1-1.3-0.1c0,0.1-0.1,0.1-0.1,0.1
	c-0.1,0-0.2,0.1-0.3,0.1l0,0c-0.2,0-0.3,0-0.5,0c-0.8,0-1.4-0.3-1.9-0.8l0,0c-0.5-0.5-0.8-1.2-0.8-1.9c0-0.8,0.3-1.4,0.8-1.9
	c0.3-0.4,1-0.7,1.8-0.7c0.3,0,0.6,0,0.8,0.1c0.2,0,0.3,0.1,0.5,0.2l0,0c0.4,0,0.8,0.1,1.2,0.3c-0.2-0.9-0.2-1.8-0.2-2.7
	c0-1.2,0.9-1.8,1.8-2c0.6-0.7,1.4-1,2.2-0.9c0.4-0.1,0.9-0.1,1.4,0.1c2,0.9,3.3,2,3.4,4.4c0,0.2,0,0.4,0,0.6
	c0.3,0.1,0.6,0.2,0.8,0.4l0,0l0,0l0,0l0,0v-0.1c0.1-0.1,0.3-0.1,0.5-0.2c0.3-0.2,0.6-0.2,0.9-0.2c0.8,0,1.4,0.3,1.9,0.8
	s0.8,1.2,0.8,1.9c0,0.8-0.3,1.4-0.8,1.9l0,0c-0.5,0.5-1.2,0.8-1.9,0.8c-0.2,0-0.4,0-0.5,0l0,0c-0.1,0-0.2,0-0.3-0.1
	c0-0.1-0.1-0.1-0.1-0.2c-0.4,0.2-0.8,0.3-1.2,0.3c0.3,0.4,0.5,0.9,0.8,1.4c0.6-0.1,1.1,0,1.6,0.4c0-0.1,0-0.1,0-0.2
	c0.6,0,1.2-0.2,1.8-0.4l1.2,1.2c0.3,0.3,0.5,0.7,0.7,1l0,0l0,0c0.2,0.4,0.2,0.8,0.2,1.2v1.3H96.126z"/>
<path class="st2" d="M85.426,35.522c3,0,5.4,2.4,5.4,5.4c0,1.5-0.6,2.9-1.6,3.8l0,0l0,0l0,0l0,0c1.1,1,2.3,2,2.8,3.5l0,0
	c0.3,0.7,0.4,1.5,0.4,2.3v1.7c0,0.4-0.1,0.8-0.4,1.1c-0.2,0.3-0.6,0.6-1,0.6h-0.1h-1.6v0.7c0,0.4-0.4,0.9-0.8,0.9l0,0h-6.3
	c-0.4,0-0.8-0.5-0.8-0.9l0,0v-0.7h-1.6c-0.1,0-0.1,0-0.2,0c-0.4-0.1-0.8-0.3-1-0.6c-0.2-0.3-0.4-0.7-0.4-1.1v-1.7
	c0-0.8,0.1-1.6,0.4-2.3c0.6-1.4,1.8-2.4,2.8-3.5l0,0l0,0c-1-1-1.6-2.4-1.6-3.8C80.026,37.922,82.426,35.522,85.426,35.522
	L85.426,35.522z M82.026,52.422L82.026,52.422v-2.1c0-0.3,0.2-0.5,0.5-0.5c0.3,0,0.5,0.2,0.5,0.5v2.8v0.1v0.7h4.9v-0.7l0,0v-0.1
	v-2.8c0-0.3,0.2-0.5,0.5-0.5c0.3,0,0.5,0.2,0.5,0.5v2.1h2c0,0,0-0.1,0-0.2v-1.7c0-0.6-0.1-1.2-0.3-1.7l0,0l0,0
	c-0.5-1.2-1.8-2.2-2.7-3.1c-0.8,0.4-1.6,0.6-2.5,0.6c-0.9,0-1.8-0.2-2.5-0.6c-0.9,0.9-2.2,1.9-2.7,3.1c-0.2,0.5-0.3,1.1-0.3,1.7v1.7
	c0,0.1,0,0.1,0,0.2H82.026L82.026,52.422z M85.426,37.122L85.426,37.122c-2.1,0-3.8,1.7-3.8,3.9c0,2.1,1.7,3.8,3.8,3.8
	s3.8-1.7,3.8-3.8C89.326,38.822,87.526,37.122,85.426,37.122L85.426,37.122z"/>
<path class="st2" d="M190.738,54.046h-18.5v-18.5c0-0.3-0.3-0.5-0.5-0.5c-0.3,0-0.5,0.2-0.5,0.5v19l0,0c0,0.3,0.2,0.5,0.5,0.5l0,0
	h19c0.3,0,0.5-0.2,0.5-0.5C191.238,54.346,191.038,54.046,190.738,54.046L190.738,54.046z"/>
<path class="st2" d="M180.938,45.846h-2.2c-0.3,0-0.5,0.2-0.5,0.5v6c0,0.3,0.2,0.5,0.5,0.5h2.2c0.3,0,0.5-0.2,0.5-0.5v-6
	C181.438,46.046,181.238,45.846,180.938,45.846z M180.538,51.846h-1.3v-5h1.3V51.846z"/>
<path class="st2" d="M190.338,48.846h-2.2c-0.3,0-0.5,0.2-0.5,0.5v3c0,0.3,0.2,0.5,0.5,0.5h2.2c0.3,0,0.5-0.2,0.5-0.5v-3
	C190.738,49.046,190.538,48.846,190.338,48.846z M189.838,51.846h-1.3v-2h1.3V51.846z"/>
<path class="st2" d="M176.238,37.346h-2.3c-0.3,0-0.5,0.2-0.5,0.5v14.5c0,0.3,0.2,0.5,0.5,0.5h2.3c0.3,0,0.5-0.2,0.5-0.5v-14.5
	C176.738,37.546,176.438,37.346,176.238,37.346z M175.738,51.846h-1.3v-13.6h1.3V51.846z"/>
<path class="st2" d="M185.738,39.946h-2.2c-0.3,0-0.5,0.2-0.5,0.5v11.8c0,0.3,0.2,0.5,0.5,0.5h2.2c0.3,0,0.5-0.2,0.5-0.5v-11.8
	C186.238,40.146,186.038,39.946,185.738,39.946z M185.238,51.846h-1.3v-10.9h1.3V51.846z"/>
<path class="st4" d="M59.008,76.167h-1.9c-0.1-0.2-0.1-0.4-0.2-0.5l0,0c-0.1-0.2-0.2-0.4-0.3-0.6l1.3-1.3l0,0c0.3-0.3,0.3-0.8,0-1.1
	l-2.1-2.3l0,0c-0.3-0.3-0.8-0.3-1.1,0l-1.4,1.4c-0.2-0.1-0.4-0.2-0.6-0.3c-0.2-0.1-0.4-0.1-0.6-0.2v-1.9c0.1-0.4-0.3-0.8-0.8-0.8h-3
	c-0.5,0-0.8,0.4-0.8,0.8v1.9c-0.2,0.1-0.4,0.2-0.6,0.2c-0.2,0.1-0.4,0.2-0.6,0.3l-1.3-1.3l0,0c-0.3-0.4-0.9-0.4-1.2-0.1l-2.1,2.2
	l0,0c-0.3,0.3-0.3,0.8,0,1.2l1.4,1.4c-0.2,0.1-0.3,0.3-0.3,0.4l0,0c-0.1,0.3-0.2,0.5-0.3,0.7h-1.9c-0.4,0-0.8,0.3-0.8,0.8v3.1
	c0,0.4,0.4,0.8,0.8,0.8h1.9c0.1,0.2,0.1,0.4,0.2,0.5l0,0c0.1,0.2,0.2,0.4,0.3,0.6l-1.3,1.3l0,0c-0.3,0.3-0.3,0.8,0,1.1l2.1,2.2l0,0
	c0.3,0.3,0.8,0.3,1.1,0l1.4-1.4c0.2,0.2,0.4,0.3,0.5,0.3l0,0c0.2,0.1,0.4,0.1,0.6,0.2v1.9c0.1,0.5,0.4,0.9,0.9,0.9h3.1
	c0.5,0,0.8-0.4,0.8-0.8v-1.9c0.2-0.1,0.4-0.1,0.6-0.2c0.2-0.1,0.4-0.2,0.5-0.3l1.3,1.4l0,0c0.3,0.3,0.8,0.3,1.1,0l2.2-2.2l0,0
	c0.3-0.3,0.3-0.8,0-1.1l-1.4-1.4c0.1-0.2,0.2-0.4,0.3-0.6c0.1-0.2,0.2-0.4,0.2-0.6h1.9l0,0c0.4,0,0.8-0.4,0.8-0.8v-3l0,0
	C59.808,76.567,59.408,76.167,59.008,76.167L59.008,76.167z M58.208,79.267L58.208,79.267h-1.7c-0.4,0-0.7,0.3-0.8,0.7
	c-0.1,0.3-0.2,0.6-0.3,0.9c-0.1,0.3-0.3,0.6-0.5,0.9c-0.2,0.3-0.1,0.7,0.1,1l0,0l1.2,1.2l-1,1l-1.2-1.2c-0.3-0.3-0.7-0.3-1.1-0.1
	c-0.3,0.2-0.5,0.3-0.8,0.4s-0.6,0.2-0.9,0.3c-0.4,0.1-0.6,0.4-0.6,0.8v1.7h-1.5v-1.7c0-0.4-0.3-0.7-0.7-0.8
	c-0.3-0.1-0.6-0.2-0.9-0.3l0,0c-0.3-0.1-0.6-0.3-0.8-0.4c-0.3-0.2-0.7-0.1-1,0.1l0,0l-1.2,1.2l-1-1l1.2-1.2c0.3-0.3,0.3-0.7,0.1-1
	l0,0c-0.2-0.3-0.3-0.6-0.5-0.9l0,0c-0.1-0.3-0.2-0.6-0.3-0.9c-0.1-0.4-0.4-0.6-0.8-0.6l0,0h-1.8v-1.5h1.7c0.4,0,0.7-0.3,0.8-0.7
	c0.1-0.3,0.2-0.6,0.4-0.9l0,0c0.1-0.3,0.3-0.6,0.4-0.8c0.2-0.3,0.1-0.7-0.1-1l0,0l-1.2-1.3l1-1l1.2,1.2c0.3,0.3,0.7,0.3,1,0.1
	c0.3-0.2,0.6-0.3,0.9-0.5c0.3-0.1,0.6-0.2,0.9-0.3c0.4,0,0.7-0.4,0.7-0.7l0,0v-1.8h1.5v1.7c0,0.4,0.3,0.7,0.7,0.8
	c0.3,0.1,0.6,0.2,0.9,0.3c0.3,0.1,0.6,0.3,0.9,0.5s0.8,0.1,1-0.1l1.2-1.2l1,1l-1.2,1.2c-0.3,0.3-0.3,0.7-0.1,1
	c0.2,0.3,0.3,0.6,0.4,0.8l0,0c0.1,0.3,0.2,0.6,0.3,0.9c0.1,0.4,0.4,0.6,0.8,0.6l0,0h1.7V79.267L58.208,79.267z M49.808,75.167
	L49.808,75.167c-0.9,0-1.8,0.4-2.4,1c-0.6,0.6-1,1.5-1,2.4s0.4,1.8,1,2.4c0.6,0.6,1.5,1,2.4,1c0.9,0,1.8-0.4,2.4-1
	c0.6-0.6,1-1.5,1-2.4s-0.4-1.8-1-2.4C51.608,75.567,50.708,75.167,49.808,75.167L49.808,75.167z M51.508,80.267L51.508,80.267
	c-0.4,0.4-1.1,0.7-1.7,0.7c-0.7,0-1.3-0.3-1.7-0.7c-0.4-0.4-0.7-1.1-0.7-1.7c0-0.7,0.3-1.3,0.7-1.7c0.4-0.5,1-0.8,1.7-0.8
	s1.3,0.3,1.7,0.7c0.4,0.4,0.7,1.1,0.7,1.7C52.308,79.267,52.008,79.867,51.508,80.267L51.508,80.267z"/>
<path class="st4" d="M109.249,81.483c0.5,0.6,0.8,1.4,0.8,2.3c0,0.6-0.2,1.2-0.5,1.8c-0.2,0.3-0.4,0.7-0.8,1l-1.1,1
	c-1,1-1.7,1.9-2,2.7s-0.5,1.8-0.5,3.1h2.5c0-1.1,0.1-2,0.4-2.6s0.8-1.3,1.7-2.1c1.2-1.1,2-2,2.4-2.6c0.3-0.6,0.5-1.4,0.5-2.3
	c0-1.6-0.5-2.9-1.6-3.9s-2.5-1.5-4.3-1.5c-1.9,0-3.4,0.6-4.5,1.8c-1.1,1.1-1.6,2.7-1.6,4.6h2.4c0-1.2,0.2-2.1,0.5-2.7
	c0.6-1,1.6-1.6,3.1-1.6C107.949,80.483,108.749,80.783,109.249,81.483L109.249,81.483z"/>
<rect x="83.826" y="85.883" class="st4" width="2.7" height="2.8"/>
<path class="st4" d="M122.243,79.267c0.1,0.9,0.3,1.8,0.5,2.8l0,0l0,0c0.1,0.6,0.5,1,0.9,1.3l0,0c0.6,0.6,1.1,1.2,1.1,2.4
	c0,0.4-0.3,0.8-0.8,0.8l0,0h-4.9c-0.1,0.6-0.3,1.1-0.7,1.5c-0.4,0.6-1,0.9-1.7,0.9s-1.4-0.3-1.8-0.7c-0.4-0.4-0.7-0.9-0.7-1.5h-5
	c-0.4,0-0.8-0.4-0.8-0.8l0,0c0-1.4,0.7-1.9,1.4-2.5c0.4-0.3,0.8-0.7,0.9-1.2c0.2-1,0.4-1.9,0.5-2.8v-0.3c0.1-0.7,0.2-1.2,0.3-1.6
	c0.3-1.6,1-3.2,2.5-4.1c0.3-0.3,0.7-0.5,1.1-0.6v-0.1c-0.4-0.4-0.7-0.9-0.7-1.6c0-0.6,0.2-1.2,0.7-1.6c0.4-0.3,0.9-0.6,1.6-0.6
	c0.6,0,1.2,0.3,1.6,0.7s0.7,1,0.7,1.6c0,0.6-0.2,1.2-0.7,1.6l0,0c0.5,0.1,0.9,0.3,1.3,0.6
	C121.643,74.767,121.943,77.067,122.243,79.267L122.243,79.267z M117.543,70.267L117.543,70.267c-0.2-0.2-0.6-0.4-0.9-0.4
	c-0.4,0-0.7,0.1-0.9,0.4c-0.3,0.3-0.4,0.6-0.4,0.9c0,0.3,0.1,0.7,0.4,0.9c0.2,0.2,0.6,0.4,0.9,0.4c0.4,0,0.7-0.1,0.9-0.4
	c0.2-0.2,0.4-0.6,0.4-0.9C117.943,70.867,117.743,70.567,117.543,70.267L117.543,70.267z M120.743,79.567L120.743,79.567
	c-0.3-1.7-0.4-3.8-2-4.8c-0.6-0.4-1.3-0.6-2-0.6c-0.7,0-1.4,0.2-2,0.6c-1.1,0.7-1.5,1.8-1.8,3.1c-0.1,0.4-0.2,0.9-0.2,1.4l-0.1,0.3
	c-0.1,0.9-0.3,1.9-0.5,2.9c-0.3,1.1-0.9,1.6-1.4,2.1c-0.2,0.2-0.4,0.4-0.6,0.6h12.9c-0.1-0.2-0.3-0.4-0.5-0.6l0,0
	c-0.5-0.5-1-1.1-1.3-2l0,0C121.043,81.467,120.843,80.467,120.743,79.567L120.743,79.567z M117.543,86.667L117.543,86.667h-1.9
	c0,0.2,0.1,0.3,0.2,0.4c0.2,0.2,0.4,0.3,0.7,0.3c0.3,0,0.5-0.1,0.7-0.3C117.443,86.967,117.543,86.867,117.543,86.667
	L117.543,86.667z"/>
</svg>
